<mxfile host="Electron" modified="2024-05-15T14:43:57.761Z" agent="Mozilla/5.0 (Macintosh; Intel Mac OS X 10_15_7) AppleWebKit/537.36 (KHTML, like Gecko) draw.io/24.4.0 Chrome/120.0.6099.109 Electron/28.1.0 Safari/537.36" etag="5BHFYH73F_nqF5zil-8u" version="24.4.0" type="device">
  <diagram name="Страница-1" id="Page-1">
    <mxGraphModel dx="804" dy="666" grid="1" gridSize="10" guides="1" tooltips="1" connect="1" arrows="1" fold="1" page="1" pageScale="1" pageWidth="827" pageHeight="1169" math="0" shadow="0">
      <root>
        <mxCell id="0" />
        <mxCell id="1" parent="0" />
        <mxCell id="eSxXKxZ22m-BICX9o1b3-95" style="vsdxID=5;fillColor=#FFFFFF;gradientColor=none;shape=stencil(nY9LDoAgDERP0z3SI/i5BwkoRAUC+Lu9kGo0Lt3NtK/tFLCOWngFnMUU3Kg2I5MGbIBzY7UKJmUF2ALWvQtqCG6xkrwXhSxqdmvZsNNcxViZ4ewgT64jdDL2hf4E7wsXmsWThd549765c4l+xvYE);strokeColor=#000000;strokeWidth=4;spacingTop=-1;spacingBottom=-1;spacingLeft=-1;spacingRight=-1;labelBackgroundColor=#ffffff;rounded=0;html=1;whiteSpace=wrap;fontFamily=GOST type B;" parent="1" vertex="1">
          <mxGeometry x="75" y="938" width="740" height="220" as="geometry" />
        </mxCell>
        <mxCell id="eSxXKxZ22m-BICX9o1b3-96" style="vsdxID=30;edgeStyle=none;startArrow=none;endArrow=none;startSize=5;endSize=5;strokeWidth=4;strokeColor=#000000;spacingTop=-1;spacingBottom=-1;spacingLeft=-1;spacingRight=-1;verticalAlign=middle;html=1;labelBackgroundColor=#ffffff;rounded=0;fontFamily=GOST type B;" parent="1" edge="1">
          <mxGeometry x="75" y="10" as="geometry">
            <Array as="points" />
            <mxPoint x="103" y="938" as="sourcePoint" />
            <mxPoint x="103" y="1038" as="targetPoint" />
          </mxGeometry>
        </mxCell>
        <mxCell id="eSxXKxZ22m-BICX9o1b3-97" style="vsdxID=29;edgeStyle=none;startArrow=none;endArrow=none;startSize=5;endSize=5;strokeColor=#000000;spacingTop=-1;spacingBottom=-1;spacingLeft=-1;spacingRight=-1;verticalAlign=middle;html=1;labelBackgroundColor=#ffffff;rounded=0;fontFamily=GOST type B;" parent="1" edge="1">
          <mxGeometry x="75" y="10" as="geometry">
            <mxPoint as="offset" />
            <Array as="points" />
            <mxPoint x="75" y="1138" as="sourcePoint" />
            <mxPoint x="335" y="1138" as="targetPoint" />
          </mxGeometry>
        </mxCell>
        <mxCell id="eSxXKxZ22m-BICX9o1b3-98" style="vsdxID=28;edgeStyle=none;startArrow=none;endArrow=none;startSize=5;endSize=5;strokeColor=#000000;spacingTop=-1;spacingBottom=-1;spacingLeft=-1;spacingRight=-1;verticalAlign=middle;html=1;labelBackgroundColor=#ffffff;rounded=0;fontFamily=GOST type B;" parent="1" edge="1">
          <mxGeometry x="75" y="10" as="geometry">
            <mxPoint as="offset" />
            <Array as="points" />
            <mxPoint x="75" y="1118" as="sourcePoint" />
            <mxPoint x="335" y="1118" as="targetPoint" />
          </mxGeometry>
        </mxCell>
        <mxCell id="eSxXKxZ22m-BICX9o1b3-99" style="vsdxID=27;edgeStyle=none;startArrow=none;endArrow=none;startSize=5;endSize=5;strokeColor=#000000;spacingTop=-1;spacingBottom=-1;spacingLeft=-1;spacingRight=-1;verticalAlign=middle;html=1;labelBackgroundColor=#ffffff;rounded=0;fontFamily=GOST type B;" parent="1" edge="1">
          <mxGeometry x="75" y="10" as="geometry">
            <mxPoint as="offset" />
            <Array as="points" />
            <mxPoint x="75" y="1098" as="sourcePoint" />
            <mxPoint x="335" y="1098" as="targetPoint" />
          </mxGeometry>
        </mxCell>
        <mxCell id="eSxXKxZ22m-BICX9o1b3-100" style="vsdxID=26;edgeStyle=none;startArrow=none;endArrow=none;startSize=5;endSize=5;strokeColor=#000000;spacingTop=-1;spacingBottom=-1;spacingLeft=-1;spacingRight=-1;verticalAlign=middle;html=1;labelBackgroundColor=#ffffff;rounded=0;fontFamily=GOST type B;" parent="1" edge="1">
          <mxGeometry x="75" y="10" as="geometry">
            <mxPoint as="offset" />
            <Array as="points" />
            <mxPoint x="75" y="1078" as="sourcePoint" />
            <mxPoint x="335" y="1078" as="targetPoint" />
          </mxGeometry>
        </mxCell>
        <mxCell id="eSxXKxZ22m-BICX9o1b3-101" style="vsdxID=25;edgeStyle=none;startArrow=none;endArrow=none;startSize=5;endSize=5;strokeColor=#000000;spacingTop=-1;spacingBottom=-1;spacingLeft=-1;spacingRight=-1;verticalAlign=middle;html=1;labelBackgroundColor=#ffffff;rounded=0;fontFamily=GOST type B;" parent="1" edge="1">
          <mxGeometry x="75" y="10" as="geometry">
            <mxPoint as="offset" />
            <Array as="points" />
            <mxPoint x="75" y="1058" as="sourcePoint" />
            <mxPoint x="335" y="1058" as="targetPoint" />
          </mxGeometry>
        </mxCell>
        <mxCell id="eSxXKxZ22m-BICX9o1b3-102" style="vsdxID=24;edgeStyle=none;startArrow=none;endArrow=none;startSize=5;endSize=5;strokeWidth=4;strokeColor=#000000;spacingTop=-1;spacingBottom=-1;spacingLeft=-1;spacingRight=-1;verticalAlign=middle;html=1;labelBackgroundColor=#ffffff;rounded=0;fontFamily=GOST type B;" parent="1" edge="1">
          <mxGeometry x="75" y="10" as="geometry">
            <mxPoint as="offset" />
            <Array as="points" />
            <mxPoint x="75" y="1038" as="sourcePoint" />
            <mxPoint x="335" y="1038" as="targetPoint" />
          </mxGeometry>
        </mxCell>
        <mxCell id="eSxXKxZ22m-BICX9o1b3-103" style="vsdxID=23;edgeStyle=none;startArrow=none;endArrow=none;startSize=5;endSize=5;strokeWidth=4;strokeColor=#000000;spacingTop=-1;spacingBottom=-1;spacingLeft=-1;spacingRight=-1;verticalAlign=middle;html=1;labelBackgroundColor=#ffffff;rounded=0;fontFamily=GOST type B;" parent="1" edge="1">
          <mxGeometry x="75" y="10" as="geometry">
            <mxPoint as="offset" />
            <Array as="points" />
            <mxPoint x="75" y="1018" as="sourcePoint" />
            <mxPoint x="335" y="1018" as="targetPoint" />
          </mxGeometry>
        </mxCell>
        <mxCell id="eSxXKxZ22m-BICX9o1b3-104" style="vsdxID=22;edgeStyle=none;startArrow=none;endArrow=none;startSize=5;endSize=5;strokeColor=#000000;spacingTop=-1;spacingBottom=-1;spacingLeft=-1;spacingRight=-1;verticalAlign=middle;html=1;labelBackgroundColor=#ffffff;rounded=0;fontFamily=GOST type B;" parent="1" edge="1">
          <mxGeometry x="75" y="10" as="geometry">
            <mxPoint as="offset" />
            <Array as="points" />
            <mxPoint x="75" y="998" as="sourcePoint" />
            <mxPoint x="335" y="998" as="targetPoint" />
          </mxGeometry>
        </mxCell>
        <mxCell id="eSxXKxZ22m-BICX9o1b3-105" style="vsdxID=21;edgeStyle=none;startArrow=none;endArrow=none;startSize=5;endSize=5;strokeColor=#000000;spacingTop=-1;spacingBottom=-1;spacingLeft=-1;spacingRight=-1;verticalAlign=middle;html=1;labelBackgroundColor=#ffffff;rounded=0;fontFamily=GOST type B;" parent="1" edge="1">
          <mxGeometry x="75" y="10" as="geometry">
            <mxPoint as="offset" />
            <Array as="points" />
            <mxPoint x="75" y="978" as="sourcePoint" />
            <mxPoint x="335" y="978" as="targetPoint" />
          </mxGeometry>
        </mxCell>
        <mxCell id="eSxXKxZ22m-BICX9o1b3-106" style="vsdxID=20;edgeStyle=none;startArrow=none;endArrow=none;startSize=5;endSize=5;strokeColor=#000000;spacingTop=-1;spacingBottom=-1;spacingLeft=-1;spacingRight=-1;verticalAlign=middle;html=1;labelBackgroundColor=#ffffff;rounded=0;fontSize=16;fontFamily=GOST type B;" parent="1" edge="1">
          <mxGeometry x="75" y="10" as="geometry">
            <mxPoint as="offset" />
            <Array as="points" />
            <mxPoint x="75" y="958" as="sourcePoint" />
            <mxPoint x="335" y="958" as="targetPoint" />
          </mxGeometry>
        </mxCell>
        <mxCell id="eSxXKxZ22m-BICX9o1b3-107" style="vsdxID=19;edgeStyle=none;startArrow=none;endArrow=none;startSize=5;endSize=5;strokeWidth=4;strokeColor=#000000;spacingTop=-1;spacingBottom=-1;spacingLeft=-1;spacingRight=-1;verticalAlign=middle;html=1;labelBackgroundColor=#ffffff;rounded=0;fontFamily=GOST type B;" parent="1" edge="1">
          <mxGeometry x="75" y="10" as="geometry">
            <Array as="points" />
            <mxPoint x="143" y="938" as="sourcePoint" />
            <mxPoint x="143" y="1158" as="targetPoint" />
          </mxGeometry>
        </mxCell>
        <mxCell id="eSxXKxZ22m-BICX9o1b3-108" style="vsdxID=18;edgeStyle=none;startArrow=none;endArrow=none;startSize=5;endSize=5;strokeWidth=4;strokeColor=#000000;spacingTop=-1;spacingBottom=-1;spacingLeft=-1;spacingRight=-1;verticalAlign=middle;html=1;labelBackgroundColor=#ffffff;rounded=0;fontFamily=GOST type B;" parent="1" edge="1">
          <mxGeometry x="75" y="10" as="geometry">
            <Array as="points" />
            <mxPoint x="235" y="938" as="sourcePoint" />
            <mxPoint x="235" y="1158" as="targetPoint" />
          </mxGeometry>
        </mxCell>
        <mxCell id="eSxXKxZ22m-BICX9o1b3-109" style="vsdxID=17;edgeStyle=none;startArrow=none;endArrow=none;startSize=5;endSize=5;strokeWidth=4;strokeColor=#000000;spacingTop=-1;spacingBottom=-1;spacingLeft=-1;spacingRight=-1;verticalAlign=middle;html=1;labelBackgroundColor=#ffffff;rounded=0;fontFamily=GOST type B;" parent="1" edge="1">
          <mxGeometry x="75" y="10" as="geometry">
            <Array as="points" />
            <mxPoint x="295" y="938" as="sourcePoint" />
            <mxPoint x="295" y="1158" as="targetPoint" />
          </mxGeometry>
        </mxCell>
        <mxCell id="eSxXKxZ22m-BICX9o1b3-110" style="vsdxID=16;edgeStyle=none;startArrow=none;endArrow=none;startSize=5;endSize=5;strokeWidth=4;strokeColor=#000000;spacingTop=-1;spacingBottom=-1;spacingLeft=-1;spacingRight=-1;verticalAlign=middle;html=1;labelBackgroundColor=#ffffff;rounded=0;fontFamily=GOST type B;" parent="1" edge="1">
          <mxGeometry x="75" y="10" as="geometry">
            <Array as="points" />
            <mxPoint x="745" y="998" as="sourcePoint" />
            <mxPoint x="745" y="1078" as="targetPoint" />
          </mxGeometry>
        </mxCell>
        <mxCell id="eSxXKxZ22m-BICX9o1b3-111" style="vsdxID=15;edgeStyle=none;startArrow=none;endArrow=none;startSize=5;endSize=5;strokeWidth=4;strokeColor=#000000;spacingTop=-1;spacingBottom=-1;spacingLeft=-1;spacingRight=-1;verticalAlign=middle;html=1;labelBackgroundColor=#ffffff;rounded=0;fontFamily=GOST type B;" parent="1" edge="1">
          <mxGeometry x="75" y="10" as="geometry">
            <Array as="points" />
            <mxPoint x="695" y="1078" as="sourcePoint" />
            <mxPoint x="695" y="1098" as="targetPoint" />
          </mxGeometry>
        </mxCell>
        <mxCell id="eSxXKxZ22m-BICX9o1b3-112" style="vsdxID=14;edgeStyle=none;startArrow=none;endArrow=none;startSize=5;endSize=5;strokeColor=#000000;spacingTop=-1;spacingBottom=-1;spacingLeft=-1;spacingRight=-1;verticalAlign=middle;html=1;labelBackgroundColor=#ffffff;rounded=0;fontFamily=GOST type B;" parent="1" edge="1">
          <mxGeometry x="75" y="10" as="geometry">
            <Array as="points" />
            <mxPoint x="655" y="1018" as="sourcePoint" />
            <mxPoint x="655" y="1078" as="targetPoint" />
          </mxGeometry>
        </mxCell>
        <mxCell id="eSxXKxZ22m-BICX9o1b3-113" style="vsdxID=13;edgeStyle=none;startArrow=none;endArrow=none;startSize=5;endSize=5;strokeColor=#000000;spacingTop=-1;spacingBottom=-1;spacingLeft=-1;spacingRight=-1;verticalAlign=middle;html=1;labelBackgroundColor=#ffffff;rounded=0;fontFamily=GOST type B;" parent="1" edge="1">
          <mxGeometry x="75" y="10" as="geometry">
            <Array as="points" />
            <mxPoint x="635" y="1018" as="sourcePoint" />
            <mxPoint x="635" y="1078" as="targetPoint" />
          </mxGeometry>
        </mxCell>
        <mxCell id="eSxXKxZ22m-BICX9o1b3-114" style="vsdxID=12;edgeStyle=none;startArrow=none;endArrow=none;startSize=5;endSize=5;strokeWidth=4;strokeColor=#000000;spacingTop=-1;spacingBottom=-1;spacingLeft=-1;spacingRight=-1;verticalAlign=middle;html=1;labelBackgroundColor=#ffffff;rounded=0;fontFamily=GOST type B;" parent="1" edge="1">
          <mxGeometry x="75" y="10" as="geometry">
            <Array as="points" />
            <mxPoint x="675" y="998" as="sourcePoint" />
            <mxPoint x="675" y="1078" as="targetPoint" />
          </mxGeometry>
        </mxCell>
        <mxCell id="eSxXKxZ22m-BICX9o1b3-115" style="vsdxID=11;edgeStyle=none;startArrow=none;endArrow=none;startSize=5;endSize=5;strokeWidth=4;strokeColor=#000000;spacingTop=-1;spacingBottom=-1;spacingLeft=-1;spacingRight=-1;verticalAlign=middle;html=1;labelBackgroundColor=#ffffff;rounded=0;fontFamily=GOST type B;" parent="1" edge="1">
          <mxGeometry x="75" y="10" as="geometry">
            <mxPoint as="offset" />
            <Array as="points" />
            <mxPoint x="615" y="1078" as="sourcePoint" />
            <mxPoint x="815" y="1078" as="targetPoint" />
          </mxGeometry>
        </mxCell>
        <mxCell id="eSxXKxZ22m-BICX9o1b3-116" style="vsdxID=10;edgeStyle=none;startArrow=none;endArrow=none;startSize=5;endSize=5;strokeWidth=4;strokeColor=#000000;spacingTop=-1;spacingBottom=-1;spacingLeft=-1;spacingRight=-1;verticalAlign=middle;html=1;labelBackgroundColor=#ffffff;rounded=0;fontFamily=GOST type B;" parent="1" edge="1">
          <mxGeometry x="75" y="10" as="geometry">
            <mxPoint as="offset" />
            <Array as="points" />
            <mxPoint x="615" y="1018" as="sourcePoint" />
            <mxPoint x="815" y="1018" as="targetPoint" />
          </mxGeometry>
        </mxCell>
        <mxCell id="eSxXKxZ22m-BICX9o1b3-117" style="vsdxID=9;edgeStyle=none;startArrow=none;endArrow=none;startSize=5;endSize=5;strokeWidth=4;strokeColor=#000000;spacingTop=-1;spacingBottom=-1;spacingLeft=-1;spacingRight=-1;verticalAlign=middle;html=1;labelBackgroundColor=#ffffff;rounded=0;fontFamily=GOST type B;" parent="1" edge="1">
          <mxGeometry x="75" y="10" as="geometry">
            <Array as="points" />
            <mxPoint x="615" y="998" as="sourcePoint" />
            <mxPoint x="615" y="1158" as="targetPoint" />
          </mxGeometry>
        </mxCell>
        <mxCell id="eSxXKxZ22m-BICX9o1b3-118" style="vsdxID=8;edgeStyle=none;startArrow=none;endArrow=none;startSize=5;endSize=5;strokeWidth=4;strokeColor=#000000;spacingTop=-1;spacingBottom=-1;spacingLeft=-1;spacingRight=-1;verticalAlign=middle;html=1;labelBackgroundColor=#ffffff;rounded=0;fontFamily=GOST type B;" parent="1" edge="1">
          <mxGeometry x="75" y="10" as="geometry">
            <Array as="points" />
            <mxPoint x="815" y="1098" as="sourcePoint" />
            <mxPoint x="335" y="1098" as="targetPoint" />
          </mxGeometry>
        </mxCell>
        <mxCell id="eSxXKxZ22m-BICX9o1b3-119" style="vsdxID=7;edgeStyle=none;startArrow=none;endArrow=none;startSize=5;endSize=5;strokeWidth=4;strokeColor=#000000;spacingTop=-1;spacingBottom=-1;spacingLeft=-1;spacingRight=-1;verticalAlign=middle;html=1;labelBackgroundColor=#ffffff;rounded=0;fontFamily=GOST type B;" parent="1" edge="1">
          <mxGeometry x="75" y="10" as="geometry">
            <Array as="points" />
            <mxPoint x="335" y="938" as="sourcePoint" />
            <mxPoint x="335" y="1158" as="targetPoint" />
          </mxGeometry>
        </mxCell>
        <mxCell id="eSxXKxZ22m-BICX9o1b3-120" style="vsdxID=6;edgeStyle=none;startArrow=none;endArrow=none;startSize=5;endSize=5;strokeWidth=4;strokeColor=#000000;spacingTop=-1;spacingBottom=-1;spacingLeft=-1;spacingRight=-1;verticalAlign=middle;html=1;labelBackgroundColor=#ffffff;rounded=0;fontFamily=GOST type B;" parent="1" edge="1">
          <mxGeometry x="75" y="10" as="geometry">
            <Array as="points" />
            <mxPoint x="815" y="998" as="sourcePoint" />
            <mxPoint x="335" y="998" as="targetPoint" />
          </mxGeometry>
        </mxCell>
        <mxCell id="eSxXKxZ22m-BICX9o1b3-121" value="&lt;font style=&quot;font-size: 11px; color: rgb(0, 0, 0); direction: ltr; letter-spacing: 0px; line-height: 120%; opacity: 1;&quot;&gt;&lt;i&gt;Изм&lt;br&gt;&lt;/i&gt;&lt;/font&gt;" style="verticalAlign=middle;align=center;vsdxID=31;fillColor=none;gradientColor=none;shape=stencil(nZBLDoAgDERP0z3SIyjew0SURgSD+Lu9kMZoXLhwN9O+tukAlrNpJg1SzDH4QW/URgNYgZTkjA4UkwJUgGXng+6DX1zLfmoymdXo17xh5zmRJ6Q42BWCfc2oJfdAr+Yv+AP9Cb7OJ3H/2JG1HNGz/84klThPVCc=);strokeColor=none;strokeWidth=4;spacingTop=-1;spacingBottom=-1;spacingLeft=-1;spacingRight=-1;labelBackgroundColor=none;rounded=0;html=1;whiteSpace=wrap;fontFamily=GOST type B;" parent="1" vertex="1">
          <mxGeometry x="75" y="1020" width="27" height="16" as="geometry" />
        </mxCell>
        <mxCell id="eSxXKxZ22m-BICX9o1b3-122" value="&lt;font style=&quot;font-size: 11px; color: rgb(0, 0, 0); direction: ltr; letter-spacing: 0px; line-height: 120%; opacity: 1;&quot;&gt;&lt;i&gt;Лист&lt;br&gt;&lt;/i&gt;&lt;/font&gt;" style="verticalAlign=middle;align=center;vsdxID=32;fillColor=none;gradientColor=none;shape=stencil(nZBLDoAgDERP0z3SIyjew0SURgSD+Lu9kMZoXLhwN9O+tukAlrNpJg1SzDH4QW/URgNYgZTkjA4UkwJUgGXng+6DX1zLfmoymdXo17xh5zmRJ6Q42BWCfc2oJfdAr+Yv+AP9Cb7OJ3H/2JG1HNGz/84klThPVCc=);strokeColor=none;strokeWidth=4;spacingTop=-1;spacingBottom=-1;spacingLeft=-1;spacingRight=-1;labelBackgroundColor=none;rounded=0;html=1;whiteSpace=wrap;fontFamily=GOST type B;" parent="1" vertex="1">
          <mxGeometry x="105" y="1020" width="36" height="16" as="geometry" />
        </mxCell>
        <mxCell id="eSxXKxZ22m-BICX9o1b3-123" value="&lt;font style=&quot;font-size: 11px; color: rgb(0, 0, 0); direction: ltr; letter-spacing: 0px; line-height: 120%; opacity: 1;&quot;&gt;&lt;i&gt;№ документа&lt;br&gt;&lt;/i&gt;&lt;/font&gt;" style="verticalAlign=middle;align=center;vsdxID=33;fillColor=none;gradientColor=none;shape=stencil(nZBLDoAgDERP0z3SIyjew0SURgSD+Lu9kMZoXLhwN9O+tukAlrNpJg1SzDH4QW/URgNYgZTkjA4UkwJUgGXng+6DX1zLfmoymdXo17xh5zmRJ6Q42BWCfc2oJfdAr+Yv+AP9Cb7OJ3H/2JG1HNGz/84klThPVCc=);strokeColor=none;strokeWidth=4;spacingTop=-1;spacingBottom=-1;spacingLeft=-1;spacingRight=-1;labelBackgroundColor=none;rounded=0;html=1;whiteSpace=wrap;fontFamily=GOST type B;" parent="1" vertex="1">
          <mxGeometry x="145" y="1020" width="88" height="16" as="geometry" />
        </mxCell>
        <mxCell id="eSxXKxZ22m-BICX9o1b3-124" value="&lt;font style=&quot;font-size: 11px; color: rgb(0, 0, 0); direction: ltr; letter-spacing: 0px; line-height: 120%; opacity: 1;&quot;&gt;&lt;i&gt;Подпись&lt;br&gt;&lt;/i&gt;&lt;/font&gt;" style="verticalAlign=middle;align=center;vsdxID=34;fillColor=none;gradientColor=none;shape=stencil(nZBLDoAgDERP0z3SIyjew0SURgSD+Lu9kMZoXLhwN9O+tukAlrNpJg1SzDH4QW/URgNYgZTkjA4UkwJUgGXng+6DX1zLfmoymdXo17xh5zmRJ6Q42BWCfc2oJfdAr+Yv+AP9Cb7OJ3H/2JG1HNGz/84klThPVCc=);strokeColor=none;strokeWidth=4;spacingTop=-1;spacingBottom=-1;spacingLeft=-1;spacingRight=-1;labelBackgroundColor=none;rounded=0;html=1;whiteSpace=wrap;fontFamily=GOST type B;" parent="1" vertex="1">
          <mxGeometry x="237" y="1020" width="56" height="16" as="geometry" />
        </mxCell>
        <mxCell id="eSxXKxZ22m-BICX9o1b3-125" value="&lt;font style=&quot;font-size: 11px; color: rgb(0, 0, 0); direction: ltr; letter-spacing: 0px; line-height: 120%; opacity: 1;&quot;&gt;&lt;i&gt;Дата&lt;br&gt;&lt;/i&gt;&lt;/font&gt;" style="verticalAlign=middle;align=center;vsdxID=35;fillColor=none;gradientColor=none;shape=stencil(nZBLDoAgDERP0z3SIyjew0SURgSD+Lu9kMZoXLhwN9O+tukAlrNpJg1SzDH4QW/URgNYgZTkjA4UkwJUgGXng+6DX1zLfmoymdXo17xh5zmRJ6Q42BWCfc2oJfdAr+Yv+AP9Cb7OJ3H/2JG1HNGz/84klThPVCc=);strokeColor=none;strokeWidth=4;spacingTop=-1;spacingBottom=-1;spacingLeft=-1;spacingRight=-1;labelBackgroundColor=none;rounded=0;html=1;whiteSpace=wrap;fontFamily=GOST type B;" parent="1" vertex="1">
          <mxGeometry x="297" y="1020" width="36" height="16" as="geometry" />
        </mxCell>
        <mxCell id="eSxXKxZ22m-BICX9o1b3-126" value="&lt;font style=&quot;font-size: 11px; color: rgb(0, 0, 0); direction: ltr; letter-spacing: 0px; line-height: 120%; opacity: 1;&quot;&gt;&lt;i&gt;Лит.&lt;br&gt;&lt;/i&gt;&lt;/font&gt;" style="verticalAlign=middle;align=center;vsdxID=36;fillColor=none;gradientColor=none;shape=stencil(nZBLDoAgDERP0z3SIyjew0SURgSD+Lu9kMZoXLhwN9O+tukAlrNpJg1SzDH4QW/URgNYgZTkjA4UkwJUgGXng+6DX1zLfmoymdXo17xh5zmRJ6Q42BWCfc2oJfdAr+Yv+AP9Cb7OJ3H/2JG1HNGz/84klThPVCc=);strokeColor=none;strokeWidth=4;spacingTop=-1;spacingBottom=-1;spacingLeft=-1;spacingRight=-1;labelBackgroundColor=none;rounded=0;html=1;whiteSpace=wrap;fontFamily=GOST type B;" parent="1" vertex="1">
          <mxGeometry x="617" y="1000" width="56" height="16" as="geometry" />
        </mxCell>
        <mxCell id="eSxXKxZ22m-BICX9o1b3-127" value="&lt;font style=&quot;font-size: 11px; color: rgb(0, 0, 0); direction: ltr; letter-spacing: 0px; line-height: 120%; opacity: 1;&quot;&gt;&lt;i&gt;Масса&lt;br&gt;&lt;/i&gt;&lt;/font&gt;" style="verticalAlign=middle;align=center;vsdxID=37;fillColor=none;gradientColor=none;shape=stencil(nZBLDoAgDERP0z3SIyjew0SURgSD+Lu9kMZoXLhwN9O+tukAlrNpJg1SzDH4QW/URgNYgZTkjA4UkwJUgGXng+6DX1zLfmoymdXo17xh5zmRJ6Q42BWCfc2oJfdAr+Yv+AP9Cb7OJ3H/2JG1HNGz/84klThPVCc=);strokeColor=none;strokeWidth=4;spacingTop=-1;spacingBottom=-1;spacingLeft=-1;spacingRight=-1;labelBackgroundColor=none;rounded=0;html=1;whiteSpace=wrap;fontFamily=GOST type B;" parent="1" vertex="1">
          <mxGeometry x="677" y="1000" width="66" height="16" as="geometry" />
        </mxCell>
        <mxCell id="eSxXKxZ22m-BICX9o1b3-128" value="&lt;font style=&quot;font-size: 11px; color: rgb(0, 0, 0); direction: ltr; letter-spacing: 0px; line-height: 120%; opacity: 1;&quot;&gt;&lt;i&gt;Масштаб&lt;br&gt;&lt;/i&gt;&lt;/font&gt;" style="verticalAlign=middle;align=center;vsdxID=38;fillColor=none;gradientColor=none;shape=stencil(nZBLDoAgDERP0z3SIyjew0SURgSD+Lu9kMZoXLhwN9O+tukAlrNpJg1SzDH4QW/URgNYgZTkjA4UkwJUgGXng+6DX1zLfmoymdXo17xh5zmRJ6Q42BWCfc2oJfdAr+Yv+AP9Cb7OJ3H/2JG1HNGz/84klThPVCc=);strokeColor=none;strokeWidth=4;spacingTop=-1;spacingBottom=-1;spacingLeft=-1;spacingRight=-1;labelBackgroundColor=none;rounded=0;html=1;whiteSpace=wrap;fontFamily=GOST type B;" parent="1" vertex="1">
          <mxGeometry x="747" y="1000" width="66" height="16" as="geometry" />
        </mxCell>
        <mxCell id="eSxXKxZ22m-BICX9o1b3-129" value="&lt;font style=&quot;font-size: 11px; color: rgb(0, 0, 0); direction: ltr; letter-spacing: 0px; line-height: 120%; opacity: 1;&quot;&gt;&lt;i&gt;Лист&lt;br&gt;&lt;/i&gt;&lt;/font&gt;" style="verticalAlign=middle;align=center;vsdxID=39;fillColor=none;gradientColor=none;shape=stencil(nZBLDoAgDERP0z3SIyjew0SURgSD+Lu9kMZoXLhwN9O+tukAlrNpJg1SzDH4QW/URgNYgZTkjA4UkwJUgGXng+6DX1zLfmoymdXo17xh5zmRJ6Q42BWCfc2oJfdAr+Yv+AP9Cb7OJ3H/2JG1HNGz/84klThPVCc=);strokeColor=none;strokeWidth=4;spacingTop=-1;spacingBottom=-1;spacingLeft=-1;spacingRight=-1;labelBackgroundColor=none;rounded=0;html=1;whiteSpace=wrap;fontFamily=GOST type B;" parent="1" vertex="1">
          <mxGeometry x="617" y="1080" width="53" height="16" as="geometry" />
        </mxCell>
        <mxCell id="eSxXKxZ22m-BICX9o1b3-130" value="&lt;font style=&quot;font-size: 11px; color: rgb(0, 0, 0); direction: ltr; letter-spacing: 0px; line-height: 120%; opacity: 1;&quot;&gt;&lt;i&gt;Листов&lt;br&gt;&lt;/i&gt;&lt;/font&gt;" style="verticalAlign=middle;align=center;vsdxID=40;fillColor=none;gradientColor=none;shape=stencil(nZBLDoAgDERP0z3SIyjew0SURgSD+Lu9kMZoXLhwN9O+tukAlrNpJg1SzDH4QW/URgNYgZTkjA4UkwJUgGXng+6DX1zLfmoymdXo17xh5zmRJ6Q42BWCfc2oJfdAr+Yv+AP9Cb7OJ3H/2JG1HNGz/84klThPVCc=);strokeColor=none;strokeWidth=4;spacingTop=-1;spacingBottom=-1;spacingLeft=-1;spacingRight=-1;labelBackgroundColor=none;rounded=0;html=1;whiteSpace=wrap;fontFamily=GOST type B;" parent="1" vertex="1">
          <mxGeometry x="697" y="1080" width="116" height="16" as="geometry" />
        </mxCell>
        <mxCell id="eSxXKxZ22m-BICX9o1b3-138" value="&lt;font style=&quot;font-size: 19px; color: rgb(0, 0, 0); direction: ltr; letter-spacing: 0px; line-height: 120%; opacity: 1;&quot;&gt;&lt;i&gt;У&lt;br&gt;&lt;/i&gt;&lt;/font&gt;" style="verticalAlign=middle;align=center;vsdxID=48;fillColor=none;gradientColor=none;shape=stencil(nZBLDoAgDERP0z3SIyjew0SURgSD+Lu9kMZoXLhwN9O+tukAlrNpJg1SzDH4QW/URgNYgZTkjA4UkwJUgGXng+6DX1zLfmoymdXo17xh5zmRJ6Q42BWCfc2oJfdAr+Yv+AP9Cb7OJ3H/2JG1HNGz/84klThPVCc=);strokeColor=none;spacingTop=-1;spacingBottom=-1;spacingLeft=-1;spacingRight=-1;labelBackgroundColor=none;rounded=0;html=1;whiteSpace=wrap;fontFamily=GOST type B;" parent="1" vertex="1">
          <mxGeometry x="635" y="1018" width="20" height="60" as="geometry" />
        </mxCell>
        <mxCell id="eSxXKxZ22m-BICX9o1b3-139" value="&lt;font style=&quot;font-size: 11px; color: rgb(0, 0, 0); direction: ltr; letter-spacing: 0px; line-height: 120%; opacity: 1;&quot;&gt;&lt;i&gt;2&lt;br&gt;&lt;/i&gt;&lt;/font&gt;" style="verticalAlign=middle;align=center;vsdxID=49;fillColor=none;gradientColor=none;shape=stencil(nZBLDoAgDERP0z3SIyjew0SURgSD+Lu9kMZoXLhwN9O+tukAlrNpJg1SzDH4QW/URgNYgZTkjA4UkwJUgGXng+6DX1zLfmoymdXo17xh5zmRJ6Q42BWCfc2oJfdAr+Yv+AP9Cb7OJ3H/2JG1HNGz/84klThPVCc=);strokeColor=none;spacingTop=-1;spacingBottom=-1;spacingLeft=-1;spacingRight=-1;labelBackgroundColor=none;rounded=0;html=1;whiteSpace=wrap;fontFamily=GOST type B;" parent="1" vertex="1">
          <mxGeometry x="784" y="1079" width="20" height="16" as="geometry" />
        </mxCell>
        <mxCell id="eSxXKxZ22m-BICX9o1b3-140" value="&lt;font style=&quot;font-size: 16px; color: rgb(0, 0, 0); direction: ltr; letter-spacing: 0px; line-height: 120%; opacity: 1;&quot;&gt;&lt;span&gt;Обозначение&lt;br&gt;&lt;/span&gt;&lt;/font&gt;" style="verticalAlign=middle;align=center;vsdxID=50;fillColor=none;gradientColor=none;shape=stencil(nZBLDoAgDERP0z3SIyjew0SURgSD+Lu9kMZoXLhwN9O+tukAlrNpJg1SzDH4QW/URgNYgZTkjA4UkwJUgGXng+6DX1zLfmoymdXo17xh5zmRJ6Q42BWCfc2oJfdAr+Yv+AP9Cb7OJ3H/2JG1HNGz/84klThPVCc=);strokeWidth=3;labelBackgroundColor=none;rounded=0;html=1;whiteSpace=wrap;fontStyle=2;fontFamily=GOST type B;spacingLeft=0;" parent="1" vertex="1">
          <mxGeometry x="75" y="10" width="120" height="60" as="geometry" />
        </mxCell>
        <mxCell id="eSxXKxZ22m-BICX9o1b3-141" value="&lt;font style=&quot;font-size: 16px; color: rgb(0, 0, 0); direction: ltr; letter-spacing: 0px; line-height: 120%; opacity: 1;&quot;&gt;&lt;span&gt;Наименование&lt;br&gt;&lt;/span&gt;&lt;/font&gt;" style="verticalAlign=middle;align=center;vsdxID=51;fillColor=none;gradientColor=none;shape=stencil(nZBLDoAgDERP0z3SIyjew0SURgSD+Lu9kMZoXLhwN9O+tukAlrNpJg1SzDH4QW/URgNYgZTkjA4UkwJUgGXng+6DX1zLfmoymdXo17xh5zmRJ6Q42BWCfc2oJfdAr+Yv+AP9Cb7OJ3H/2JG1HNGz/84klThPVCc=);strokeWidth=3;labelBackgroundColor=none;rounded=0;html=1;whiteSpace=wrap;fontStyle=2;fontFamily=GOST type B;" parent="1" vertex="1">
          <mxGeometry x="195" y="10" width="460" height="60" as="geometry" />
        </mxCell>
        <mxCell id="eSxXKxZ22m-BICX9o1b3-142" value="&lt;font style=&quot;font-size: 16px; color: rgb(0, 0, 0); direction: ltr; letter-spacing: 0px; line-height: 120%; opacity: 1;&quot;&gt;&lt;span&gt;Примечание&lt;br&gt;&lt;/span&gt;&lt;/font&gt;" style="verticalAlign=middle;align=center;vsdxID=52;fillColor=none;gradientColor=none;shape=stencil(nZBLDoAgDERP0z3SIyjew0SURgSD+Lu9kMZoXLhwN9O+tukAlrNpJg1SzDH4QW/URgNYgZTkjA4UkwJUgGXng+6DX1zLfmoymdXo17xh5zmRJ6Q42BWCfc2oJfdAr+Yv+AP9Cb7OJ3H/2JG1HNGz/84klThPVCc=);strokeWidth=3;labelBackgroundColor=none;rounded=0;html=1;whiteSpace=wrap;fontStyle=2;fontFamily=GOST type B;" parent="1" vertex="1">
          <mxGeometry x="694" y="10" width="120" height="60" as="geometry" />
        </mxCell>
        <mxCell id="eSxXKxZ22m-BICX9o1b3-143" style="vsdxID=53;fillColor=none;gradientColor=none;shape=stencil(nZBLDoAgDERP0z3SIyjew0SURgSD+Lu9kMZoXLhwN9O+tukAlrNpJg1SzDH4QW/URgNYgZTkjA4UkwJUgGXng+6DX1zLfmoymdXo17xh5zmRJ6Q42BWCfc2oJfdAr+Yv+AP9Cb7OJ3H/2JG1HNGz/84klThPVCc=);labelBackgroundColor=none;rounded=0;html=1;whiteSpace=wrap;fontStyle=2;fontFamily=GOST type B;align=center;fontSize=16;spacingLeft=0;" parent="1" vertex="1">
          <mxGeometry x="75" y="70" width="120" height="32" as="geometry" />
        </mxCell>
        <mxCell id="eSxXKxZ22m-BICX9o1b3-144" style="vsdxID=54;fillColor=none;gradientColor=none;shape=stencil(nZBLDoAgDERP0z3SIyjew0SURgSD+Lu9kMZoXLhwN9O+tukAlrNpJg1SzDH4QW/URgNYgZTkjA4UkwJUgGXng+6DX1zLfmoymdXo17xh5zmRJ6Q42BWCfc2oJfdAr+Yv+AP9Cb7OJ3H/2JG1HNGz/84klThPVCc=);labelBackgroundColor=none;rounded=0;html=1;whiteSpace=wrap;fontStyle=2;fontFamily=GOST type B;align=left;fontSize=16;spacingLeft=4;" parent="1" vertex="1">
          <mxGeometry x="195" y="70" width="460" height="32" as="geometry" />
        </mxCell>
        <mxCell id="eSxXKxZ22m-BICX9o1b3-145" style="vsdxID=55;fillColor=none;gradientColor=none;shape=stencil(nZBLDoAgDERP0z3SIyjew0SURgSD+Lu9kMZoXLhwN9O+tukAlrNpJg1SzDH4QW/URgNYgZTkjA4UkwJUgGXng+6DX1zLfmoymdXo17xh5zmRJ6Q42BWCfc2oJfdAr+Yv+AP9Cb7OJ3H/2JG1HNGz/84klThPVCc=);labelBackgroundColor=none;rounded=0;html=1;whiteSpace=wrap;fontStyle=2;fontFamily=GOST type B;align=center;fontSize=16;" parent="1" vertex="1">
          <mxGeometry x="695" y="70" width="120" height="32" as="geometry" />
        </mxCell>
        <mxCell id="eSxXKxZ22m-BICX9o1b3-146" style="vsdxID=56;fillColor=none;gradientColor=none;shape=stencil(nZBLDoAgDERP0z3SIyjew0SURgSD+Lu9kMZoXLhwN9O+tukAlrNpJg1SzDH4QW/URgNYgZTkjA4UkwJUgGXng+6DX1zLfmoymdXo17xh5zmRJ6Q42BWCfc2oJfdAr+Yv+AP9Cb7OJ3H/2JG1HNGz/84klThPVCc=);labelBackgroundColor=none;rounded=0;html=1;whiteSpace=wrap;fontStyle=2;fontFamily=GOST type B;align=center;fontSize=16;spacingLeft=0;" parent="1" vertex="1">
          <mxGeometry x="74.5" y="70" width="120" height="32" as="geometry" />
        </mxCell>
        <mxCell id="eSxXKxZ22m-BICX9o1b3-147" value="&lt;font style=&quot;color: rgb(0 , 0 , 0) ; direction: ltr ; letter-spacing: 0px ; line-height: 120% ; opacity: 1&quot;&gt;&lt;u&gt;&lt;font style=&quot;font-size: 20px&quot;&gt;Микросхемы&lt;/font&gt;&lt;br&gt;&lt;/u&gt;&lt;/font&gt;" style="verticalAlign=middle;align=center;vsdxID=57;fillColor=none;gradientColor=none;shape=stencil(nZBLDoAgDERP0z3SIyjew0SURgSD+Lu9kMZoXLhwN9O+tukAlrNpJg1SzDH4QW/URgNYgZTkjA4UkwJUgGXng+6DX1zLfmoymdXo17xh5zmRJ6Q42BWCfc2oJfdAr+Yv+AP9Cb7OJ3H/2JG1HNGz/84klThPVCc=);labelBackgroundColor=none;rounded=0;html=1;whiteSpace=wrap;spacingLeft=4;fontStyle=2;fontFamily=GOST type B;" parent="1" vertex="1">
          <mxGeometry x="194.5" y="70" width="460" height="32" as="geometry" />
        </mxCell>
        <mxCell id="eSxXKxZ22m-BICX9o1b3-148" style="vsdxID=58;fillColor=none;gradientColor=none;shape=stencil(nZBLDoAgDERP0z3SIyjew0SURgSD+Lu9kMZoXLhwN9O+tukAlrNpJg1SzDH4QW/URgNYgZTkjA4UkwJUgGXng+6DX1zLfmoymdXo17xh5zmRJ6Q42BWCfc2oJfdAr+Yv+AP9Cb7OJ3H/2JG1HNGz/84klThPVCc=);labelBackgroundColor=none;rounded=0;html=1;whiteSpace=wrap;fontStyle=2;fontFamily=GOST type B;align=center;fontSize=16;" parent="1" vertex="1">
          <mxGeometry x="694.5" y="70" width="120" height="32" as="geometry" />
        </mxCell>
        <mxCell id="eSxXKxZ22m-BICX9o1b3-149" value="&lt;div style=&quot;font-size: 16px&quot;&gt;DD0&lt;/div&gt;" style="verticalAlign=middle;align=center;vsdxID=59;fillColor=none;gradientColor=none;shape=stencil(nZBLDoAgDERP0z3SIyjew0SURgSD+Lu9kMZoXLhwN9O+tukAlrNpJg1SzDH4QW/URgNYgZTkjA4UkwJUgGXng+6DX1zLfmoymdXo17xh5zmRJ6Q42BWCfc2oJfdAr+Yv+AP9Cb7OJ3H/2JG1HNGz/84klThPVCc=);labelBackgroundColor=none;rounded=0;html=1;whiteSpace=wrap;spacingLeft=0;fontStyle=2;fontFamily=GOST type B;fontSize=16;" parent="1" vertex="1">
          <mxGeometry x="74.5" y="102" width="120" height="32" as="geometry" />
        </mxCell>
        <mxCell id="eSxXKxZ22m-BICX9o1b3-150" value="&lt;p class=&quot;MsoNormal&quot; style=&quot;margin: 0cm;&quot;&gt;STM32F103RCT6&amp;nbsp;&lt;br&gt;&lt;/p&gt;" style="verticalAlign=middle;align=left;vsdxID=60;fillColor=none;gradientColor=none;shape=stencil(nZBLDoAgDERP0z3SIyjew0SURgSD+Lu9kMZoXLhwN9O+tukAlrNpJg1SzDH4QW/URgNYgZTkjA4UkwJUgGXng+6DX1zLfmoymdXo17xh5zmRJ6Q42BWCfc2oJfdAr+Yv+AP9Cb7OJ3H/2JG1HNGz/84klThPVCc=);labelBackgroundColor=none;rounded=0;html=1;whiteSpace=wrap;spacingLeft=4;fontStyle=2;fontFamily=GOST type B;fontSize=16;" parent="1" vertex="1">
          <mxGeometry x="194.5" y="102" width="460" height="32" as="geometry" />
        </mxCell>
        <mxCell id="eSxXKxZ22m-BICX9o1b3-151" value="&lt;p style=&quot;margin: 0px ; text-indent: 0px ; direction: ltr ; font-size: 16px&quot;&gt;ST&lt;/p&gt;" style="verticalAlign=middle;align=center;vsdxID=61;fillColor=none;gradientColor=none;shape=stencil(nZBLDoAgDERP0z3SIyjew0SURgSD+Lu9kMZoXLhwN9O+tukAlrNpJg1SzDH4QW/URgNYgZTkjA4UkwJUgGXng+6DX1zLfmoymdXo17xh5zmRJ6Q42BWCfc2oJfdAr+Yv+AP9Cb7OJ3H/2JG1HNGz/84klThPVCc=);labelBackgroundColor=none;rounded=0;html=1;whiteSpace=wrap;fontStyle=2;fontFamily=GOST type B;fontSize=16;" parent="1" vertex="1">
          <mxGeometry x="694.5" y="102" width="120" height="32" as="geometry" />
        </mxCell>
        <mxCell id="eSxXKxZ22m-BICX9o1b3-152" style="vsdxID=62;fillColor=none;gradientColor=none;shape=stencil(nZBLDoAgDERP0z3SIyjew0SURgSD+Lu9kMZoXLhwN9O+tukAlrNpJg1SzDH4QW/URgNYgZTkjA4UkwJUgGXng+6DX1zLfmoymdXo17xh5zmRJ6Q42BWCfc2oJfdAr+Yv+AP9Cb7OJ3H/2JG1HNGz/84klThPVCc=);labelBackgroundColor=none;rounded=0;html=1;whiteSpace=wrap;fontStyle=2;fontFamily=GOST type B;align=center;fontSize=16;spacingLeft=0;" parent="1" vertex="1">
          <mxGeometry x="74.5" y="134" width="120" height="32" as="geometry" />
        </mxCell>
        <mxCell id="eSxXKxZ22m-BICX9o1b3-153" value="&lt;p class=&quot;MsoNormal&quot; style=&quot;margin: 0cm ; font-size: 16px&quot;&gt;&lt;br&gt;&lt;/p&gt;" style="vsdxID=63;fillColor=none;gradientColor=none;shape=stencil(nZBLDoAgDERP0z3SIyjew0SURgSD+Lu9kMZoXLhwN9O+tukAlrNpJg1SzDH4QW/URgNYgZTkjA4UkwJUgGXng+6DX1zLfmoymdXo17xh5zmRJ6Q42BWCfc2oJfdAr+Yv+AP9Cb7OJ3H/2JG1HNGz/84klThPVCc=);labelBackgroundColor=none;rounded=0;html=1;whiteSpace=wrap;fontFamily=GOST type B;align=left;spacingLeft=4;fontStyle=2;fontSize=16;" parent="1" vertex="1">
          <mxGeometry x="194.5" y="134" width="460" height="32" as="geometry" />
        </mxCell>
        <mxCell id="eSxXKxZ22m-BICX9o1b3-154" value="&lt;i style=&quot;font-size: 12px;&quot;&gt;&lt;font&gt;&lt;span style=&quot;font-size: 16px&quot;&gt;Microelectronics&lt;/span&gt;&lt;/font&gt;&lt;/i&gt;" style="vsdxID=64;fillColor=none;gradientColor=none;shape=stencil(nZBLDoAgDERP0z3SIyjew0SURgSD+Lu9kMZoXLhwN9O+tukAlrNpJg1SzDH4QW/URgNYgZTkjA4UkwJUgGXng+6DX1zLfmoymdXo17xh5zmRJ6Q42BWCfc2oJfdAr+Yv+AP9Cb7OJ3H/2JG1HNGz/84klThPVCc=);labelBackgroundColor=none;rounded=0;html=1;whiteSpace=wrap;fontStyle=2;fontFamily=GOST type B;align=center;fontSize=16;" parent="1" vertex="1">
          <mxGeometry x="694.5" y="134" width="120" height="32" as="geometry" />
        </mxCell>
        <mxCell id="eSxXKxZ22m-BICX9o1b3-155" value="&lt;font style=&quot;font-size: 16px ; color: rgb(0 , 0 , 0) ; direction: ltr ; letter-spacing: 0px ; line-height: 120% ; opacity: 1&quot;&gt;&lt;span style=&quot;font-size: 16px&quot;&gt;DD1,DD2&lt;br style=&quot;font-size: 16px&quot;&gt;&lt;/span&gt;&lt;/font&gt;" style="verticalAlign=middle;align=center;vsdxID=65;fillColor=none;gradientColor=none;shape=stencil(nZBLDoAgDERP0z3SIyjew0SURgSD+Lu9kMZoXLhwN9O+tukAlrNpJg1SzDH4QW/URgNYgZTkjA4UkwJUgGXng+6DX1zLfmoymdXo17xh5zmRJ6Q42BWCfc2oJfdAr+Yv+AP9Cb7OJ3H/2JG1HNGz/84klThPVCc=);labelBackgroundColor=none;rounded=0;html=1;whiteSpace=wrap;fontStyle=2;fontFamily=GOST type B;fontSize=16;spacingLeft=0;" parent="1" vertex="1">
          <mxGeometry x="74.5" y="166" width="120" height="32" as="geometry" />
        </mxCell>
        <mxCell id="eSxXKxZ22m-BICX9o1b3-156" value="&lt;font style=&quot;direction: ltr; line-height: 120%; opacity: 1;&quot;&gt;TXS0108EPWR / TSOP-20&lt;br style=&quot;font-size: 16px&quot;&gt;&lt;/font&gt;" style="verticalAlign=middle;align=left;vsdxID=66;fillColor=none;gradientColor=none;shape=stencil(nZBLDoAgDERP0z3SIyjew0SURgSD+Lu9kMZoXLhwN9O+tukAlrNpJg1SzDH4QW/URgNYgZTkjA4UkwJUgGXng+6DX1zLfmoymdXo17xh5zmRJ6Q42BWCfc2oJfdAr+Yv+AP9Cb7OJ3H/2JG1HNGz/84klThPVCc=);labelBackgroundColor=none;rounded=0;html=1;whiteSpace=wrap;fontFamily=GOST type B;fontStyle=2;fontSize=16;spacingLeft=4;" parent="1" vertex="1">
          <mxGeometry x="194.5" y="166" width="460" height="32" as="geometry" />
        </mxCell>
        <mxCell id="eSxXKxZ22m-BICX9o1b3-157" value="&lt;font style=&quot;direction: ltr; line-height: 120%; opacity: 1;&quot;&gt;Texas&lt;br style=&quot;font-size: 16px&quot;&gt;&lt;/font&gt;" style="verticalAlign=middle;align=center;vsdxID=67;fillColor=none;gradientColor=none;shape=stencil(nZBLDoAgDERP0z3SIyjew0SURgSD+Lu9kMZoXLhwN9O+tukAlrNpJg1SzDH4QW/URgNYgZTkjA4UkwJUgGXng+6DX1zLfmoymdXo17xh5zmRJ6Q42BWCfc2oJfdAr+Yv+AP9Cb7OJ3H/2JG1HNGz/84klThPVCc=);labelBackgroundColor=none;rounded=0;html=1;whiteSpace=wrap;fontStyle=2;fontFamily=GOST type B;fontSize=16;" parent="1" vertex="1">
          <mxGeometry x="694.5" y="166" width="120" height="32" as="geometry" />
        </mxCell>
        <mxCell id="eSxXKxZ22m-BICX9o1b3-158" value="" style="vsdxID=68;fillColor=none;gradientColor=none;shape=stencil(nZBLDoAgDERP0z3SIyjew0SURgSD+Lu9kMZoXLhwN9O+tukAlrNpJg1SzDH4QW/URgNYgZTkjA4UkwJUgGXng+6DX1zLfmoymdXo17xh5zmRJ6Q42BWCfc2oJfdAr+Yv+AP9Cb7OJ3H/2JG1HNGz/84klThPVCc=);labelBackgroundColor=none;rounded=0;html=1;whiteSpace=wrap;align=center;spacingLeft=0;fontStyle=2;fontFamily=GOST type B;fontSize=16;" parent="1" vertex="1">
          <mxGeometry x="74.5" y="198" width="120" height="32" as="geometry" />
        </mxCell>
        <mxCell id="eSxXKxZ22m-BICX9o1b3-159" value="" style="vsdxID=69;fillColor=none;gradientColor=none;shape=stencil(nZBLDoAgDERP0z3SIyjew0SURgSD+Lu9kMZoXLhwN9O+tukAlrNpJg1SzDH4QW/URgNYgZTkjA4UkwJUgGXng+6DX1zLfmoymdXo17xh5zmRJ6Q42BWCfc2oJfdAr+Yv+AP9Cb7OJ3H/2JG1HNGz/84klThPVCc=);labelBackgroundColor=none;rounded=0;html=1;whiteSpace=wrap;align=left;spacingLeft=4;fontStyle=2;fontFamily=GOST type B;fontSize=16;" parent="1" vertex="1">
          <mxGeometry x="194.5" y="198" width="460" height="32" as="geometry" />
        </mxCell>
        <mxCell id="eSxXKxZ22m-BICX9o1b3-171" value="" style="verticalAlign=middle;align=center;vsdxID=83;fillColor=none;gradientColor=none;shape=stencil(nZBLDoAgDERP0z3SIyjew0SURgSD+Lu9kMZoXLhwN9O+tukAlrNpJg1SzDH4QW/URgNYgZTkjA4UkwJUgGXng+6DX1zLfmoymdXo17xh5zmRJ6Q42BWCfc2oJfdAr+Yv+AP9Cb7OJ3H/2JG1HNGz/84klThPVCc=);labelBackgroundColor=none;rounded=0;html=1;whiteSpace=wrap;fontStyle=2;fontFamily=GOST type B;fontSize=16;spacingLeft=0;" parent="1" vertex="1">
          <mxGeometry x="75" y="324" width="120" height="32" as="geometry" />
        </mxCell>
        <mxCell id="eSxXKxZ22m-BICX9o1b3-172" value="" style="verticalAlign=middle;align=left;vsdxID=84;fillColor=none;gradientColor=none;shape=stencil(nZBLDoAgDERP0z3SIyjew0SURgSD+Lu9kMZoXLhwN9O+tukAlrNpJg1SzDH4QW/URgNYgZTkjA4UkwJUgGXng+6DX1zLfmoymdXo17xh5zmRJ6Q42BWCfc2oJfdAr+Yv+AP9Cb7OJ3H/2JG1HNGz/84klThPVCc=);labelBackgroundColor=none;rounded=0;html=1;whiteSpace=wrap;fontStyle=2;fontFamily=GOST type B;fontSize=16;spacingLeft=4;" parent="1" vertex="1">
          <mxGeometry x="195" y="324" width="460" height="32" as="geometry" />
        </mxCell>
        <mxCell id="eSxXKxZ22m-BICX9o1b3-173" value="" style="verticalAlign=middle;align=center;vsdxID=85;fillColor=none;gradientColor=none;shape=stencil(nZBLDoAgDERP0z3SIyjew0SURgSD+Lu9kMZoXLhwN9O+tukAlrNpJg1SzDH4QW/URgNYgZTkjA4UkwJUgGXng+6DX1zLfmoymdXo17xh5zmRJ6Q42BWCfc2oJfdAr+Yv+AP9Cb7OJ3H/2JG1HNGz/84klThPVCc=);labelBackgroundColor=none;rounded=0;html=1;whiteSpace=wrap;fontStyle=2;fontFamily=GOST type B;fontSize=16;" parent="1" vertex="1">
          <mxGeometry x="694.5" y="324" width="120" height="32" as="geometry" />
        </mxCell>
        <mxCell id="eSxXKxZ22m-BICX9o1b3-174" value="C1,C3..C8" style="vsdxID=86;fillColor=none;gradientColor=none;shape=stencil(nZBLDoAgDERP0z3SIyjew0SURgSD+Lu9kMZoXLhwN9O+tukAlrNpJg1SzDH4QW/URgNYgZTkjA4UkwJUgGXng+6DX1zLfmoymdXo17xh5zmRJ6Q42BWCfc2oJfdAr+Yv+AP9Cb7OJ3H/2JG1HNGz/84klThPVCc=);labelBackgroundColor=none;rounded=0;html=1;whiteSpace=wrap;fontStyle=2;fontFamily=GOST type B;align=center;fontSize=16;spacingLeft=0;" parent="1" vertex="1">
          <mxGeometry x="75" y="356" width="120" height="32" as="geometry" />
        </mxCell>
        <mxCell id="eSxXKxZ22m-BICX9o1b3-175" value="GRM21BR71H104K, 0,1 мкФ, 5В" style="vsdxID=87;fillColor=none;gradientColor=none;shape=stencil(nZBLDoAgDERP0z3SIyjew0SURgSD+Lu9kMZoXLhwN9O+tukAlrNpJg1SzDH4QW/URgNYgZTkjA4UkwJUgGXng+6DX1zLfmoymdXo17xh5zmRJ6Q42BWCfc2oJfdAr+Yv+AP9Cb7OJ3H/2JG1HNGz/84klThPVCc=);labelBackgroundColor=none;rounded=0;html=1;whiteSpace=wrap;align=left;spacingLeft=4;fontStyle=2;fontFamily=GOST type B;fontSize=16;" parent="1" vertex="1">
          <mxGeometry x="195" y="356" width="460" height="32" as="geometry" />
        </mxCell>
        <mxCell id="eSxXKxZ22m-BICX9o1b3-176" value="Murata" style="vsdxID=88;fillColor=none;gradientColor=none;shape=stencil(nZBLDoAgDERP0z3SIyjew0SURgSD+Lu9kMZoXLhwN9O+tukAlrNpJg1SzDH4QW/URgNYgZTkjA4UkwJUgGXng+6DX1zLfmoymdXo17xh5zmRJ6Q42BWCfc2oJfdAr+Yv+AP9Cb7OJ3H/2JG1HNGz/84klThPVCc=);labelBackgroundColor=none;rounded=0;html=1;whiteSpace=wrap;fontStyle=2;fontFamily=GOST type B;align=center;fontSize=16;" parent="1" vertex="1">
          <mxGeometry x="694.5" y="356" width="120" height="32" as="geometry" />
        </mxCell>
        <mxCell id="eSxXKxZ22m-BICX9o1b3-183" value="" style="vsdxID=95;fillColor=none;gradientColor=none;shape=stencil(nZBLDoAgDERP0z3SIyjew0SURgSD+Lu9kMZoXLhwN9O+tukAlrNpJg1SzDH4QW/URgNYgZTkjA4UkwJUgGXng+6DX1zLfmoymdXo17xh5zmRJ6Q42BWCfc2oJfdAr+Yv+AP9Cb7OJ3H/2JG1HNGz/84klThPVCc=);labelBackgroundColor=none;rounded=0;html=1;whiteSpace=wrap;fontStyle=2;fontFamily=GOST type B;align=center;fontSize=16;spacingLeft=0;" parent="1" vertex="1">
          <mxGeometry x="75" y="324" width="120" height="32" as="geometry" />
        </mxCell>
        <mxCell id="eSxXKxZ22m-BICX9o1b3-184" value="" style="vsdxID=97;fillColor=none;gradientColor=none;shape=stencil(nZBLDoAgDERP0z3SIyjew0SURgSD+Lu9kMZoXLhwN9O+tukAlrNpJg1SzDH4QW/URgNYgZTkjA4UkwJUgGXng+6DX1zLfmoymdXo17xh5zmRJ6Q42BWCfc2oJfdAr+Yv+AP9Cb7OJ3H/2JG1HNGz/84klThPVCc=);labelBackgroundColor=none;rounded=0;html=1;whiteSpace=wrap;fontStyle=2;fontFamily=GOST type B;align=center;fontSize=16;" parent="1" vertex="1">
          <mxGeometry x="694.5" y="324" width="120" height="32" as="geometry" />
        </mxCell>
        <mxCell id="eSxXKxZ22m-BICX9o1b3-185" style="vsdxID=101;fillColor=none;gradientColor=none;shape=stencil(nZBLDoAgDERP0z3SIyjew0SURgSD+Lu9kMZoXLhwN9O+tukAlrNpJg1SzDH4QW/URgNYgZTkjA4UkwJUgGXng+6DX1zLfmoymdXo17xh5zmRJ6Q42BWCfc2oJfdAr+Yv+AP9Cb7OJ3H/2JG1HNGz/84klThPVCc=);labelBackgroundColor=none;rounded=0;html=1;whiteSpace=wrap;fontStyle=2;fontFamily=GOST type B;align=center;fontSize=16;spacingLeft=0;" parent="1" vertex="1">
          <mxGeometry x="75" y="548" width="120" height="32" as="geometry" />
        </mxCell>
        <mxCell id="eSxXKxZ22m-BICX9o1b3-188" value="R1,R3,R6,R10,R11,R13" style="vsdxID=104;fillColor=none;gradientColor=none;shape=stencil(nZBLDoAgDERP0z3SIyjew0SURgSD+Lu9kMZoXLhwN9O+tukAlrNpJg1SzDH4QW/URgNYgZTkjA4UkwJUgGXng+6DX1zLfmoymdXo17xh5zmRJ6Q42BWCfc2oJfdAr+Yv+AP9Cb7OJ3H/2JG1HNGz/84klThPVCc=);labelBackgroundColor=none;rounded=0;html=1;whiteSpace=wrap;fontStyle=2;fontFamily=GOST type B;align=center;fontSize=14;spacingLeft=0;" parent="1" vertex="1">
          <mxGeometry x="75" y="613" width="120" height="32" as="geometry" />
        </mxCell>
        <mxCell id="eSxXKxZ22m-BICX9o1b3-189" value="CF-100, 100 кОм" style="vsdxID=105;fillColor=none;gradientColor=none;shape=stencil(nZBLDoAgDERP0z3SIyjew0SURgSD+Lu9kMZoXLhwN9O+tukAlrNpJg1SzDH4QW/URgNYgZTkjA4UkwJUgGXng+6DX1zLfmoymdXo17xh5zmRJ6Q42BWCfc2oJfdAr+Yv+AP9Cb7OJ3H/2JG1HNGz/84klThPVCc=);labelBackgroundColor=none;rounded=0;html=1;whiteSpace=wrap;fontStyle=2;fontFamily=GOST type B;align=left;fontSize=16;spacingLeft=4;" parent="1" vertex="1">
          <mxGeometry x="195" y="613" width="460" height="32" as="geometry" />
        </mxCell>
        <mxCell id="eSxXKxZ22m-BICX9o1b3-190" style="vsdxID=132;edgeStyle=none;startArrow=none;endArrow=none;startSize=5;endSize=5;strokeWidth=2;spacingTop=0;spacingBottom=0;spacingLeft=0;spacingRight=0;verticalAlign=middle;html=1;labelBackgroundColor=#ffffff;rounded=0;align=center;fontFamily=GOST type B;" parent="1" edge="1">
          <mxGeometry x="35" y="10" as="geometry">
            <Array as="points" />
            <mxPoint x="655" y="10" as="sourcePoint" />
            <mxPoint x="655" y="938" as="targetPoint" />
          </mxGeometry>
        </mxCell>
        <mxCell id="eSxXKxZ22m-BICX9o1b3-191" style="vsdxID=131;edgeStyle=none;startArrow=none;endArrow=none;startSize=5;endSize=5;strokeWidth=2;spacingTop=0;spacingBottom=0;spacingLeft=0;spacingRight=0;verticalAlign=middle;html=1;labelBackgroundColor=#ffffff;rounded=0;align=center;fontFamily=GOST type B;" parent="1" edge="1">
          <mxGeometry x="-45" y="10" as="geometry">
            <Array as="points" />
            <mxPoint x="195" y="10" as="sourcePoint" />
            <mxPoint x="195" y="938" as="targetPoint" />
          </mxGeometry>
        </mxCell>
        <mxCell id="eSxXKxZ22m-BICX9o1b3-192" style="vsdxID=106;fillColor=none;gradientColor=none;shape=stencil(nZBLDoAgDERP0z3SIyjew0SURgSD+Lu9kMZoXLhwN9O+tukAlrNpJg1SzDH4QW/URgNYgZTkjA4UkwJUgGXng+6DX1zLfmoymdXo17xh5zmRJ6Q42BWCfc2oJfdAr+Yv+AP9Cb7OJ3H/2JG1HNGz/84klThPVCc=);labelBackgroundColor=none;rounded=0;html=1;whiteSpace=wrap;fontStyle=2;fontFamily=GOST type B;align=center;fontSize=16;" parent="1" vertex="1">
          <mxGeometry x="694.5" y="613" width="120" height="32" as="geometry" />
        </mxCell>
        <mxCell id="eSxXKxZ22m-BICX9o1b3-205" style="vsdxID=119;fillColor=none;gradientColor=none;shape=stencil(nZBLDoAgDERP0z3SIyjew0SURgSD+Lu9kMZoXLhwN9O+tukAlrNpJg1SzDH4QW/URgNYgZTkjA4UkwJUgGXng+6DX1zLfmoymdXo17xh5zmRJ6Q42BWCfc2oJfdAr+Yv+AP9Cb7OJ3H/2JG1HNGz/84klThPVCc=);labelBackgroundColor=none;rounded=0;html=1;whiteSpace=wrap;fontStyle=2;fontFamily=GOST type B;align=center;fontSize=16;spacingLeft=0;" parent="1" vertex="1">
          <mxGeometry x="75.25" y="1240" width="120" height="32" as="geometry" />
        </mxCell>
        <mxCell id="eSxXKxZ22m-BICX9o1b3-206" value="&lt;span style=&quot;font-size: 20px&quot;&gt;&lt;u&gt;Другое&lt;/u&gt;&lt;/span&gt;" style="vsdxID=120;fillColor=none;gradientColor=none;shape=stencil(nZBLDoAgDERP0z3SIyjew0SURgSD+Lu9kMZoXLhwN9O+tukAlrNpJg1SzDH4QW/URgNYgZTkjA4UkwJUgGXng+6DX1zLfmoymdXo17xh5zmRJ6Q42BWCfc2oJfdAr+Yv+AP9Cb7OJ3H/2JG1HNGz/84klThPVCc=);labelBackgroundColor=none;rounded=0;html=1;whiteSpace=wrap;fontStyle=2;fontFamily=GOST type B;align=center;fontSize=16;spacingLeft=4;" parent="1" vertex="1">
          <mxGeometry x="195.25" y="1240" width="460" height="32" as="geometry" />
        </mxCell>
        <mxCell id="eSxXKxZ22m-BICX9o1b3-211" value="&lt;span&gt;DA1&lt;/span&gt;" style="vsdxID=125;fillColor=none;gradientColor=none;shape=stencil(nZBLDoAgDERP0z3SIyjew0SURgSD+Lu9kMZoXLhwN9O+tukAlrNpJg1SzDH4QW/URgNYgZTkjA4UkwJUgGXng+6DX1zLfmoymdXo17xh5zmRJ6Q42BWCfc2oJfdAr+Yv+AP9Cb7OJ3H/2JG1HNGz/84klThPVCc=);labelBackgroundColor=none;rounded=0;html=1;whiteSpace=wrap;fontStyle=2;fontFamily=GOST type B;align=center;fontSize=16;spacingLeft=0;" parent="1" vertex="1">
          <mxGeometry x="75.25" y="1272" width="120" height="32" as="geometry" />
        </mxCell>
        <mxCell id="eSxXKxZ22m-BICX9o1b3-212" value="&lt;i style=&quot;&quot;&gt;Стабилизатор напряжения&amp;nbsp;&lt;/i&gt;AMS1117-3.3 /&amp;nbsp;SOT-223" style="vsdxID=126;fillColor=none;gradientColor=none;shape=stencil(nZBLDoAgDERP0z3SIyjew0SURgSD+Lu9kMZoXLhwN9O+tukAlrNpJg1SzDH4QW/URgNYgZTkjA4UkwJUgGXng+6DX1zLfmoymdXo17xh5zmRJ6Q42BWCfc2oJfdAr+Yv+AP9Cb7OJ3H/2JG1HNGz/84klThPVCc=);labelBackgroundColor=none;rounded=0;html=1;whiteSpace=wrap;fontStyle=2;fontFamily=GOST type B;align=left;fontSize=16;spacingLeft=4;" parent="1" vertex="1">
          <mxGeometry x="195.25" y="1272" width="460" height="32" as="geometry" />
        </mxCell>
        <mxCell id="eSxXKxZ22m-BICX9o1b3-214" value="VD1..VD3" style="vsdxID=128;fillColor=none;gradientColor=none;shape=stencil(nZBLDoAgDERP0z3SIyjew0SURgSD+Lu9kMZoXLhwN9O+tukAlrNpJg1SzDH4QW/URgNYgZTkjA4UkwJUgGXng+6DX1zLfmoymdXo17xh5zmRJ6Q42BWCfc2oJfdAr+Yv+AP9Cb7OJ3H/2JG1HNGz/84klThPVCc=);labelBackgroundColor=none;rounded=0;html=1;whiteSpace=wrap;fontStyle=2;fontFamily=GOST type B;align=center;fontSize=16;spacingLeft=0;" parent="1" vertex="1">
          <mxGeometry x="75.25" y="1304" width="120" height="32" as="geometry" />
        </mxCell>
        <mxCell id="eSxXKxZ22m-BICX9o1b3-215" value="Светодиод SMD OSR5060341F" style="vsdxID=129;fillColor=none;gradientColor=none;shape=stencil(nZBLDoAgDERP0z3SIyjew0SURgSD+Lu9kMZoXLhwN9O+tukAlrNpJg1SzDH4QW/URgNYgZTkjA4UkwJUgGXng+6DX1zLfmoymdXo17xh5zmRJ6Q42BWCfc2oJfdAr+Yv+AP9Cb7OJ3H/2JG1HNGz/84klThPVCc=);labelBackgroundColor=none;rounded=0;html=1;whiteSpace=wrap;fontStyle=2;fontFamily=GOST type B;align=left;fontSize=16;spacingLeft=4;" parent="1" vertex="1">
          <mxGeometry x="195.25" y="1304" width="460" height="32" as="geometry" />
        </mxCell>
        <mxCell id="eSxXKxZ22m-BICX9o1b3-217" style="vsdxID=1;edgeStyle=none;startArrow=none;endArrow=none;startSize=5;endSize=5;strokeWidth=4;spacingTop=0;spacingBottom=0;spacingLeft=0;spacingRight=0;verticalAlign=middle;html=1;labelBackgroundColor=#ffffff;rounded=0;fontFamily=GOST type B;" parent="1" edge="1">
          <mxGeometry x="75" y="10" as="geometry">
            <mxPoint as="offset" />
            <Array as="points" />
            <mxPoint x="75" y="1158" as="sourcePoint" />
            <mxPoint x="815" y="1158" as="targetPoint" />
          </mxGeometry>
        </mxCell>
        <mxCell id="eSxXKxZ22m-BICX9o1b3-218" style="vsdxID=2;edgeStyle=none;startArrow=none;endArrow=none;startSize=5;endSize=5;strokeWidth=4;spacingTop=0;spacingBottom=0;spacingLeft=0;spacingRight=0;verticalAlign=middle;html=1;labelBackgroundColor=#ffffff;rounded=0;fontFamily=GOST type B;" parent="1" edge="1">
          <mxGeometry x="75" y="10" as="geometry">
            <Array as="points" />
            <mxPoint x="815" y="1158" as="sourcePoint" />
            <mxPoint x="815" y="10" as="targetPoint" />
          </mxGeometry>
        </mxCell>
        <mxCell id="eSxXKxZ22m-BICX9o1b3-219" style="vsdxID=3;edgeStyle=none;startArrow=none;endArrow=none;startSize=5;endSize=5;strokeWidth=4;spacingTop=0;spacingBottom=0;spacingLeft=0;spacingRight=0;verticalAlign=middle;html=1;labelBackgroundColor=#ffffff;rounded=0;fontStyle=2;fontFamily=GOST type B;align=left;" parent="1" edge="1">
          <mxGeometry x="75" y="10" as="geometry">
            <Array as="points" />
            <mxPoint x="815" y="10" as="sourcePoint" />
            <mxPoint x="75" y="10" as="targetPoint" />
          </mxGeometry>
        </mxCell>
        <mxCell id="eSxXKxZ22m-BICX9o1b3-220" style="vsdxID=4;edgeStyle=none;startArrow=none;endArrow=none;startSize=5;endSize=5;strokeWidth=4;spacingTop=0;spacingBottom=0;spacingLeft=0;spacingRight=0;verticalAlign=middle;html=1;labelBackgroundColor=#ffffff;rounded=0;fontFamily=GOST type B;" parent="1" edge="1">
          <mxGeometry x="75" y="10" as="geometry">
            <Array as="points" />
            <mxPoint x="75" y="10" as="sourcePoint" />
            <mxPoint x="75" y="1158" as="targetPoint" />
          </mxGeometry>
        </mxCell>
        <mxCell id="eSxXKxZ22m-BICX9o1b3-221" value="&lt;u&gt;&lt;font style=&quot;font-size: 20px&quot;&gt;Конденсаторы&lt;/font&gt;&lt;/u&gt;" style="vsdxID=102;fillColor=none;gradientColor=none;shape=stencil(nZBLDoAgDERP0z3SIyjew0SURgSD+Lu9kMZoXLhwN9O+tukAlrNpJg1SzDH4QW/URgNYgZTkjA4UkwJUgGXng+6DX1zLfmoymdXo17xh5zmRJ6Q42BWCfc2oJfdAr+Yv+AP9Cb7OJ3H/2JG1HNGz/84klThPVCc=);labelBackgroundColor=none;rounded=0;html=1;whiteSpace=wrap;fontStyle=2;fontFamily=GOST type B;align=center;fontSize=16;spacingLeft=4;" parent="1" vertex="1">
          <mxGeometry x="195" y="324" width="460" height="32" as="geometry" />
        </mxCell>
        <mxCell id="eSxXKxZ22m-BICX9o1b3-222" value="&lt;font style=&quot;direction: ltr; line-height: 120%; opacity: 1;&quot;&gt;Instruments&lt;br style=&quot;font-size: 16px&quot;&gt;&lt;/font&gt;" style="verticalAlign=middle;align=center;vsdxID=67;fillColor=none;gradientColor=none;shape=stencil(nZBLDoAgDERP0z3SIyjew0SURgSD+Lu9kMZoXLhwN9O+tukAlrNpJg1SzDH4QW/URgNYgZTkjA4UkwJUgGXng+6DX1zLfmoymdXo17xh5zmRJ6Q42BWCfc2oJfdAr+Yv+AP9Cb7OJ3H/2JG1HNGz/84klThPVCc=);labelBackgroundColor=none;rounded=0;html=1;whiteSpace=wrap;fontStyle=2;fontFamily=GOST type B;fontSize=16;" parent="1" vertex="1">
          <mxGeometry x="694.5" y="198" width="120" height="32" as="geometry" />
        </mxCell>
        <mxCell id="eSxXKxZ22m-BICX9o1b3-227" value="&lt;u&gt;&lt;font style=&quot;font-size: 20px&quot;&gt;Резисторы&lt;/font&gt;&lt;/u&gt;" style="vsdxID=114;fillColor=none;gradientColor=none;shape=stencil(nZBLDoAgDERP0z3SIyjew0SURgSD+Lu9kMZoXLhwN9O+tukAlrNpJg1SzDH4QW/URgNYgZTkjA4UkwJUgGXng+6DX1zLfmoymdXo17xh5zmRJ6Q42BWCfc2oJfdAr+Yv+AP9Cb7OJ3H/2JG1HNGz/84klThPVCc=);labelBackgroundColor=none;rounded=0;html=1;whiteSpace=wrap;fontStyle=2;fontFamily=GOST type B;align=center;fontSize=16;spacingLeft=4;" parent="1" vertex="1">
          <mxGeometry x="195" y="581" width="460" height="32" as="geometry" />
        </mxCell>
        <mxCell id="eSxXKxZ22m-BICX9o1b3-229" style="vsdxID=109;fillColor=none;gradientColor=none;shape=stencil(nZBLDoAgDERP0z3SIyjew0SURgSD+Lu9kMZoXLhwN9O+tukAlrNpJg1SzDH4QW/URgNYgZTkjA4UkwJUgGXng+6DX1zLfmoymdXo17xh5zmRJ6Q42BWCfc2oJfdAr+Yv+AP9Cb7OJ3H/2JG1HNGz/84klThPVCc=);labelBackgroundColor=none;rounded=0;html=1;whiteSpace=wrap;fontStyle=2;fontFamily=GOST type B;align=center;fontSize=16;" parent="1" vertex="1">
          <mxGeometry x="694.5" y="548" width="120" height="32" as="geometry" />
        </mxCell>
        <mxCell id="eSxXKxZ22m-BICX9o1b3-230" value="&lt;font style=&quot;font-size: 16px ; color: rgb(0 , 0 , 0) ; direction: ltr ; letter-spacing: 0px ; line-height: 120% ; opacity: 1&quot;&gt;&lt;span&gt;Кол.&lt;br&gt;&lt;/span&gt;&lt;/font&gt;" style="verticalAlign=middle;align=center;vsdxID=52;fillColor=none;gradientColor=none;shape=stencil(nZBLDoAgDERP0z3SIyjew0SURgSD+Lu9kMZoXLhwN9O+tukAlrNpJg1SzDH4QW/URgNYgZTkjA4UkwJUgGXng+6DX1zLfmoymdXo17xh5zmRJ6Q42BWCfc2oJfdAr+Yv+AP9Cb7OJ3H/2JG1HNGz/84klThPVCc=);strokeWidth=3;labelBackgroundColor=none;rounded=0;html=1;whiteSpace=wrap;fontStyle=2;fontFamily=GOST type B;" parent="1" vertex="1">
          <mxGeometry x="655" y="10" width="39" height="60" as="geometry" />
        </mxCell>
        <mxCell id="eSxXKxZ22m-BICX9o1b3-231" style="vsdxID=55;fillColor=none;gradientColor=none;shape=stencil(nZBLDoAgDERP0z3SIyjew0SURgSD+Lu9kMZoXLhwN9O+tukAlrNpJg1SzDH4QW/URgNYgZTkjA4UkwJUgGXng+6DX1zLfmoymdXo17xh5zmRJ6Q42BWCfc2oJfdAr+Yv+AP9Cb7OJ3H/2JG1HNGz/84klThPVCc=);labelBackgroundColor=none;rounded=0;html=1;whiteSpace=wrap;fontStyle=2;fontFamily=GOST type B;align=center;fontSize=16;" parent="1" vertex="1">
          <mxGeometry x="654" y="70" width="40" height="32" as="geometry" />
        </mxCell>
        <mxCell id="eSxXKxZ22m-BICX9o1b3-232" style="vsdxID=58;fillColor=none;gradientColor=none;shape=stencil(nZBLDoAgDERP0z3SIyjew0SURgSD+Lu9kMZoXLhwN9O+tukAlrNpJg1SzDH4QW/URgNYgZTkjA4UkwJUgGXng+6DX1zLfmoymdXo17xh5zmRJ6Q42BWCfc2oJfdAr+Yv+AP9Cb7OJ3H/2JG1HNGz/84klThPVCc=);labelBackgroundColor=none;rounded=0;html=1;whiteSpace=wrap;fontStyle=2;fontFamily=GOST type B;align=center;fontSize=16;" parent="1" vertex="1">
          <mxGeometry x="653.5" y="70" width="40" height="32" as="geometry" />
        </mxCell>
        <mxCell id="eSxXKxZ22m-BICX9o1b3-233" value="&lt;p style=&quot;margin: 0px ; text-indent: 0px ; direction: ltr ; font-size: 16px&quot;&gt;1&lt;/p&gt;" style="verticalAlign=middle;align=center;vsdxID=61;fillColor=none;gradientColor=none;shape=stencil(nZBLDoAgDERP0z3SIyjew0SURgSD+Lu9kMZoXLhwN9O+tukAlrNpJg1SzDH4QW/URgNYgZTkjA4UkwJUgGXng+6DX1zLfmoymdXo17xh5zmRJ6Q42BWCfc2oJfdAr+Yv+AP9Cb7OJ3H/2JG1HNGz/84klThPVCc=);labelBackgroundColor=none;rounded=0;html=1;whiteSpace=wrap;fontStyle=2;fontFamily=GOST type B;fontSize=16;" parent="1" vertex="1">
          <mxGeometry x="653.5" y="102" width="40" height="32" as="geometry" />
        </mxCell>
        <mxCell id="eSxXKxZ22m-BICX9o1b3-234" style="vsdxID=64;fillColor=none;gradientColor=none;shape=stencil(nZBLDoAgDERP0z3SIyjew0SURgSD+Lu9kMZoXLhwN9O+tukAlrNpJg1SzDH4QW/URgNYgZTkjA4UkwJUgGXng+6DX1zLfmoymdXo17xh5zmRJ6Q42BWCfc2oJfdAr+Yv+AP9Cb7OJ3H/2JG1HNGz/84klThPVCc=);labelBackgroundColor=none;rounded=0;html=1;whiteSpace=wrap;fontStyle=2;fontFamily=GOST type B;align=center;fontSize=16;" parent="1" vertex="1">
          <mxGeometry x="653.5" y="134" width="40" height="32" as="geometry" />
        </mxCell>
        <mxCell id="eSxXKxZ22m-BICX9o1b3-235" value="&lt;font style=&quot;font-size: 16px ; color: rgb(0 , 0 , 0) ; direction: ltr ; letter-spacing: 0px ; line-height: 120% ; opacity: 1&quot;&gt;&lt;span style=&quot;font-size: 16px&quot;&gt;2&lt;br style=&quot;font-size: 16px&quot;&gt;&lt;/span&gt;&lt;/font&gt;" style="verticalAlign=middle;align=center;vsdxID=67;fillColor=none;gradientColor=none;shape=stencil(nZBLDoAgDERP0z3SIyjew0SURgSD+Lu9kMZoXLhwN9O+tukAlrNpJg1SzDH4QW/URgNYgZTkjA4UkwJUgGXng+6DX1zLfmoymdXo17xh5zmRJ6Q42BWCfc2oJfdAr+Yv+AP9Cb7OJ3H/2JG1HNGz/84klThPVCc=);labelBackgroundColor=none;rounded=0;html=1;whiteSpace=wrap;fontStyle=2;fontFamily=GOST type B;fontSize=16;" parent="1" vertex="1">
          <mxGeometry x="653.5" y="166" width="40" height="32" as="geometry" />
        </mxCell>
        <mxCell id="eSxXKxZ22m-BICX9o1b3-239" value="" style="verticalAlign=middle;align=center;vsdxID=85;fillColor=none;gradientColor=none;shape=stencil(nZBLDoAgDERP0z3SIyjew0SURgSD+Lu9kMZoXLhwN9O+tukAlrNpJg1SzDH4QW/URgNYgZTkjA4UkwJUgGXng+6DX1zLfmoymdXo17xh5zmRJ6Q42BWCfc2oJfdAr+Yv+AP9Cb7OJ3H/2JG1HNGz/84klThPVCc=);labelBackgroundColor=none;rounded=0;html=1;whiteSpace=wrap;fontStyle=2;fontFamily=GOST type B;fontSize=16;" parent="1" vertex="1">
          <mxGeometry x="654" y="324" width="40" height="32" as="geometry" />
        </mxCell>
        <mxCell id="eSxXKxZ22m-BICX9o1b3-240" value="6" style="vsdxID=88;fillColor=none;gradientColor=none;shape=stencil(nZBLDoAgDERP0z3SIyjew0SURgSD+Lu9kMZoXLhwN9O+tukAlrNpJg1SzDH4QW/URgNYgZTkjA4UkwJUgGXng+6DX1zLfmoymdXo17xh5zmRJ6Q42BWCfc2oJfdAr+Yv+AP9Cb7OJ3H/2JG1HNGz/84klThPVCc=);labelBackgroundColor=none;rounded=0;html=1;whiteSpace=wrap;fontStyle=2;fontFamily=GOST type B;align=center;fontSize=16;" parent="1" vertex="1">
          <mxGeometry x="654" y="356" width="40" height="32" as="geometry" />
        </mxCell>
        <mxCell id="eSxXKxZ22m-BICX9o1b3-243" value="" style="vsdxID=97;fillColor=none;gradientColor=none;shape=stencil(nZBLDoAgDERP0z3SIyjew0SURgSD+Lu9kMZoXLhwN9O+tukAlrNpJg1SzDH4QW/URgNYgZTkjA4UkwJUgGXng+6DX1zLfmoymdXo17xh5zmRJ6Q42BWCfc2oJfdAr+Yv+AP9Cb7OJ3H/2JG1HNGz/84klThPVCc=);labelBackgroundColor=none;rounded=0;html=1;whiteSpace=wrap;fontStyle=2;fontFamily=GOST type B;align=center;fontSize=16;" parent="1" vertex="1">
          <mxGeometry x="654" y="324" width="40" height="32" as="geometry" />
        </mxCell>
        <mxCell id="eSxXKxZ22m-BICX9o1b3-245" value="6" style="vsdxID=106;fillColor=none;gradientColor=none;shape=stencil(nZBLDoAgDERP0z3SIyjew0SURgSD+Lu9kMZoXLhwN9O+tukAlrNpJg1SzDH4QW/URgNYgZTkjA4UkwJUgGXng+6DX1zLfmoymdXo17xh5zmRJ6Q42BWCfc2oJfdAr+Yv+AP9Cb7OJ3H/2JG1HNGz/84klThPVCc=);labelBackgroundColor=none;rounded=0;html=1;whiteSpace=wrap;fontStyle=2;fontFamily=GOST type B;align=center;fontSize=16;" parent="1" vertex="1">
          <mxGeometry x="654" y="613" width="40" height="32" as="geometry" />
        </mxCell>
        <mxCell id="eSxXKxZ22m-BICX9o1b3-250" style="vsdxID=121;fillColor=none;gradientColor=none;shape=stencil(nZBLDoAgDERP0z3SIyjew0SURgSD+Lu9kMZoXLhwN9O+tukAlrNpJg1SzDH4QW/URgNYgZTkjA4UkwJUgGXng+6DX1zLfmoymdXo17xh5zmRJ6Q42BWCfc2oJfdAr+Yv+AP9Cb7OJ3H/2JG1HNGz/84klThPVCc=);labelBackgroundColor=none;rounded=0;html=1;whiteSpace=wrap;fontStyle=2;fontFamily=GOST type B;align=center;fontSize=16;" parent="1" vertex="1">
          <mxGeometry x="655.25" y="1240" width="39" height="32" as="geometry" />
        </mxCell>
        <mxCell id="eSxXKxZ22m-BICX9o1b3-252" value="1" style="vsdxID=127;fillColor=none;gradientColor=none;shape=stencil(nZBLDoAgDERP0z3SIyjew0SURgSD+Lu9kMZoXLhwN9O+tukAlrNpJg1SzDH4QW/URgNYgZTkjA4UkwJUgGXng+6DX1zLfmoymdXo17xh5zmRJ6Q42BWCfc2oJfdAr+Yv+AP9Cb7OJ3H/2JG1HNGz/84klThPVCc=);labelBackgroundColor=none;rounded=0;html=1;whiteSpace=wrap;fontStyle=2;fontFamily=GOST type B;align=center;fontSize=16;" parent="1" vertex="1">
          <mxGeometry x="655.25" y="1272" width="39" height="32" as="geometry" />
        </mxCell>
        <mxCell id="eSxXKxZ22m-BICX9o1b3-253" value="1" style="vsdxID=130;fillColor=none;gradientColor=none;shape=stencil(nZBLDoAgDERP0z3SIyjew0SURgSD+Lu9kMZoXLhwN9O+tukAlrNpJg1SzDH4QW/URgNYgZTkjA4UkwJUgGXng+6DX1zLfmoymdXo17xh5zmRJ6Q42BWCfc2oJfdAr+Yv+AP9Cb7OJ3H/2JG1HNGz/84klThPVCc=);labelBackgroundColor=none;rounded=0;html=1;whiteSpace=wrap;fontStyle=2;fontFamily=GOST type B;align=center;fontSize=16;" parent="1" vertex="1">
          <mxGeometry x="655.25" y="1304" width="39" height="32" as="geometry" />
        </mxCell>
        <mxCell id="eSxXKxZ22m-BICX9o1b3-254" value="&lt;font style=&quot;font-size: 16px ; color: rgb(0 , 0 , 0) ; direction: ltr ; letter-spacing: 0px ; line-height: 120% ; opacity: 1&quot;&gt;&lt;span style=&quot;font-size: 16px&quot;&gt;&lt;br style=&quot;font-size: 16px&quot;&gt;&lt;/span&gt;&lt;/font&gt;" style="verticalAlign=middle;align=center;vsdxID=67;fillColor=none;gradientColor=none;shape=stencil(nZBLDoAgDERP0z3SIyjew0SURgSD+Lu9kMZoXLhwN9O+tukAlrNpJg1SzDH4QW/URgNYgZTkjA4UkwJUgGXng+6DX1zLfmoymdXo17xh5zmRJ6Q42BWCfc2oJfdAr+Yv+AP9Cb7OJ3H/2JG1HNGz/84klThPVCc=);labelBackgroundColor=none;rounded=0;html=1;whiteSpace=wrap;fontStyle=2;fontFamily=GOST type B;fontSize=16;" parent="1" vertex="1">
          <mxGeometry x="653.5" y="198" width="40" height="32" as="geometry" />
        </mxCell>
        <mxCell id="eSxXKxZ22m-BICX9o1b3-257" style="vsdxID=109;fillColor=none;gradientColor=none;shape=stencil(nZBLDoAgDERP0z3SIyjew0SURgSD+Lu9kMZoXLhwN9O+tukAlrNpJg1SzDH4QW/URgNYgZTkjA4UkwJUgGXng+6DX1zLfmoymdXo17xh5zmRJ6Q42BWCfc2oJfdAr+Yv+AP9Cb7OJ3H/2JG1HNGz/84klThPVCc=);labelBackgroundColor=none;rounded=0;html=1;whiteSpace=wrap;fontStyle=2;fontFamily=GOST type B;align=center;fontSize=16;" parent="1" vertex="1">
          <mxGeometry x="654" y="548" width="40" height="32" as="geometry" />
        </mxCell>
        <mxCell id="eSxXKxZ22m-BICX9o1b3-258" style="vsdxID=132;edgeStyle=none;startArrow=none;endArrow=none;startSize=5;endSize=5;strokeWidth=2;spacingTop=0;spacingBottom=0;spacingLeft=0;spacingRight=0;verticalAlign=middle;html=1;labelBackgroundColor=#ffffff;rounded=0;align=center;fontFamily=GOST type B;" parent="1" edge="1">
          <mxGeometry x="-2" as="geometry">
            <Array as="points" />
            <mxPoint x="694" y="10" as="sourcePoint" />
            <mxPoint x="694" y="938" as="targetPoint" />
          </mxGeometry>
        </mxCell>
        <mxCell id="eSxXKxZ22m-BICX9o1b3-267" value="&lt;font style=&quot;color: rgb(0, 0, 0); direction: ltr; letter-spacing: 0px; line-height: 120%; opacity: 1;&quot;&gt;&lt;i style=&quot;&quot;&gt;&lt;font style=&quot;font-size: 19px;&quot;&gt;ЭВМ, гр. 150503&lt;/font&gt;&lt;br style=&quot;font-size: 16px;&quot;&gt;&lt;/i&gt;&lt;/font&gt;" style="verticalAlign=middle;align=center;vsdxID=45;fillColor=none;gradientColor=none;shape=stencil(nZBLDoAgDERP0z3SIyjew0SURgSD+Lu9kMZoXLhwN9O+tukAlrNpJg1SzDH4QW/URgNYgZTkjA4UkwJUgGXng+6DX1zLfmoymdXo17xh5zmRJ6Q42BWCfc2oJfdAr+Yv+AP9Cb7OJ3H/2JG1HNGz/84klThPVCc=);strokeColor=none;spacingTop=-1;spacingBottom=-1;spacingLeft=-1;spacingRight=-1;labelBackgroundColor=none;rounded=0;html=1;whiteSpace=wrap;fontFamily=GOST type B;fontSize=16;fontSource=https%3A%2F%2Fdrive.google.com%2Fuc%3Fexport%3Ddownload%26id%3D1UrnLVkHcLbHLojcf2ejICCGZ1GY9liKW;" parent="1" vertex="1">
          <mxGeometry x="615.5" y="1098" width="200" height="60" as="geometry" />
        </mxCell>
        <mxCell id="eSxXKxZ22m-BICX9o1b3-268" value="&lt;p style=&quot;margin: 0px; text-indent: 0px; direction: rtl; font-size: 29px;&quot;&gt;&lt;font style=&quot;font-size: 29px; color: rgb(0, 0, 0); direction: ltr; letter-spacing: 0px; line-height: 120%; opacity: 1;&quot;&gt;&lt;i&gt;ГУИР.&lt;/i&gt;&lt;/font&gt;&lt;font style=&quot;font-size: 29px; color: rgb(0, 0, 0); direction: ltr; letter-spacing: 0px; line-height: 120%; opacity: 1;&quot;&gt;&lt;i&gt;400201.304&lt;/i&gt;&amp;nbsp;&lt;i&gt;ПЭ3&lt;/i&gt;&lt;/font&gt;&lt;font style=&quot;font-size: 28px; color: rgb(0, 0, 0); direction: ltr; letter-spacing: 0px; line-height: 120%; opacity: 1;&quot;&gt;&lt;i&gt;&lt;br&gt;&lt;/i&gt;&lt;/font&gt;&lt;/p&gt;" style="verticalAlign=middle;align=center;vsdxID=222;fillColor=none;gradientColor=none;shape=stencil(nZBLDoAgDERP0z3SIyjew0SURgSD+Lu9kMZoXLhwN9O+tukAlrNpJg1SzDH4QW/URgNYgZTkjA4UkwJUgGXng+6DX1zLfmoymdXo17xh5zmRJ6Q42BWCfc2oJfdAr+Yv+AP9Cb7OJ3H/2JG1HNGz/84klThPVCc=);strokeColor=none;spacingTop=-1;spacingBottom=-1;spacingLeft=-1;spacingRight=-1;labelBackgroundColor=none;rounded=0;html=1;whiteSpace=wrap;fontFamily=GOST type B;fontSource=https%3A%2F%2Fdrive.google.com%2Fuc%3Fexport%3Ddownload%26id%3D1UrnLVkHcLbHLojcf2ejICCGZ1GY9liKW;" parent="1" vertex="1">
          <mxGeometry x="340.5" y="939" width="470" height="59.07" as="geometry" />
        </mxCell>
        <mxCell id="eSxXKxZ22m-BICX9o1b3-269" value="&lt;font color=&quot;#000000&quot; style=&quot;&quot;&gt;&lt;span style=&quot;font-size: 17px;&quot;&gt;Устройство эмуляции контроллера светодиодного экрана.&lt;/span&gt;&lt;br&gt;&lt;span style=&quot;font-size: 17px;&quot;&gt;Перечень элементов&lt;/span&gt;&lt;br&gt;&lt;/font&gt;" style="verticalAlign=middle;align=center;vsdxID=565;fillColor=none;gradientColor=none;shape=stencil(nZBLDoAgDERP0z3SIyjew0SURgSD+Lu9kMZoXLhwN9O+tukAlrNpJg1SzDH4QW/URgNYgZTkjA4UkwJUgGXng+6DX1zLfmoymdXo17xh5zmRJ6Q42BWCfc2oJfdAr+Yv+AP9Cb7OJ3H/2JG1HNGz/84klThPVCc=);strokeColor=none;spacingTop=-1;spacingBottom=-1;spacingLeft=-1;spacingRight=-1;labelBackgroundColor=none;rounded=0;html=1;whiteSpace=wrap;fontFamily=GOST type B;fontSize=19;fontSource=https%3A%2F%2Fdrive.google.com%2Fuc%3Fexport%3Ddownload%26id%3D1UrnLVkHcLbHLojcf2ejICCGZ1GY9liKW;" parent="1" vertex="1">
          <mxGeometry x="336.5" y="997" width="280" height="103.2" as="geometry" />
        </mxCell>
        <mxCell id="eSxXKxZ22m-BICX9o1b3-270" value="&lt;font style=&quot;font-size: 14px; color: rgb(0, 0, 0); direction: ltr; letter-spacing: 0px; line-height: 120%; opacity: 1;&quot;&gt;&lt;i style=&quot;font-size: 14px;&quot;&gt;Ефимчик&lt;br style=&quot;font-size: 14px;&quot;&gt;&lt;/i&gt;&lt;/font&gt;" style="verticalAlign=middle;align=left;vsdxID=236;fillColor=none;gradientColor=none;shape=stencil(nZBLDoAgDERP0z3SIyjew0SURgSD+Lu9kMZoXLhwN9O+tukAlrNpJg1SzDH4QW/URgNYgZTkjA4UkwJUgGXng+6DX1zLfmoymdXo17xh5zmRJ6Q42BWCfc2oJfdAr+Yv+AP9Cb7OJ3H/2JG1HNGz/84klThPVCc=);strokeColor=none;spacingTop=-1;spacingBottom=-1;spacingLeft=-1;spacingRight=0;labelBackgroundColor=none;rounded=0;html=1;whiteSpace=wrap;fontFamily=GOST type B;fontSource=https%3A%2F%2Fdrive.google.com%2Fuc%3Fexport%3Ddownload%26id%3D1UrnLVkHcLbHLojcf2ejICCGZ1GY9liKW;fontSize=14;spacing=0;" parent="1" vertex="1">
          <mxGeometry x="147.5" y="1040.1999999999998" width="90" height="16" as="geometry" />
        </mxCell>
        <mxCell id="eSxXKxZ22m-BICX9o1b3-271" value="&lt;font style=&quot;font-size: 14px; color: rgb(0, 0, 0); direction: ltr; letter-spacing: 0px; line-height: 120%; opacity: 1;&quot;&gt;&lt;i style=&quot;font-size: 14px;&quot;&gt;Воронов&lt;br style=&quot;font-size: 14px;&quot;&gt;&lt;/i&gt;&lt;/font&gt;" style="verticalAlign=middle;align=left;vsdxID=237;fillColor=none;gradientColor=none;shape=stencil(nZBLDoAgDERP0z3SIyjew0SURgSD+Lu9kMZoXLhwN9O+tukAlrNpJg1SzDH4QW/URgNYgZTkjA4UkwJUgGXng+6DX1zLfmoymdXo17xh5zmRJ6Q42BWCfc2oJfdAr+Yv+AP9Cb7OJ3H/2JG1HNGz/84klThPVCc=);strokeColor=none;spacingTop=-1;spacingBottom=-1;spacingLeft=-1;spacingRight=0;labelBackgroundColor=none;rounded=0;html=1;whiteSpace=wrap;fontFamily=GOST type B;fontSource=https%3A%2F%2Fdrive.google.com%2Fuc%3Fexport%3Ddownload%26id%3D1UrnLVkHcLbHLojcf2ejICCGZ1GY9liKW;fontSize=14;spacing=0;" parent="1" vertex="1">
          <mxGeometry x="147.5" y="1060.1999999999998" width="90" height="16" as="geometry" />
        </mxCell>
        <mxCell id="eSxXKxZ22m-BICX9o1b3-272" value="&lt;font style=&quot;font-size: 14px; color: rgb(0, 0, 0); direction: ltr; letter-spacing: 0px; line-height: 120%; opacity: 1;&quot;&gt;&lt;i style=&quot;font-size: 14px;&quot;&gt;Разраб.&lt;br style=&quot;font-size: 14px;&quot;&gt;&lt;/i&gt;&lt;/font&gt;" style="verticalAlign=middle;align=left;vsdxID=236;fillColor=none;gradientColor=none;shape=stencil(nZBLDoAgDERP0z3SIyjew0SURgSD+Lu9kMZoXLhwN9O+tukAlrNpJg1SzDH4QW/URgNYgZTkjA4UkwJUgGXng+6DX1zLfmoymdXo17xh5zmRJ6Q42BWCfc2oJfdAr+Yv+AP9Cb7OJ3H/2JG1HNGz/84klThPVCc=);strokeColor=none;spacingTop=-1;spacingBottom=-1;spacingLeft=-1;spacingRight=0;labelBackgroundColor=none;rounded=0;html=1;whiteSpace=wrap;fontFamily=GOST type B;fontSource=https%3A%2F%2Fdrive.google.com%2Fuc%3Fexport%3Ddownload%26id%3D1UrnLVkHcLbHLojcf2ejICCGZ1GY9liKW;fontSize=14;spacing=0;" parent="1" vertex="1">
          <mxGeometry x="79.5" y="1040" width="62" height="16" as="geometry" />
        </mxCell>
        <mxCell id="eSxXKxZ22m-BICX9o1b3-273" value="&lt;font style=&quot;font-size: 14px; color: rgb(0, 0, 0); direction: ltr; letter-spacing: 0px; line-height: 120%; opacity: 1;&quot;&gt;&lt;i style=&quot;font-size: 14px;&quot;&gt;Пров.&lt;br style=&quot;font-size: 14px;&quot;&gt;&lt;/i&gt;&lt;/font&gt;" style="verticalAlign=middle;align=left;vsdxID=237;fillColor=none;gradientColor=none;shape=stencil(nZBLDoAgDERP0z3SIyjew0SURgSD+Lu9kMZoXLhwN9O+tukAlrNpJg1SzDH4QW/URgNYgZTkjA4UkwJUgGXng+6DX1zLfmoymdXo17xh5zmRJ6Q42BWCfc2oJfdAr+Yv+AP9Cb7OJ3H/2JG1HNGz/84klThPVCc=);strokeColor=none;spacingTop=-1;spacingBottom=-1;spacingLeft=-1;spacingRight=0;labelBackgroundColor=none;rounded=0;html=1;whiteSpace=wrap;fontFamily=GOST type B;fontSource=https%3A%2F%2Fdrive.google.com%2Fuc%3Fexport%3Ddownload%26id%3D1UrnLVkHcLbHLojcf2ejICCGZ1GY9liKW;fontSize=14;spacing=0;" parent="1" vertex="1">
          <mxGeometry x="79.5" y="1060" width="62" height="16" as="geometry" />
        </mxCell>
        <mxCell id="q0BEH1OUKKpmgp1tIkAP-5" style="vsdxID=80;fillColor=none;gradientColor=none;shape=stencil(nZBLDoAgDERP0z3SIyjew0SURgSD+Lu9kMZoXLhwN9O+tukAlrNpJg1SzDH4QW/URgNYgZTkjA4UkwJUgGXng+6DX1zLfmoymdXo17xh5zmRJ6Q42BWCfc2oJfdAr+Yv+AP9Cb7OJ3H/2JG1HNGz/84klThPVCc=);labelBackgroundColor=none;rounded=0;html=1;whiteSpace=wrap;fontStyle=2;fontFamily=GOST type B;align=center;fontSize=16;spacingLeft=0;" parent="1" vertex="1">
          <mxGeometry x="74.5" y="262" width="120" height="32" as="geometry" />
        </mxCell>
        <mxCell id="q0BEH1OUKKpmgp1tIkAP-6" style="vsdxID=82;fillColor=none;gradientColor=none;shape=stencil(nZBLDoAgDERP0z3SIyjew0SURgSD+Lu9kMZoXLhwN9O+tukAlrNpJg1SzDH4QW/URgNYgZTkjA4UkwJUgGXng+6DX1zLfmoymdXo17xh5zmRJ6Q42BWCfc2oJfdAr+Yv+AP9Cb7OJ3H/2JG1HNGz/84klThPVCc=);labelBackgroundColor=none;rounded=0;html=1;whiteSpace=wrap;fontStyle=2;fontFamily=GOST type B;align=center;fontSize=16;" parent="1" vertex="1">
          <mxGeometry x="694.5" y="262" width="120" height="32" as="geometry" />
        </mxCell>
        <mxCell id="q0BEH1OUKKpmgp1tIkAP-7" value="" style="vsdxID=93;fillColor=none;gradientColor=none;shape=stencil(nZBLDoAgDERP0z3SIyjew0SURgSD+Lu9kMZoXLhwN9O+tukAlrNpJg1SzDH4QW/URgNYgZTkjA4UkwJUgGXng+6DX1zLfmoymdXo17xh5zmRJ6Q42BWCfc2oJfdAr+Yv+AP9Cb7OJ3H/2JG1HNGz/84klThPVCc=);labelBackgroundColor=none;rounded=0;html=1;whiteSpace=wrap;align=left;spacingLeft=4;fontStyle=2;fontFamily=GOST type B;fontSize=16;" parent="1" vertex="1">
          <mxGeometry x="194.5" y="262" width="460" height="32" as="geometry" />
        </mxCell>
        <mxCell id="q0BEH1OUKKpmgp1tIkAP-8" style="vsdxID=82;fillColor=none;gradientColor=none;shape=stencil(nZBLDoAgDERP0z3SIyjew0SURgSD+Lu9kMZoXLhwN9O+tukAlrNpJg1SzDH4QW/URgNYgZTkjA4UkwJUgGXng+6DX1zLfmoymdXo17xh5zmRJ6Q42BWCfc2oJfdAr+Yv+AP9Cb7OJ3H/2JG1HNGz/84klThPVCc=);labelBackgroundColor=none;rounded=0;html=1;whiteSpace=wrap;fontStyle=2;fontFamily=GOST type B;align=center;fontSize=16;" parent="1" vertex="1">
          <mxGeometry x="653.5" y="262" width="40" height="32" as="geometry" />
        </mxCell>
        <mxCell id="q0BEH1OUKKpmgp1tIkAP-9" style="vsdxID=80;fillColor=none;gradientColor=none;shape=stencil(nZBLDoAgDERP0z3SIyjew0SURgSD+Lu9kMZoXLhwN9O+tukAlrNpJg1SzDH4QW/URgNYgZTkjA4UkwJUgGXng+6DX1zLfmoymdXo17xh5zmRJ6Q42BWCfc2oJfdAr+Yv+AP9Cb7OJ3H/2JG1HNGz/84klThPVCc=);labelBackgroundColor=none;rounded=0;html=1;whiteSpace=wrap;fontStyle=2;fontFamily=GOST type B;align=center;fontSize=16;spacingLeft=0;" parent="1" vertex="1">
          <mxGeometry x="74.5" y="230" width="120" height="32" as="geometry" />
        </mxCell>
        <mxCell id="q0BEH1OUKKpmgp1tIkAP-10" style="vsdxID=82;fillColor=none;gradientColor=none;shape=stencil(nZBLDoAgDERP0z3SIyjew0SURgSD+Lu9kMZoXLhwN9O+tukAlrNpJg1SzDH4QW/URgNYgZTkjA4UkwJUgGXng+6DX1zLfmoymdXo17xh5zmRJ6Q42BWCfc2oJfdAr+Yv+AP9Cb7OJ3H/2JG1HNGz/84klThPVCc=);labelBackgroundColor=none;rounded=0;html=1;whiteSpace=wrap;fontStyle=2;fontFamily=GOST type B;align=center;fontSize=16;" parent="1" vertex="1">
          <mxGeometry x="694.5" y="230" width="120" height="32" as="geometry" />
        </mxCell>
        <mxCell id="q0BEH1OUKKpmgp1tIkAP-11" value="" style="vsdxID=93;fillColor=none;gradientColor=none;shape=stencil(nZBLDoAgDERP0z3SIyjew0SURgSD+Lu9kMZoXLhwN9O+tukAlrNpJg1SzDH4QW/URgNYgZTkjA4UkwJUgGXng+6DX1zLfmoymdXo17xh5zmRJ6Q42BWCfc2oJfdAr+Yv+AP9Cb7OJ3H/2JG1HNGz/84klThPVCc=);labelBackgroundColor=none;rounded=0;html=1;whiteSpace=wrap;align=left;spacingLeft=4;fontStyle=2;fontFamily=GOST type B;fontSize=16;" parent="1" vertex="1">
          <mxGeometry x="194.5" y="230" width="460" height="32" as="geometry" />
        </mxCell>
        <mxCell id="q0BEH1OUKKpmgp1tIkAP-12" style="vsdxID=82;fillColor=none;gradientColor=none;shape=stencil(nZBLDoAgDERP0z3SIyjew0SURgSD+Lu9kMZoXLhwN9O+tukAlrNpJg1SzDH4QW/URgNYgZTkjA4UkwJUgGXng+6DX1zLfmoymdXo17xh5zmRJ6Q42BWCfc2oJfdAr+Yv+AP9Cb7OJ3H/2JG1HNGz/84klThPVCc=);labelBackgroundColor=none;rounded=0;html=1;whiteSpace=wrap;fontStyle=2;fontFamily=GOST type B;align=center;fontSize=16;" parent="1" vertex="1">
          <mxGeometry x="653.5" y="230" width="40" height="32" as="geometry" />
        </mxCell>
        <mxCell id="q0BEH1OUKKpmgp1tIkAP-27" value="&lt;font style=&quot;font-size: 16px ; color: rgb(0 , 0 , 0) ; direction: ltr ; letter-spacing: 0px ; line-height: 120% ; opacity: 1&quot;&gt;&lt;span style=&quot;font-size: 16px&quot;&gt;DD3&lt;br style=&quot;font-size: 16px&quot;&gt;&lt;/span&gt;&lt;/font&gt;" style="verticalAlign=middle;align=center;vsdxID=65;fillColor=none;gradientColor=none;shape=stencil(nZBLDoAgDERP0z3SIyjew0SURgSD+Lu9kMZoXLhwN9O+tukAlrNpJg1SzDH4QW/URgNYgZTkjA4UkwJUgGXng+6DX1zLfmoymdXo17xh5zmRJ6Q42BWCfc2oJfdAr+Yv+AP9Cb7OJ3H/2JG1HNGz/84klThPVCc=);labelBackgroundColor=none;rounded=0;html=1;whiteSpace=wrap;fontStyle=2;fontFamily=GOST type B;fontSize=16;spacingLeft=0;" parent="1" vertex="1">
          <mxGeometry x="75" y="230" width="120" height="32" as="geometry" />
        </mxCell>
        <mxCell id="q0BEH1OUKKpmgp1tIkAP-28" value="&lt;font style=&quot;direction: ltr; line-height: 120%; opacity: 1;&quot;&gt;TXS0104EPWR&amp;nbsp;/ TSOP-14&lt;br style=&quot;font-size: 16px&quot;&gt;&lt;/font&gt;" style="verticalAlign=middle;align=left;vsdxID=66;fillColor=none;gradientColor=none;shape=stencil(nZBLDoAgDERP0z3SIyjew0SURgSD+Lu9kMZoXLhwN9O+tukAlrNpJg1SzDH4QW/URgNYgZTkjA4UkwJUgGXng+6DX1zLfmoymdXo17xh5zmRJ6Q42BWCfc2oJfdAr+Yv+AP9Cb7OJ3H/2JG1HNGz/84klThPVCc=);labelBackgroundColor=none;rounded=0;html=1;whiteSpace=wrap;fontFamily=GOST type B;fontStyle=2;fontSize=16;spacingLeft=4;" parent="1" vertex="1">
          <mxGeometry x="195" y="230" width="460" height="32" as="geometry" />
        </mxCell>
        <mxCell id="q0BEH1OUKKpmgp1tIkAP-29" value="&lt;font style=&quot;direction: ltr; line-height: 120%; opacity: 1;&quot;&gt;Texas&lt;br style=&quot;font-size: 16px&quot;&gt;&lt;/font&gt;" style="verticalAlign=middle;align=center;vsdxID=67;fillColor=none;gradientColor=none;shape=stencil(nZBLDoAgDERP0z3SIyjew0SURgSD+Lu9kMZoXLhwN9O+tukAlrNpJg1SzDH4QW/URgNYgZTkjA4UkwJUgGXng+6DX1zLfmoymdXo17xh5zmRJ6Q42BWCfc2oJfdAr+Yv+AP9Cb7OJ3H/2JG1HNGz/84klThPVCc=);labelBackgroundColor=none;rounded=0;html=1;whiteSpace=wrap;fontStyle=2;fontFamily=GOST type B;fontSize=16;" parent="1" vertex="1">
          <mxGeometry x="694.5" y="230" width="120" height="32" as="geometry" />
        </mxCell>
        <mxCell id="q0BEH1OUKKpmgp1tIkAP-30" value="&lt;font style=&quot;direction: ltr; line-height: 120%; opacity: 1;&quot;&gt;Instruments&lt;br style=&quot;font-size: 16px&quot;&gt;&lt;/font&gt;" style="verticalAlign=middle;align=center;vsdxID=67;fillColor=none;gradientColor=none;shape=stencil(nZBLDoAgDERP0z3SIyjew0SURgSD+Lu9kMZoXLhwN9O+tukAlrNpJg1SzDH4QW/URgNYgZTkjA4UkwJUgGXng+6DX1zLfmoymdXo17xh5zmRJ6Q42BWCfc2oJfdAr+Yv+AP9Cb7OJ3H/2JG1HNGz/84klThPVCc=);labelBackgroundColor=none;rounded=0;html=1;whiteSpace=wrap;fontStyle=2;fontFamily=GOST type B;fontSize=16;" parent="1" vertex="1">
          <mxGeometry x="694.5" y="262" width="120" height="32" as="geometry" />
        </mxCell>
        <mxCell id="q0BEH1OUKKpmgp1tIkAP-31" value="&lt;font style=&quot;font-size: 16px ; color: rgb(0 , 0 , 0) ; direction: ltr ; letter-spacing: 0px ; line-height: 120% ; opacity: 1&quot;&gt;&lt;span style=&quot;font-size: 16px&quot;&gt;1&lt;br style=&quot;font-size: 16px&quot;&gt;&lt;/span&gt;&lt;/font&gt;" style="verticalAlign=middle;align=center;vsdxID=67;fillColor=none;gradientColor=none;shape=stencil(nZBLDoAgDERP0z3SIyjew0SURgSD+Lu9kMZoXLhwN9O+tukAlrNpJg1SzDH4QW/URgNYgZTkjA4UkwJUgGXng+6DX1zLfmoymdXo17xh5zmRJ6Q42BWCfc2oJfdAr+Yv+AP9Cb7OJ3H/2JG1HNGz/84klThPVCc=);labelBackgroundColor=none;rounded=0;html=1;whiteSpace=wrap;fontStyle=2;fontFamily=GOST type B;fontSize=16;" parent="1" vertex="1">
          <mxGeometry x="654" y="230" width="40" height="32" as="geometry" />
        </mxCell>
        <mxCell id="q0BEH1OUKKpmgp1tIkAP-32" style="vsdxID=124;fillColor=none;gradientColor=none;shape=stencil(nZBLDoAgDERP0z3SIyjew0SURgSD+Lu9kMZoXLhwN9O+tukAlrNpJg1SzDH4QW/URgNYgZTkjA4UkwJUgGXng+6DX1zLfmoymdXo17xh5zmRJ6Q42BWCfc2oJfdAr+Yv+AP9Cb7OJ3H/2JG1HNGz/84klThPVCc=);labelBackgroundColor=none;rounded=0;html=1;whiteSpace=wrap;fontStyle=2;fontFamily=GOST type B;align=center;fontSize=16;" parent="1" vertex="1">
          <mxGeometry x="694.75" y="1240" width="120" height="32" as="geometry" />
        </mxCell>
        <mxCell id="BjnJAf6nKQtCIKFPQToR-1" value="С2" style="vsdxID=86;fillColor=none;gradientColor=none;shape=stencil(nZBLDoAgDERP0z3SIyjew0SURgSD+Lu9kMZoXLhwN9O+tukAlrNpJg1SzDH4QW/URgNYgZTkjA4UkwJUgGXng+6DX1zLfmoymdXo17xh5zmRJ6Q42BWCfc2oJfdAr+Yv+AP9Cb7OJ3H/2JG1HNGz/84klThPVCc=);labelBackgroundColor=none;rounded=0;html=1;whiteSpace=wrap;fontStyle=2;fontFamily=GOST type B;align=center;fontSize=16;spacingLeft=0;" parent="1" vertex="1">
          <mxGeometry x="75.5" y="388" width="120" height="32" as="geometry" />
        </mxCell>
        <mxCell id="BjnJAf6nKQtCIKFPQToR-2" value="GRM21BR71H104K, 10 пФ, 5В" style="vsdxID=87;fillColor=none;gradientColor=none;shape=stencil(nZBLDoAgDERP0z3SIyjew0SURgSD+Lu9kMZoXLhwN9O+tukAlrNpJg1SzDH4QW/URgNYgZTkjA4UkwJUgGXng+6DX1zLfmoymdXo17xh5zmRJ6Q42BWCfc2oJfdAr+Yv+AP9Cb7OJ3H/2JG1HNGz/84klThPVCc=);labelBackgroundColor=none;rounded=0;html=1;whiteSpace=wrap;align=left;spacingLeft=4;fontStyle=2;fontFamily=GOST type B;fontSize=16;" parent="1" vertex="1">
          <mxGeometry x="195.5" y="388" width="460" height="32" as="geometry" />
        </mxCell>
        <mxCell id="BjnJAf6nKQtCIKFPQToR-3" value="Murata" style="vsdxID=88;fillColor=none;gradientColor=none;shape=stencil(nZBLDoAgDERP0z3SIyjew0SURgSD+Lu9kMZoXLhwN9O+tukAlrNpJg1SzDH4QW/URgNYgZTkjA4UkwJUgGXng+6DX1zLfmoymdXo17xh5zmRJ6Q42BWCfc2oJfdAr+Yv+AP9Cb7OJ3H/2JG1HNGz/84klThPVCc=);labelBackgroundColor=none;rounded=0;html=1;whiteSpace=wrap;fontStyle=2;fontFamily=GOST type B;align=center;fontSize=16;" parent="1" vertex="1">
          <mxGeometry x="694.5" y="388" width="120" height="32" as="geometry" />
        </mxCell>
        <mxCell id="BjnJAf6nKQtCIKFPQToR-4" value="1" style="vsdxID=88;fillColor=none;gradientColor=none;shape=stencil(nZBLDoAgDERP0z3SIyjew0SURgSD+Lu9kMZoXLhwN9O+tukAlrNpJg1SzDH4QW/URgNYgZTkjA4UkwJUgGXng+6DX1zLfmoymdXo17xh5zmRJ6Q42BWCfc2oJfdAr+Yv+AP9Cb7OJ3H/2JG1HNGz/84klThPVCc=);labelBackgroundColor=none;rounded=0;html=1;whiteSpace=wrap;fontStyle=2;fontFamily=GOST type B;align=center;fontSize=16;" parent="1" vertex="1">
          <mxGeometry x="654.5" y="388" width="40" height="32" as="geometry" />
        </mxCell>
        <mxCell id="BjnJAf6nKQtCIKFPQToR-5" value="C9,C16" style="vsdxID=86;fillColor=none;gradientColor=none;shape=stencil(nZBLDoAgDERP0z3SIyjew0SURgSD+Lu9kMZoXLhwN9O+tukAlrNpJg1SzDH4QW/URgNYgZTkjA4UkwJUgGXng+6DX1zLfmoymdXo17xh5zmRJ6Q42BWCfc2oJfdAr+Yv+AP9Cb7OJ3H/2JG1HNGz/84klThPVCc=);labelBackgroundColor=none;rounded=0;html=1;whiteSpace=wrap;fontStyle=2;fontFamily=GOST type B;align=center;fontSize=16;spacingLeft=0;" parent="1" vertex="1">
          <mxGeometry x="75" y="420" width="120" height="32" as="geometry" />
        </mxCell>
        <mxCell id="BjnJAf6nKQtCIKFPQToR-6" value="GRM21BR71H104K, 100 нФ, 16В" style="vsdxID=87;fillColor=none;gradientColor=none;shape=stencil(nZBLDoAgDERP0z3SIyjew0SURgSD+Lu9kMZoXLhwN9O+tukAlrNpJg1SzDH4QW/URgNYgZTkjA4UkwJUgGXng+6DX1zLfmoymdXo17xh5zmRJ6Q42BWCfc2oJfdAr+Yv+AP9Cb7OJ3H/2JG1HNGz/84klThPVCc=);labelBackgroundColor=none;rounded=0;html=1;whiteSpace=wrap;align=left;spacingLeft=4;fontStyle=2;fontFamily=GOST type B;fontSize=16;" parent="1" vertex="1">
          <mxGeometry x="195" y="420" width="460" height="32" as="geometry" />
        </mxCell>
        <mxCell id="BjnJAf6nKQtCIKFPQToR-7" value="Murata" style="vsdxID=88;fillColor=none;gradientColor=none;shape=stencil(nZBLDoAgDERP0z3SIyjew0SURgSD+Lu9kMZoXLhwN9O+tukAlrNpJg1SzDH4QW/URgNYgZTkjA4UkwJUgGXng+6DX1zLfmoymdXo17xh5zmRJ6Q42BWCfc2oJfdAr+Yv+AP9Cb7OJ3H/2JG1HNGz/84klThPVCc=);labelBackgroundColor=none;rounded=0;html=1;whiteSpace=wrap;fontStyle=2;fontFamily=GOST type B;align=center;fontSize=16;" parent="1" vertex="1">
          <mxGeometry x="694.5" y="420" width="120" height="32" as="geometry" />
        </mxCell>
        <mxCell id="BjnJAf6nKQtCIKFPQToR-8" value="2" style="vsdxID=88;fillColor=none;gradientColor=none;shape=stencil(nZBLDoAgDERP0z3SIyjew0SURgSD+Lu9kMZoXLhwN9O+tukAlrNpJg1SzDH4QW/URgNYgZTkjA4UkwJUgGXng+6DX1zLfmoymdXo17xh5zmRJ6Q42BWCfc2oJfdAr+Yv+AP9Cb7OJ3H/2JG1HNGz/84klThPVCc=);labelBackgroundColor=none;rounded=0;html=1;whiteSpace=wrap;fontStyle=2;fontFamily=GOST type B;align=center;fontSize=16;" parent="1" vertex="1">
          <mxGeometry x="654" y="420" width="40" height="32" as="geometry" />
        </mxCell>
        <mxCell id="BjnJAf6nKQtCIKFPQToR-9" value="С10" style="vsdxID=86;fillColor=none;gradientColor=none;shape=stencil(nZBLDoAgDERP0z3SIyjew0SURgSD+Lu9kMZoXLhwN9O+tukAlrNpJg1SzDH4QW/URgNYgZTkjA4UkwJUgGXng+6DX1zLfmoymdXo17xh5zmRJ6Q42BWCfc2oJfdAr+Yv+AP9Cb7OJ3H/2JG1HNGz/84klThPVCc=);labelBackgroundColor=none;rounded=0;html=1;whiteSpace=wrap;fontStyle=2;fontFamily=GOST type B;align=center;fontSize=16;spacingLeft=0;" parent="1" vertex="1">
          <mxGeometry x="75" y="452" width="120" height="32" as="geometry" />
        </mxCell>
        <mxCell id="BjnJAf6nKQtCIKFPQToR-10" value="GRM21BR71H104K, 2.2 мкФ, 5В" style="vsdxID=87;fillColor=none;gradientColor=none;shape=stencil(nZBLDoAgDERP0z3SIyjew0SURgSD+Lu9kMZoXLhwN9O+tukAlrNpJg1SzDH4QW/URgNYgZTkjA4UkwJUgGXng+6DX1zLfmoymdXo17xh5zmRJ6Q42BWCfc2oJfdAr+Yv+AP9Cb7OJ3H/2JG1HNGz/84klThPVCc=);labelBackgroundColor=none;rounded=0;html=1;whiteSpace=wrap;align=left;spacingLeft=4;fontStyle=2;fontFamily=GOST type B;fontSize=16;" parent="1" vertex="1">
          <mxGeometry x="195" y="452" width="460" height="32" as="geometry" />
        </mxCell>
        <mxCell id="BjnJAf6nKQtCIKFPQToR-11" value="Murata" style="vsdxID=88;fillColor=none;gradientColor=none;shape=stencil(nZBLDoAgDERP0z3SIyjew0SURgSD+Lu9kMZoXLhwN9O+tukAlrNpJg1SzDH4QW/URgNYgZTkjA4UkwJUgGXng+6DX1zLfmoymdXo17xh5zmRJ6Q42BWCfc2oJfdAr+Yv+AP9Cb7OJ3H/2JG1HNGz/84klThPVCc=);labelBackgroundColor=none;rounded=0;html=1;whiteSpace=wrap;fontStyle=2;fontFamily=GOST type B;align=center;fontSize=16;" parent="1" vertex="1">
          <mxGeometry x="694.5" y="452" width="120" height="32" as="geometry" />
        </mxCell>
        <mxCell id="BjnJAf6nKQtCIKFPQToR-12" value="1" style="vsdxID=88;fillColor=none;gradientColor=none;shape=stencil(nZBLDoAgDERP0z3SIyjew0SURgSD+Lu9kMZoXLhwN9O+tukAlrNpJg1SzDH4QW/URgNYgZTkjA4UkwJUgGXng+6DX1zLfmoymdXo17xh5zmRJ6Q42BWCfc2oJfdAr+Yv+AP9Cb7OJ3H/2JG1HNGz/84klThPVCc=);labelBackgroundColor=none;rounded=0;html=1;whiteSpace=wrap;fontStyle=2;fontFamily=GOST type B;align=center;fontSize=16;" parent="1" vertex="1">
          <mxGeometry x="654" y="452" width="40" height="32" as="geometry" />
        </mxCell>
        <mxCell id="BjnJAf6nKQtCIKFPQToR-13" value="&lt;font style=&quot;font-size: 15px;&quot;&gt;С11..С13,C15,C17,C19&lt;/font&gt;" style="vsdxID=86;fillColor=none;gradientColor=none;shape=stencil(nZBLDoAgDERP0z3SIyjew0SURgSD+Lu9kMZoXLhwN9O+tukAlrNpJg1SzDH4QW/URgNYgZTkjA4UkwJUgGXng+6DX1zLfmoymdXo17xh5zmRJ6Q42BWCfc2oJfdAr+Yv+AP9Cb7OJ3H/2JG1HNGz/84klThPVCc=);labelBackgroundColor=none;rounded=0;html=1;whiteSpace=wrap;fontStyle=2;fontFamily=GOST type B;align=center;fontSize=16;spacingLeft=0;" parent="1" vertex="1">
          <mxGeometry x="75" y="484" width="120" height="32" as="geometry" />
        </mxCell>
        <mxCell id="BjnJAf6nKQtCIKFPQToR-14" value="GRM21BR71H104K, 100 нФ, 5В" style="vsdxID=87;fillColor=none;gradientColor=none;shape=stencil(nZBLDoAgDERP0z3SIyjew0SURgSD+Lu9kMZoXLhwN9O+tukAlrNpJg1SzDH4QW/URgNYgZTkjA4UkwJUgGXng+6DX1zLfmoymdXo17xh5zmRJ6Q42BWCfc2oJfdAr+Yv+AP9Cb7OJ3H/2JG1HNGz/84klThPVCc=);labelBackgroundColor=none;rounded=0;html=1;whiteSpace=wrap;align=left;spacingLeft=4;fontStyle=2;fontFamily=GOST type B;fontSize=16;" parent="1" vertex="1">
          <mxGeometry x="195" y="484" width="460" height="32" as="geometry" />
        </mxCell>
        <mxCell id="BjnJAf6nKQtCIKFPQToR-15" value="Murata" style="vsdxID=88;fillColor=none;gradientColor=none;shape=stencil(nZBLDoAgDERP0z3SIyjew0SURgSD+Lu9kMZoXLhwN9O+tukAlrNpJg1SzDH4QW/URgNYgZTkjA4UkwJUgGXng+6DX1zLfmoymdXo17xh5zmRJ6Q42BWCfc2oJfdAr+Yv+AP9Cb7OJ3H/2JG1HNGz/84klThPVCc=);labelBackgroundColor=none;rounded=0;html=1;whiteSpace=wrap;fontStyle=2;fontFamily=GOST type B;align=center;fontSize=16;" parent="1" vertex="1">
          <mxGeometry x="694.5" y="484" width="120" height="32" as="geometry" />
        </mxCell>
        <mxCell id="BjnJAf6nKQtCIKFPQToR-16" value="6" style="vsdxID=88;fillColor=none;gradientColor=none;shape=stencil(nZBLDoAgDERP0z3SIyjew0SURgSD+Lu9kMZoXLhwN9O+tukAlrNpJg1SzDH4QW/URgNYgZTkjA4UkwJUgGXng+6DX1zLfmoymdXo17xh5zmRJ6Q42BWCfc2oJfdAr+Yv+AP9Cb7OJ3H/2JG1HNGz/84klThPVCc=);labelBackgroundColor=none;rounded=0;html=1;whiteSpace=wrap;fontStyle=2;fontFamily=GOST type B;align=center;fontSize=16;" parent="1" vertex="1">
          <mxGeometry x="654" y="484" width="40" height="32" as="geometry" />
        </mxCell>
        <mxCell id="BjnJAf6nKQtCIKFPQToR-17" value="С14,С18,С20" style="vsdxID=86;fillColor=none;gradientColor=none;shape=stencil(nZBLDoAgDERP0z3SIyjew0SURgSD+Lu9kMZoXLhwN9O+tukAlrNpJg1SzDH4QW/URgNYgZTkjA4UkwJUgGXng+6DX1zLfmoymdXo17xh5zmRJ6Q42BWCfc2oJfdAr+Yv+AP9Cb7OJ3H/2JG1HNGz/84klThPVCc=);labelBackgroundColor=none;rounded=0;html=1;whiteSpace=wrap;fontStyle=2;fontFamily=GOST type B;align=center;fontSize=16;spacingLeft=0;" parent="1" vertex="1">
          <mxGeometry x="75" y="516" width="120" height="32" as="geometry" />
        </mxCell>
        <mxCell id="BjnJAf6nKQtCIKFPQToR-18" value="GRM21BR71H104K, 100 мкФ, 5В" style="vsdxID=87;fillColor=none;gradientColor=none;shape=stencil(nZBLDoAgDERP0z3SIyjew0SURgSD+Lu9kMZoXLhwN9O+tukAlrNpJg1SzDH4QW/URgNYgZTkjA4UkwJUgGXng+6DX1zLfmoymdXo17xh5zmRJ6Q42BWCfc2oJfdAr+Yv+AP9Cb7OJ3H/2JG1HNGz/84klThPVCc=);labelBackgroundColor=none;rounded=0;html=1;whiteSpace=wrap;align=left;spacingLeft=4;fontStyle=2;fontFamily=GOST type B;fontSize=16;" parent="1" vertex="1">
          <mxGeometry x="195" y="516" width="460" height="32" as="geometry" />
        </mxCell>
        <mxCell id="BjnJAf6nKQtCIKFPQToR-19" value="Murata" style="vsdxID=88;fillColor=none;gradientColor=none;shape=stencil(nZBLDoAgDERP0z3SIyjew0SURgSD+Lu9kMZoXLhwN9O+tukAlrNpJg1SzDH4QW/URgNYgZTkjA4UkwJUgGXng+6DX1zLfmoymdXo17xh5zmRJ6Q42BWCfc2oJfdAr+Yv+AP9Cb7OJ3H/2JG1HNGz/84klThPVCc=);labelBackgroundColor=none;rounded=0;html=1;whiteSpace=wrap;fontStyle=2;fontFamily=GOST type B;align=center;fontSize=16;" parent="1" vertex="1">
          <mxGeometry x="694.5" y="516" width="120" height="32" as="geometry" />
        </mxCell>
        <mxCell id="BjnJAf6nKQtCIKFPQToR-20" value="3" style="vsdxID=88;fillColor=none;gradientColor=none;shape=stencil(nZBLDoAgDERP0z3SIyjew0SURgSD+Lu9kMZoXLhwN9O+tukAlrNpJg1SzDH4QW/URgNYgZTkjA4UkwJUgGXng+6DX1zLfmoymdXo17xh5zmRJ6Q42BWCfc2oJfdAr+Yv+AP9Cb7OJ3H/2JG1HNGz/84klThPVCc=);labelBackgroundColor=none;rounded=0;html=1;whiteSpace=wrap;fontStyle=2;fontFamily=GOST type B;align=center;fontSize=16;" parent="1" vertex="1">
          <mxGeometry x="654" y="516" width="40" height="32" as="geometry" />
        </mxCell>
        <mxCell id="BjnJAf6nKQtCIKFPQToR-29" value="&lt;span style=&quot;font-size: 16px;&quot;&gt;R2&lt;/span&gt;" style="vsdxID=104;fillColor=none;gradientColor=none;shape=stencil(nZBLDoAgDERP0z3SIyjew0SURgSD+Lu9kMZoXLhwN9O+tukAlrNpJg1SzDH4QW/URgNYgZTkjA4UkwJUgGXng+6DX1zLfmoymdXo17xh5zmRJ6Q42BWCfc2oJfdAr+Yv+AP9Cb7OJ3H/2JG1HNGz/84klThPVCc=);labelBackgroundColor=none;rounded=0;html=1;whiteSpace=wrap;fontStyle=2;fontFamily=GOST type B;align=center;fontSize=14;spacingLeft=0;" parent="1" vertex="1">
          <mxGeometry x="75.5" y="645" width="120" height="32" as="geometry" />
        </mxCell>
        <mxCell id="BjnJAf6nKQtCIKFPQToR-30" value="CF-0, 0 Ом" style="vsdxID=105;fillColor=none;gradientColor=none;shape=stencil(nZBLDoAgDERP0z3SIyjew0SURgSD+Lu9kMZoXLhwN9O+tukAlrNpJg1SzDH4QW/URgNYgZTkjA4UkwJUgGXng+6DX1zLfmoymdXo17xh5zmRJ6Q42BWCfc2oJfdAr+Yv+AP9Cb7OJ3H/2JG1HNGz/84klThPVCc=);labelBackgroundColor=none;rounded=0;html=1;whiteSpace=wrap;fontStyle=2;fontFamily=GOST type B;align=left;fontSize=16;spacingLeft=4;" parent="1" vertex="1">
          <mxGeometry x="195.5" y="645" width="460" height="32" as="geometry" />
        </mxCell>
        <mxCell id="BjnJAf6nKQtCIKFPQToR-31" style="vsdxID=106;fillColor=none;gradientColor=none;shape=stencil(nZBLDoAgDERP0z3SIyjew0SURgSD+Lu9kMZoXLhwN9O+tukAlrNpJg1SzDH4QW/URgNYgZTkjA4UkwJUgGXng+6DX1zLfmoymdXo17xh5zmRJ6Q42BWCfc2oJfdAr+Yv+AP9Cb7OJ3H/2JG1HNGz/84klThPVCc=);labelBackgroundColor=none;rounded=0;html=1;whiteSpace=wrap;fontStyle=2;fontFamily=GOST type B;align=center;fontSize=16;" parent="1" vertex="1">
          <mxGeometry x="694.5" y="645" width="120" height="32" as="geometry" />
        </mxCell>
        <mxCell id="BjnJAf6nKQtCIKFPQToR-32" value="1" style="vsdxID=106;fillColor=none;gradientColor=none;shape=stencil(nZBLDoAgDERP0z3SIyjew0SURgSD+Lu9kMZoXLhwN9O+tukAlrNpJg1SzDH4QW/URgNYgZTkjA4UkwJUgGXng+6DX1zLfmoymdXo17xh5zmRJ6Q42BWCfc2oJfdAr+Yv+AP9Cb7OJ3H/2JG1HNGz/84klThPVCc=);labelBackgroundColor=none;rounded=0;html=1;whiteSpace=wrap;fontStyle=2;fontFamily=GOST type B;align=center;fontSize=16;" parent="1" vertex="1">
          <mxGeometry x="654.5" y="645" width="40" height="32" as="geometry" />
        </mxCell>
        <mxCell id="BjnJAf6nKQtCIKFPQToR-37" value="&lt;span style=&quot;font-size: 16px;&quot;&gt;R4,R5&lt;/span&gt;" style="vsdxID=104;fillColor=none;gradientColor=none;shape=stencil(nZBLDoAgDERP0z3SIyjew0SURgSD+Lu9kMZoXLhwN9O+tukAlrNpJg1SzDH4QW/URgNYgZTkjA4UkwJUgGXng+6DX1zLfmoymdXo17xh5zmRJ6Q42BWCfc2oJfdAr+Yv+AP9Cb7OJ3H/2JG1HNGz/84klThPVCc=);labelBackgroundColor=none;rounded=0;html=1;whiteSpace=wrap;fontStyle=2;fontFamily=GOST type B;align=center;fontSize=14;spacingLeft=0;" parent="1" vertex="1">
          <mxGeometry x="75.5" y="677" width="120" height="32" as="geometry" />
        </mxCell>
        <mxCell id="BjnJAf6nKQtCIKFPQToR-38" value="CF-10000, 10 кОм" style="vsdxID=105;fillColor=none;gradientColor=none;shape=stencil(nZBLDoAgDERP0z3SIyjew0SURgSD+Lu9kMZoXLhwN9O+tukAlrNpJg1SzDH4QW/URgNYgZTkjA4UkwJUgGXng+6DX1zLfmoymdXo17xh5zmRJ6Q42BWCfc2oJfdAr+Yv+AP9Cb7OJ3H/2JG1HNGz/84klThPVCc=);labelBackgroundColor=none;rounded=0;html=1;whiteSpace=wrap;fontStyle=2;fontFamily=GOST type B;align=left;fontSize=16;spacingLeft=4;" parent="1" vertex="1">
          <mxGeometry x="195.5" y="677" width="460" height="32" as="geometry" />
        </mxCell>
        <mxCell id="BjnJAf6nKQtCIKFPQToR-39" style="vsdxID=106;fillColor=none;gradientColor=none;shape=stencil(nZBLDoAgDERP0z3SIyjew0SURgSD+Lu9kMZoXLhwN9O+tukAlrNpJg1SzDH4QW/URgNYgZTkjA4UkwJUgGXng+6DX1zLfmoymdXo17xh5zmRJ6Q42BWCfc2oJfdAr+Yv+AP9Cb7OJ3H/2JG1HNGz/84klThPVCc=);labelBackgroundColor=none;rounded=0;html=1;whiteSpace=wrap;fontStyle=2;fontFamily=GOST type B;align=center;fontSize=16;" parent="1" vertex="1">
          <mxGeometry x="694.5" y="677" width="120" height="32" as="geometry" />
        </mxCell>
        <mxCell id="BjnJAf6nKQtCIKFPQToR-40" value="2" style="vsdxID=106;fillColor=none;gradientColor=none;shape=stencil(nZBLDoAgDERP0z3SIyjew0SURgSD+Lu9kMZoXLhwN9O+tukAlrNpJg1SzDH4QW/URgNYgZTkjA4UkwJUgGXng+6DX1zLfmoymdXo17xh5zmRJ6Q42BWCfc2oJfdAr+Yv+AP9Cb7OJ3H/2JG1HNGz/84klThPVCc=);labelBackgroundColor=none;rounded=0;html=1;whiteSpace=wrap;fontStyle=2;fontFamily=GOST type B;align=center;fontSize=16;" parent="1" vertex="1">
          <mxGeometry x="654.5" y="677" width="40" height="32" as="geometry" />
        </mxCell>
        <mxCell id="BjnJAf6nKQtCIKFPQToR-41" value="&lt;span style=&quot;font-size: 16px;&quot;&gt;R7..R9,R12&lt;/span&gt;" style="vsdxID=104;fillColor=none;gradientColor=none;shape=stencil(nZBLDoAgDERP0z3SIyjew0SURgSD+Lu9kMZoXLhwN9O+tukAlrNpJg1SzDH4QW/URgNYgZTkjA4UkwJUgGXng+6DX1zLfmoymdXo17xh5zmRJ6Q42BWCfc2oJfdAr+Yv+AP9Cb7OJ3H/2JG1HNGz/84klThPVCc=);labelBackgroundColor=none;rounded=0;html=1;whiteSpace=wrap;fontStyle=2;fontFamily=GOST type B;align=center;fontSize=14;spacingLeft=0;" parent="1" vertex="1">
          <mxGeometry x="75.5" y="709" width="120" height="32" as="geometry" />
        </mxCell>
        <mxCell id="BjnJAf6nKQtCIKFPQToR-42" value="CF-500, 500 Ом" style="vsdxID=105;fillColor=none;gradientColor=none;shape=stencil(nZBLDoAgDERP0z3SIyjew0SURgSD+Lu9kMZoXLhwN9O+tukAlrNpJg1SzDH4QW/URgNYgZTkjA4UkwJUgGXng+6DX1zLfmoymdXo17xh5zmRJ6Q42BWCfc2oJfdAr+Yv+AP9Cb7OJ3H/2JG1HNGz/84klThPVCc=);labelBackgroundColor=none;rounded=0;html=1;whiteSpace=wrap;fontStyle=2;fontFamily=GOST type B;align=left;fontSize=16;spacingLeft=4;" parent="1" vertex="1">
          <mxGeometry x="195.5" y="709" width="460" height="32" as="geometry" />
        </mxCell>
        <mxCell id="BjnJAf6nKQtCIKFPQToR-43" style="vsdxID=106;fillColor=none;gradientColor=none;shape=stencil(nZBLDoAgDERP0z3SIyjew0SURgSD+Lu9kMZoXLhwN9O+tukAlrNpJg1SzDH4QW/URgNYgZTkjA4UkwJUgGXng+6DX1zLfmoymdXo17xh5zmRJ6Q42BWCfc2oJfdAr+Yv+AP9Cb7OJ3H/2JG1HNGz/84klThPVCc=);labelBackgroundColor=none;rounded=0;html=1;whiteSpace=wrap;fontStyle=2;fontFamily=GOST type B;align=center;fontSize=16;" parent="1" vertex="1">
          <mxGeometry x="694.5" y="709" width="120" height="32" as="geometry" />
        </mxCell>
        <mxCell id="BjnJAf6nKQtCIKFPQToR-44" value="4" style="vsdxID=106;fillColor=none;gradientColor=none;shape=stencil(nZBLDoAgDERP0z3SIyjew0SURgSD+Lu9kMZoXLhwN9O+tukAlrNpJg1SzDH4QW/URgNYgZTkjA4UkwJUgGXng+6DX1zLfmoymdXo17xh5zmRJ6Q42BWCfc2oJfdAr+Yv+AP9Cb7OJ3H/2JG1HNGz/84klThPVCc=);labelBackgroundColor=none;rounded=0;html=1;whiteSpace=wrap;fontStyle=2;fontFamily=GOST type B;align=center;fontSize=16;" parent="1" vertex="1">
          <mxGeometry x="654.5" y="709" width="40" height="32" as="geometry" />
        </mxCell>
        <mxCell id="BjnJAf6nKQtCIKFPQToR-46" value="Optosupply" style="vsdxID=127;fillColor=none;gradientColor=none;shape=stencil(nZBLDoAgDERP0z3SIyjew0SURgSD+Lu9kMZoXLhwN9O+tukAlrNpJg1SzDH4QW/URgNYgZTkjA4UkwJUgGXng+6DX1zLfmoymdXo17xh5zmRJ6Q42BWCfc2oJfdAr+Yv+AP9Cb7OJ3H/2JG1HNGz/84klThPVCc=);labelBackgroundColor=none;rounded=0;html=1;whiteSpace=wrap;fontStyle=2;fontFamily=GOST type B;align=center;fontSize=16;" parent="1" vertex="1">
          <mxGeometry x="694.75" y="1304" width="120" height="32" as="geometry" />
        </mxCell>
        <mxCell id="BjnJAf6nKQtCIKFPQToR-55" style="vsdxID=106;fillColor=none;gradientColor=none;shape=stencil(nZBLDoAgDERP0z3SIyjew0SURgSD+Lu9kMZoXLhwN9O+tukAlrNpJg1SzDH4QW/URgNYgZTkjA4UkwJUgGXng+6DX1zLfmoymdXo17xh5zmRJ6Q42BWCfc2oJfdAr+Yv+AP9Cb7OJ3H/2JG1HNGz/84klThPVCc=);labelBackgroundColor=none;rounded=0;html=1;whiteSpace=wrap;fontStyle=2;fontFamily=GOST type B;align=center;fontSize=16;" parent="1" vertex="1">
          <mxGeometry x="694.5" y="645" width="120" height="32" as="geometry" />
        </mxCell>
        <mxCell id="BjnJAf6nKQtCIKFPQToR-56" value="&lt;span&gt;ZQ1&lt;/span&gt;" style="vsdxID=128;fillColor=none;gradientColor=none;shape=stencil(nZBLDoAgDERP0z3SIyjew0SURgSD+Lu9kMZoXLhwN9O+tukAlrNpJg1SzDH4QW/URgNYgZTkjA4UkwJUgGXng+6DX1zLfmoymdXo17xh5zmRJ6Q42BWCfc2oJfdAr+Yv+AP9Cb7OJ3H/2JG1HNGz/84klThPVCc=);labelBackgroundColor=none;rounded=0;html=1;whiteSpace=wrap;fontStyle=2;fontFamily=GOST type B;align=center;fontSize=16;spacingLeft=0;" parent="1" vertex="1">
          <mxGeometry x="75.25" y="1336" width="120" height="32" as="geometry" />
        </mxCell>
        <mxCell id="BjnJAf6nKQtCIKFPQToR-57" value="Резонатор кварцевый NX2520SA-16MHZ" style="vsdxID=129;fillColor=none;gradientColor=none;shape=stencil(nZBLDoAgDERP0z3SIyjew0SURgSD+Lu9kMZoXLhwN9O+tukAlrNpJg1SzDH4QW/URgNYgZTkjA4UkwJUgGXng+6DX1zLfmoymdXo17xh5zmRJ6Q42BWCfc2oJfdAr+Yv+AP9Cb7OJ3H/2JG1HNGz/84klThPVCc=);labelBackgroundColor=none;rounded=0;html=1;whiteSpace=wrap;fontStyle=2;fontFamily=GOST type B;align=left;fontSize=16;spacingLeft=4;" parent="1" vertex="1">
          <mxGeometry x="195.25" y="1336" width="460" height="32" as="geometry" />
        </mxCell>
        <mxCell id="BjnJAf6nKQtCIKFPQToR-58" value="1" style="vsdxID=130;fillColor=none;gradientColor=none;shape=stencil(nZBLDoAgDERP0z3SIyjew0SURgSD+Lu9kMZoXLhwN9O+tukAlrNpJg1SzDH4QW/URgNYgZTkjA4UkwJUgGXng+6DX1zLfmoymdXo17xh5zmRJ6Q42BWCfc2oJfdAr+Yv+AP9Cb7OJ3H/2JG1HNGz/84klThPVCc=);labelBackgroundColor=none;rounded=0;html=1;whiteSpace=wrap;fontStyle=2;fontFamily=GOST type B;align=center;fontSize=16;" parent="1" vertex="1">
          <mxGeometry x="655.25" y="1336" width="39" height="32" as="geometry" />
        </mxCell>
        <mxCell id="BjnJAf6nKQtCIKFPQToR-60" value="VD4" style="vsdxID=128;fillColor=none;gradientColor=none;shape=stencil(nZBLDoAgDERP0z3SIyjew0SURgSD+Lu9kMZoXLhwN9O+tukAlrNpJg1SzDH4QW/URgNYgZTkjA4UkwJUgGXng+6DX1zLfmoymdXo17xh5zmRJ6Q42BWCfc2oJfdAr+Yv+AP9Cb7OJ3H/2JG1HNGz/84klThPVCc=);labelBackgroundColor=none;rounded=0;html=1;whiteSpace=wrap;fontStyle=2;fontFamily=GOST type B;align=center;fontSize=16;spacingLeft=0;" parent="1" vertex="1">
          <mxGeometry x="75.5" y="1368" width="120" height="32" as="geometry" />
        </mxCell>
        <mxCell id="BjnJAf6nKQtCIKFPQToR-61" value="Диод Шотки 10В 1А" style="vsdxID=129;fillColor=none;gradientColor=none;shape=stencil(nZBLDoAgDERP0z3SIyjew0SURgSD+Lu9kMZoXLhwN9O+tukAlrNpJg1SzDH4QW/URgNYgZTkjA4UkwJUgGXng+6DX1zLfmoymdXo17xh5zmRJ6Q42BWCfc2oJfdAr+Yv+AP9Cb7OJ3H/2JG1HNGz/84klThPVCc=);labelBackgroundColor=none;rounded=0;html=1;whiteSpace=wrap;fontStyle=2;fontFamily=GOST type B;align=left;fontSize=16;spacingLeft=4;" parent="1" vertex="1">
          <mxGeometry x="195.5" y="1368" width="460" height="32" as="geometry" />
        </mxCell>
        <mxCell id="BjnJAf6nKQtCIKFPQToR-62" value="1" style="vsdxID=130;fillColor=none;gradientColor=none;shape=stencil(nZBLDoAgDERP0z3SIyjew0SURgSD+Lu9kMZoXLhwN9O+tukAlrNpJg1SzDH4QW/URgNYgZTkjA4UkwJUgGXng+6DX1zLfmoymdXo17xh5zmRJ6Q42BWCfc2oJfdAr+Yv+AP9Cb7OJ3H/2JG1HNGz/84klThPVCc=);labelBackgroundColor=none;rounded=0;html=1;whiteSpace=wrap;fontStyle=2;fontFamily=GOST type B;align=center;fontSize=16;" parent="1" vertex="1">
          <mxGeometry x="655.5" y="1368" width="39" height="32" as="geometry" />
        </mxCell>
        <mxCell id="BjnJAf6nKQtCIKFPQToR-63" style="vsdxID=127;fillColor=none;gradientColor=none;shape=stencil(nZBLDoAgDERP0z3SIyjew0SURgSD+Lu9kMZoXLhwN9O+tukAlrNpJg1SzDH4QW/URgNYgZTkjA4UkwJUgGXng+6DX1zLfmoymdXo17xh5zmRJ6Q42BWCfc2oJfdAr+Yv+AP9Cb7OJ3H/2JG1HNGz/84klThPVCc=);labelBackgroundColor=none;rounded=0;html=1;whiteSpace=wrap;fontStyle=2;fontFamily=GOST type B;align=center;fontSize=16;" parent="1" vertex="1">
          <mxGeometry x="695" y="1368" width="120" height="32" as="geometry" />
        </mxCell>
        <mxCell id="BjnJAf6nKQtCIKFPQToR-64" value="XS0..XS1" style="vsdxID=128;fillColor=none;gradientColor=none;shape=stencil(nZBLDoAgDERP0z3SIyjew0SURgSD+Lu9kMZoXLhwN9O+tukAlrNpJg1SzDH4QW/URgNYgZTkjA4UkwJUgGXng+6DX1zLfmoymdXo17xh5zmRJ6Q42BWCfc2oJfdAr+Yv+AP9Cb7OJ3H/2JG1HNGz/84klThPVCc=);labelBackgroundColor=none;rounded=0;html=1;whiteSpace=wrap;fontStyle=2;fontFamily=GOST type B;align=center;fontSize=16;spacingLeft=0;" parent="1" vertex="1">
          <mxGeometry x="75.25" y="1434" width="120" height="32" as="geometry" />
        </mxCell>
        <mxCell id="BjnJAf6nKQtCIKFPQToR-65" value="Разъем IDE BH-40&lt;span style=&quot;&quot;&gt;&#x9;&lt;/span&gt;" style="vsdxID=129;fillColor=none;gradientColor=none;shape=stencil(nZBLDoAgDERP0z3SIyjew0SURgSD+Lu9kMZoXLhwN9O+tukAlrNpJg1SzDH4QW/URgNYgZTkjA4UkwJUgGXng+6DX1zLfmoymdXo17xh5zmRJ6Q42BWCfc2oJfdAr+Yv+AP9Cb7OJ3H/2JG1HNGz/84klThPVCc=);labelBackgroundColor=none;rounded=0;html=1;whiteSpace=wrap;fontStyle=2;fontFamily=GOST type B;align=left;fontSize=16;spacingLeft=4;" parent="1" vertex="1">
          <mxGeometry x="195.25" y="1434" width="460" height="32" as="geometry" />
        </mxCell>
        <mxCell id="BjnJAf6nKQtCIKFPQToR-66" value="1" style="vsdxID=130;fillColor=none;gradientColor=none;shape=stencil(nZBLDoAgDERP0z3SIyjew0SURgSD+Lu9kMZoXLhwN9O+tukAlrNpJg1SzDH4QW/URgNYgZTkjA4UkwJUgGXng+6DX1zLfmoymdXo17xh5zmRJ6Q42BWCfc2oJfdAr+Yv+AP9Cb7OJ3H/2JG1HNGz/84klThPVCc=);labelBackgroundColor=none;rounded=0;html=1;whiteSpace=wrap;fontStyle=2;fontFamily=GOST type B;align=center;fontSize=16;" parent="1" vertex="1">
          <mxGeometry x="655.25" y="1434" width="39" height="32" as="geometry" />
        </mxCell>
        <mxCell id="BjnJAf6nKQtCIKFPQToR-68" value="AMS" style="vsdxID=127;fillColor=none;gradientColor=none;shape=stencil(nZBLDoAgDERP0z3SIyjew0SURgSD+Lu9kMZoXLhwN9O+tukAlrNpJg1SzDH4QW/URgNYgZTkjA4UkwJUgGXng+6DX1zLfmoymdXo17xh5zmRJ6Q42BWCfc2oJfdAr+Yv+AP9Cb7OJ3H/2JG1HNGz/84klThPVCc=);labelBackgroundColor=none;rounded=0;html=1;whiteSpace=wrap;fontStyle=2;fontFamily=GOST type B;align=center;fontSize=16;" parent="1" vertex="1">
          <mxGeometry x="694.75" y="1272" width="120" height="32" as="geometry" />
        </mxCell>
        <mxCell id="BjnJAf6nKQtCIKFPQToR-69" value="NDK" style="vsdxID=127;fillColor=none;gradientColor=none;shape=stencil(nZBLDoAgDERP0z3SIyjew0SURgSD+Lu9kMZoXLhwN9O+tukAlrNpJg1SzDH4QW/URgNYgZTkjA4UkwJUgGXng+6DX1zLfmoymdXo17xh5zmRJ6Q42BWCfc2oJfdAr+Yv+AP9Cb7OJ3H/2JG1HNGz/84klThPVCc=);labelBackgroundColor=none;rounded=0;html=1;whiteSpace=wrap;fontStyle=2;fontFamily=GOST type B;align=center;fontSize=16;" parent="1" vertex="1">
          <mxGeometry x="694.5" y="1336" width="120" height="32" as="geometry" />
        </mxCell>
        <mxCell id="BjnJAf6nKQtCIKFPQToR-70" value="RUICHI" style="vsdxID=127;fillColor=none;gradientColor=none;shape=stencil(nZBLDoAgDERP0z3SIyjew0SURgSD+Lu9kMZoXLhwN9O+tukAlrNpJg1SzDH4QW/URgNYgZTkjA4UkwJUgGXng+6DX1zLfmoymdXo17xh5zmRJ6Q42BWCfc2oJfdAr+Yv+AP9Cb7OJ3H/2JG1HNGz/84klThPVCc=);labelBackgroundColor=none;rounded=0;html=1;whiteSpace=wrap;fontStyle=2;fontFamily=GOST type B;align=center;fontSize=16;" parent="1" vertex="1">
          <mxGeometry x="694.75" y="1434" width="120" height="32" as="geometry" />
        </mxCell>
        <mxCell id="BjnJAf6nKQtCIKFPQToR-75" value="VT1" style="vsdxID=128;fillColor=none;gradientColor=none;shape=stencil(nZBLDoAgDERP0z3SIyjew0SURgSD+Lu9kMZoXLhwN9O+tukAlrNpJg1SzDH4QW/URgNYgZTkjA4UkwJUgGXng+6DX1zLfmoymdXo17xh5zmRJ6Q42BWCfc2oJfdAr+Yv+AP9Cb7OJ3H/2JG1HNGz/84klThPVCc=);labelBackgroundColor=none;rounded=0;html=1;whiteSpace=wrap;fontStyle=2;fontFamily=GOST type B;align=center;fontSize=16;spacingLeft=0;" parent="1" vertex="1">
          <mxGeometry x="75.25" y="1400" width="120" height="34" as="geometry" />
        </mxCell>
        <mxCell id="BjnJAf6nKQtCIKFPQToR-76" value="Транзистор P-MOSFET&amp;nbsp;AO3401A" style="vsdxID=129;fillColor=none;gradientColor=none;shape=stencil(nZBLDoAgDERP0z3SIyjew0SURgSD+Lu9kMZoXLhwN9O+tukAlrNpJg1SzDH4QW/URgNYgZTkjA4UkwJUgGXng+6DX1zLfmoymdXo17xh5zmRJ6Q42BWCfc2oJfdAr+Yv+AP9Cb7OJ3H/2JG1HNGz/84klThPVCc=);labelBackgroundColor=none;rounded=0;html=1;whiteSpace=wrap;fontStyle=2;fontFamily=GOST type B;align=left;fontSize=16;spacingLeft=4;" parent="1" vertex="1">
          <mxGeometry x="195.25" y="1400" width="460" height="34" as="geometry" />
        </mxCell>
        <mxCell id="BjnJAf6nKQtCIKFPQToR-77" value="1" style="vsdxID=130;fillColor=none;gradientColor=none;shape=stencil(nZBLDoAgDERP0z3SIyjew0SURgSD+Lu9kMZoXLhwN9O+tukAlrNpJg1SzDH4QW/URgNYgZTkjA4UkwJUgGXng+6DX1zLfmoymdXo17xh5zmRJ6Q42BWCfc2oJfdAr+Yv+AP9Cb7OJ3H/2JG1HNGz/84klThPVCc=);labelBackgroundColor=none;rounded=0;html=1;whiteSpace=wrap;fontStyle=2;fontFamily=GOST type B;align=center;fontSize=16;" parent="1" vertex="1">
          <mxGeometry x="655.25" y="1400" width="39" height="34" as="geometry" />
        </mxCell>
        <mxCell id="BjnJAf6nKQtCIKFPQToR-78" value="UMW" style="vsdxID=127;fillColor=none;gradientColor=none;shape=stencil(nZBLDoAgDERP0z3SIyjew0SURgSD+Lu9kMZoXLhwN9O+tukAlrNpJg1SzDH4QW/URgNYgZTkjA4UkwJUgGXng+6DX1zLfmoymdXo17xh5zmRJ6Q42BWCfc2oJfdAr+Yv+AP9Cb7OJ3H/2JG1HNGz/84klThPVCc=);labelBackgroundColor=none;rounded=0;html=1;whiteSpace=wrap;fontStyle=2;fontFamily=GOST type B;align=center;fontSize=16;" parent="1" vertex="1">
          <mxGeometry x="694.75" y="1400" width="120" height="34" as="geometry" />
        </mxCell>
        <mxCell id="M4-_52vN5Fsn0eyjyp_X-5" style="vsdxID=28;edgeStyle=none;startArrow=none;endArrow=none;startSize=5;endSize=5;strokeColor=#000000;spacingTop=-1;spacingBottom=-1;spacingLeft=-1;spacingRight=-1;verticalAlign=middle;html=1;labelBackgroundColor=#ffffff;rounded=0;fontFamily=GOST type B;" parent="1" edge="1">
          <mxGeometry x="75.5" y="1173" as="geometry">
            <mxPoint as="offset" />
            <Array as="points" />
            <mxPoint x="75.5" y="2281" as="sourcePoint" />
            <mxPoint x="335.5" y="2281" as="targetPoint" />
          </mxGeometry>
        </mxCell>
        <mxCell id="M4-_52vN5Fsn0eyjyp_X-10" style="vsdxID=23;edgeStyle=none;startArrow=none;endArrow=none;startSize=5;endSize=5;strokeWidth=4;strokeColor=#000000;spacingTop=-1;spacingBottom=-1;spacingLeft=-1;spacingRight=-1;verticalAlign=middle;html=1;labelBackgroundColor=#ffffff;rounded=0;fontFamily=GOST type B;" parent="1" edge="1">
          <mxGeometry x="75.5" y="1296" as="geometry">
            <mxPoint as="offset" />
            <Array as="points" />
            <mxPoint x="75.5" y="2304" as="sourcePoint" />
            <mxPoint x="335.5" y="2304" as="targetPoint" />
          </mxGeometry>
        </mxCell>
        <mxCell id="M4-_52vN5Fsn0eyjyp_X-14" style="vsdxID=19;edgeStyle=none;startArrow=none;endArrow=none;startSize=5;endSize=5;strokeWidth=4;strokeColor=#000000;spacingTop=-1;spacingBottom=-1;spacingLeft=-1;spacingRight=-1;verticalAlign=middle;html=1;labelBackgroundColor=#ffffff;rounded=0;fontFamily=GOST type B;" parent="1" edge="1">
          <mxGeometry x="75.5" y="1179" as="geometry">
            <Array as="points" />
            <mxPoint x="143.5" y="2255" as="sourcePoint" />
            <mxPoint x="143.5" y="2327" as="targetPoint" />
          </mxGeometry>
        </mxCell>
        <mxCell id="M4-_52vN5Fsn0eyjyp_X-15" style="vsdxID=18;edgeStyle=none;startArrow=none;endArrow=none;startSize=5;endSize=5;strokeWidth=4;strokeColor=#000000;spacingTop=-1;spacingBottom=-1;spacingLeft=-1;spacingRight=-1;verticalAlign=middle;html=1;labelBackgroundColor=#ffffff;rounded=0;fontFamily=GOST type B;" parent="1" edge="1">
          <mxGeometry x="75.5" y="1179" as="geometry">
            <Array as="points" />
            <mxPoint x="235.5" y="2255" as="sourcePoint" />
            <mxPoint x="235.5" y="2327" as="targetPoint" />
          </mxGeometry>
        </mxCell>
        <mxCell id="M4-_52vN5Fsn0eyjyp_X-16" style="vsdxID=17;edgeStyle=none;startArrow=none;endArrow=none;startSize=5;endSize=5;strokeWidth=4;strokeColor=#000000;spacingTop=-1;spacingBottom=-1;spacingLeft=-1;spacingRight=-1;verticalAlign=middle;html=1;labelBackgroundColor=#ffffff;rounded=0;fontFamily=GOST type B;" parent="1" edge="1">
          <mxGeometry x="75.5" y="1179" as="geometry">
            <Array as="points" />
            <mxPoint x="295.5" y="2255" as="sourcePoint" />
            <mxPoint x="295.5" y="2327" as="targetPoint" />
          </mxGeometry>
        </mxCell>
        <mxCell id="M4-_52vN5Fsn0eyjyp_X-17" style="vsdxID=16;edgeStyle=none;startArrow=none;endArrow=none;startSize=5;endSize=5;strokeWidth=4;strokeColor=#000000;spacingTop=-1;spacingBottom=-1;spacingLeft=-1;spacingRight=-1;verticalAlign=middle;html=1;labelBackgroundColor=#ffffff;rounded=0;fontFamily=GOST type B;" parent="1" edge="1">
          <mxGeometry x="75.5" y="1263" as="geometry">
            <Array as="points" />
            <mxPoint x="745.5" y="2254" as="sourcePoint" />
            <mxPoint x="745.5" y="2328" as="targetPoint" />
          </mxGeometry>
        </mxCell>
        <mxCell id="M4-_52vN5Fsn0eyjyp_X-23" style="vsdxID=10;edgeStyle=none;startArrow=none;endArrow=none;startSize=5;endSize=5;strokeWidth=4;strokeColor=#000000;spacingTop=-1;spacingBottom=-1;spacingLeft=-1;spacingRight=-1;verticalAlign=middle;html=1;labelBackgroundColor=#ffffff;rounded=0;fontFamily=GOST type B;" parent="1" edge="1">
          <mxGeometry x="75.5" y="1270" as="geometry">
            <mxPoint as="offset" />
            <Array as="points" />
            <mxPoint x="746" y="2278" as="sourcePoint" />
            <mxPoint x="815.5" y="2278" as="targetPoint" />
          </mxGeometry>
        </mxCell>
        <mxCell id="M4-_52vN5Fsn0eyjyp_X-26" style="vsdxID=7;edgeStyle=none;startArrow=none;endArrow=none;startSize=5;endSize=5;strokeWidth=4;strokeColor=#000000;spacingTop=-1;spacingBottom=-1;spacingLeft=-1;spacingRight=-1;verticalAlign=middle;html=1;labelBackgroundColor=#ffffff;rounded=0;fontFamily=GOST type B;" parent="1" edge="1">
          <mxGeometry x="75.5" y="1179" as="geometry">
            <Array as="points" />
            <mxPoint x="335.5" y="2255" as="sourcePoint" />
            <mxPoint x="335.5" y="2327" as="targetPoint" />
          </mxGeometry>
        </mxCell>
        <mxCell id="M4-_52vN5Fsn0eyjyp_X-27" style="vsdxID=6;edgeStyle=none;startArrow=none;endArrow=none;startSize=5;endSize=5;strokeWidth=4;strokeColor=#000000;spacingTop=-1;spacingBottom=-1;spacingLeft=-1;spacingRight=-1;verticalAlign=middle;html=1;labelBackgroundColor=#ffffff;rounded=0;fontFamily=GOST type B;" parent="1" edge="1">
          <mxGeometry x="75.5" y="1268" as="geometry">
            <Array as="points" />
            <mxPoint x="815.5" y="2256" as="sourcePoint" />
            <mxPoint x="76" y="2255" as="targetPoint" />
          </mxGeometry>
        </mxCell>
        <mxCell id="M4-_52vN5Fsn0eyjyp_X-28" value="&lt;font style=&quot;font-size: 11px; color: rgb(0, 0, 0); direction: ltr; letter-spacing: 0px; line-height: 120%; opacity: 1;&quot;&gt;&lt;i&gt;Изм.&lt;br&gt;&lt;/i&gt;&lt;/font&gt;" style="verticalAlign=middle;align=center;vsdxID=31;fillColor=none;gradientColor=none;shape=stencil(nZBLDoAgDERP0z3SIyjew0SURgSD+Lu9kMZoXLhwN9O+tukAlrNpJg1SzDH4QW/URgNYgZTkjA4UkwJUgGXng+6DX1zLfmoymdXo17xh5zmRJ6Q42BWCfc2oJfdAr+Yv+AP9Cb7OJ3H/2JG1HNGz/84klThPVCc=);strokeColor=none;strokeWidth=4;spacingTop=-1;spacingBottom=-1;spacingLeft=-1;spacingRight=-1;labelBackgroundColor=none;rounded=0;html=1;whiteSpace=wrap;fontFamily=GOST type B;" parent="1" vertex="1">
          <mxGeometry x="75.5" y="2303" width="27" height="25" as="geometry" />
        </mxCell>
        <mxCell id="M4-_52vN5Fsn0eyjyp_X-29" value="&lt;font style=&quot;font-size: 11px; color: rgb(0, 0, 0); direction: ltr; letter-spacing: 0px; line-height: 120%; opacity: 1;&quot;&gt;&lt;i&gt;Лист&lt;br&gt;&lt;/i&gt;&lt;/font&gt;" style="verticalAlign=middle;align=center;vsdxID=32;fillColor=none;gradientColor=none;shape=stencil(nZBLDoAgDERP0z3SIyjew0SURgSD+Lu9kMZoXLhwN9O+tukAlrNpJg1SzDH4QW/URgNYgZTkjA4UkwJUgGXng+6DX1zLfmoymdXo17xh5zmRJ6Q42BWCfc2oJfdAr+Yv+AP9Cb7OJ3H/2JG1HNGz/84klThPVCc=);strokeColor=none;strokeWidth=4;spacingTop=-1;spacingBottom=-1;spacingLeft=-1;spacingRight=-1;labelBackgroundColor=none;rounded=0;html=1;whiteSpace=wrap;fontFamily=GOST type B;" parent="1" vertex="1">
          <mxGeometry x="105.5" y="2303" width="36" height="25" as="geometry" />
        </mxCell>
        <mxCell id="M4-_52vN5Fsn0eyjyp_X-30" value="&lt;font style=&quot;font-size: 11px; color: rgb(0, 0, 0); direction: ltr; letter-spacing: 0px; line-height: 120%; opacity: 1;&quot;&gt;&lt;i&gt;№ документа&lt;br&gt;&lt;/i&gt;&lt;/font&gt;" style="verticalAlign=middle;align=center;vsdxID=33;fillColor=none;gradientColor=none;shape=stencil(nZBLDoAgDERP0z3SIyjew0SURgSD+Lu9kMZoXLhwN9O+tukAlrNpJg1SzDH4QW/URgNYgZTkjA4UkwJUgGXng+6DX1zLfmoymdXo17xh5zmRJ6Q42BWCfc2oJfdAr+Yv+AP9Cb7OJ3H/2JG1HNGz/84klThPVCc=);strokeColor=none;strokeWidth=4;spacingTop=-1;spacingBottom=-1;spacingLeft=-1;spacingRight=-1;labelBackgroundColor=none;rounded=0;html=1;whiteSpace=wrap;fontFamily=GOST type B;" parent="1" vertex="1">
          <mxGeometry x="145.5" y="2303" width="88" height="25" as="geometry" />
        </mxCell>
        <mxCell id="M4-_52vN5Fsn0eyjyp_X-31" value="&lt;font style=&quot;font-size: 11px; color: rgb(0, 0, 0); direction: ltr; letter-spacing: 0px; line-height: 120%; opacity: 1;&quot;&gt;&lt;i&gt;Подпись&lt;br&gt;&lt;/i&gt;&lt;/font&gt;" style="verticalAlign=middle;align=center;vsdxID=34;fillColor=none;gradientColor=none;shape=stencil(nZBLDoAgDERP0z3SIyjew0SURgSD+Lu9kMZoXLhwN9O+tukAlrNpJg1SzDH4QW/URgNYgZTkjA4UkwJUgGXng+6DX1zLfmoymdXo17xh5zmRJ6Q42BWCfc2oJfdAr+Yv+AP9Cb7OJ3H/2JG1HNGz/84klThPVCc=);strokeColor=none;strokeWidth=4;spacingTop=-1;spacingBottom=-1;spacingLeft=-1;spacingRight=-1;labelBackgroundColor=none;rounded=0;html=1;whiteSpace=wrap;fontFamily=GOST type B;" parent="1" vertex="1">
          <mxGeometry x="237.5" y="2303" width="56" height="25" as="geometry" />
        </mxCell>
        <mxCell id="M4-_52vN5Fsn0eyjyp_X-32" value="&lt;font style=&quot;font-size: 11px; color: rgb(0, 0, 0); direction: ltr; letter-spacing: 0px; line-height: 120%; opacity: 1;&quot;&gt;&lt;i&gt;Дата&lt;br&gt;&lt;/i&gt;&lt;/font&gt;" style="verticalAlign=middle;align=center;vsdxID=35;fillColor=none;gradientColor=none;shape=stencil(nZBLDoAgDERP0z3SIyjew0SURgSD+Lu9kMZoXLhwN9O+tukAlrNpJg1SzDH4QW/URgNYgZTkjA4UkwJUgGXng+6DX1zLfmoymdXo17xh5zmRJ6Q42BWCfc2oJfdAr+Yv+AP9Cb7OJ3H/2JG1HNGz/84klThPVCc=);strokeColor=none;strokeWidth=4;spacingTop=-1;spacingBottom=-1;spacingLeft=-1;spacingRight=-1;labelBackgroundColor=none;rounded=0;html=1;whiteSpace=wrap;fontFamily=GOST type B;" parent="1" vertex="1">
          <mxGeometry x="297.5" y="2303.5" width="36" height="24" as="geometry" />
        </mxCell>
        <mxCell id="M4-_52vN5Fsn0eyjyp_X-35" value="&lt;font style=&quot;font-size: 11px; color: rgb(0, 0, 0); direction: ltr; letter-spacing: 0px; line-height: 120%; opacity: 1;&quot;&gt;&lt;i&gt;Лист&lt;br&gt;&lt;/i&gt;&lt;/font&gt;" style="verticalAlign=middle;align=center;vsdxID=38;fillColor=none;gradientColor=none;shape=stencil(nZBLDoAgDERP0z3SIyjew0SURgSD+Lu9kMZoXLhwN9O+tukAlrNpJg1SzDH4QW/URgNYgZTkjA4UkwJUgGXng+6DX1zLfmoymdXo17xh5zmRJ6Q42BWCfc2oJfdAr+Yv+AP9Cb7OJ3H/2JG1HNGz/84klThPVCc=);strokeColor=none;strokeWidth=4;spacingTop=-1;spacingBottom=-1;spacingLeft=-1;spacingRight=-1;labelBackgroundColor=none;rounded=0;html=1;whiteSpace=wrap;fontFamily=GOST type B;" parent="1" vertex="1">
          <mxGeometry x="748.5" y="2259" width="66" height="16" as="geometry" />
        </mxCell>
        <mxCell id="M4-_52vN5Fsn0eyjyp_X-40" value="&lt;font style=&quot;font-size: 16px; color: rgb(0, 0, 0); direction: ltr; letter-spacing: 0px; line-height: 120%; opacity: 1;&quot;&gt;&lt;span&gt;Обозначение&lt;br&gt;&lt;/span&gt;&lt;/font&gt;" style="verticalAlign=middle;align=center;vsdxID=50;fillColor=none;gradientColor=none;shape=stencil(nZBLDoAgDERP0z3SIyjew0SURgSD+Lu9kMZoXLhwN9O+tukAlrNpJg1SzDH4QW/URgNYgZTkjA4UkwJUgGXng+6DX1zLfmoymdXo17xh5zmRJ6Q42BWCfc2oJfdAr+Yv+AP9Cb7OJ3H/2JG1HNGz/84klThPVCc=);strokeWidth=3;labelBackgroundColor=none;rounded=0;html=1;whiteSpace=wrap;fontStyle=2;fontFamily=GOST type B;spacingLeft=0;" parent="1" vertex="1">
          <mxGeometry x="75.5" y="1179" width="120" height="60" as="geometry" />
        </mxCell>
        <mxCell id="M4-_52vN5Fsn0eyjyp_X-41" value="&lt;font style=&quot;font-size: 16px; color: rgb(0, 0, 0); direction: ltr; letter-spacing: 0px; line-height: 120%; opacity: 1;&quot;&gt;&lt;span&gt;Наименование&lt;br&gt;&lt;/span&gt;&lt;/font&gt;" style="verticalAlign=middle;align=center;vsdxID=51;fillColor=none;gradientColor=none;shape=stencil(nZBLDoAgDERP0z3SIyjew0SURgSD+Lu9kMZoXLhwN9O+tukAlrNpJg1SzDH4QW/URgNYgZTkjA4UkwJUgGXng+6DX1zLfmoymdXo17xh5zmRJ6Q42BWCfc2oJfdAr+Yv+AP9Cb7OJ3H/2JG1HNGz/84klThPVCc=);strokeWidth=3;labelBackgroundColor=none;rounded=0;html=1;whiteSpace=wrap;fontStyle=2;fontFamily=GOST type B;" parent="1" vertex="1">
          <mxGeometry x="195.5" y="1179" width="460" height="60" as="geometry" />
        </mxCell>
        <mxCell id="M4-_52vN5Fsn0eyjyp_X-42" value="&lt;font style=&quot;font-size: 16px; color: rgb(0, 0, 0); direction: ltr; letter-spacing: 0px; line-height: 120%; opacity: 1;&quot;&gt;&lt;span&gt;Примечание&lt;br&gt;&lt;/span&gt;&lt;/font&gt;" style="verticalAlign=middle;align=center;vsdxID=52;fillColor=none;gradientColor=none;shape=stencil(nZBLDoAgDERP0z3SIyjew0SURgSD+Lu9kMZoXLhwN9O+tukAlrNpJg1SzDH4QW/URgNYgZTkjA4UkwJUgGXng+6DX1zLfmoymdXo17xh5zmRJ6Q42BWCfc2oJfdAr+Yv+AP9Cb7OJ3H/2JG1HNGz/84klThPVCc=);strokeWidth=3;labelBackgroundColor=none;rounded=0;html=1;whiteSpace=wrap;fontStyle=2;fontFamily=GOST type B;" parent="1" vertex="1">
          <mxGeometry x="694.5" y="1179" width="120" height="60" as="geometry" />
        </mxCell>
        <mxCell id="M4-_52vN5Fsn0eyjyp_X-71" style="vsdxID=132;edgeStyle=none;startArrow=none;endArrow=none;startSize=5;endSize=5;strokeWidth=2;spacingTop=0;spacingBottom=0;spacingLeft=0;spacingRight=0;verticalAlign=middle;html=1;labelBackgroundColor=#ffffff;rounded=0;align=center;fontFamily=GOST type B;" parent="1" edge="1">
          <mxGeometry x="35.5" y="1179" as="geometry">
            <Array as="points" />
            <mxPoint x="655.5" y="1179" as="sourcePoint" />
            <mxPoint x="655.5" y="2255" as="targetPoint" />
          </mxGeometry>
        </mxCell>
        <mxCell id="M4-_52vN5Fsn0eyjyp_X-72" style="vsdxID=131;edgeStyle=none;startArrow=none;endArrow=none;startSize=5;endSize=5;strokeWidth=2;spacingTop=0;spacingBottom=0;spacingLeft=0;spacingRight=0;verticalAlign=middle;html=1;labelBackgroundColor=#ffffff;rounded=0;align=center;fontFamily=GOST type B;" parent="1" edge="1">
          <mxGeometry x="-44.5" y="1179" as="geometry">
            <Array as="points" />
            <mxPoint x="195.5" y="1179" as="sourcePoint" />
            <mxPoint x="195" y="2255" as="targetPoint" />
          </mxGeometry>
        </mxCell>
        <mxCell id="M4-_52vN5Fsn0eyjyp_X-80" style="vsdxID=1;edgeStyle=none;startArrow=none;endArrow=none;startSize=5;endSize=5;strokeWidth=4;spacingTop=0;spacingBottom=0;spacingLeft=0;spacingRight=0;verticalAlign=middle;html=1;labelBackgroundColor=#ffffff;rounded=0;fontFamily=GOST type B;" parent="1" edge="1">
          <mxGeometry x="75.5" y="1179" as="geometry">
            <mxPoint as="offset" />
            <Array as="points" />
            <mxPoint x="75.5" y="2327" as="sourcePoint" />
            <mxPoint x="815.5" y="2327" as="targetPoint" />
          </mxGeometry>
        </mxCell>
        <mxCell id="M4-_52vN5Fsn0eyjyp_X-81" style="vsdxID=2;edgeStyle=none;startArrow=none;endArrow=none;startSize=5;endSize=5;strokeWidth=4;spacingTop=0;spacingBottom=0;spacingLeft=0;spacingRight=0;verticalAlign=middle;html=1;labelBackgroundColor=#ffffff;rounded=0;fontFamily=GOST type B;" parent="1" edge="1">
          <mxGeometry x="75.5" y="1179" as="geometry">
            <Array as="points" />
            <mxPoint x="815.5" y="2327" as="sourcePoint" />
            <mxPoint x="815.5" y="1179" as="targetPoint" />
          </mxGeometry>
        </mxCell>
        <mxCell id="M4-_52vN5Fsn0eyjyp_X-82" style="vsdxID=3;edgeStyle=none;startArrow=none;endArrow=none;startSize=5;endSize=5;strokeWidth=4;spacingTop=0;spacingBottom=0;spacingLeft=0;spacingRight=0;verticalAlign=middle;html=1;labelBackgroundColor=#ffffff;rounded=0;fontStyle=2;fontFamily=GOST type B;align=left;" parent="1" edge="1">
          <mxGeometry x="75.5" y="1179" as="geometry">
            <Array as="points" />
            <mxPoint x="815.5" y="1179" as="sourcePoint" />
            <mxPoint x="75.5" y="1179" as="targetPoint" />
          </mxGeometry>
        </mxCell>
        <mxCell id="M4-_52vN5Fsn0eyjyp_X-83" style="vsdxID=4;edgeStyle=none;startArrow=none;endArrow=none;startSize=5;endSize=5;strokeWidth=4;spacingTop=0;spacingBottom=0;spacingLeft=0;spacingRight=0;verticalAlign=middle;html=1;labelBackgroundColor=#ffffff;rounded=0;fontFamily=GOST type B;" parent="1" edge="1">
          <mxGeometry x="75.5" y="1179" as="geometry">
            <Array as="points" />
            <mxPoint x="75.5" y="1179" as="sourcePoint" />
            <mxPoint x="75.5" y="2327" as="targetPoint" />
          </mxGeometry>
        </mxCell>
        <mxCell id="M4-_52vN5Fsn0eyjyp_X-88" value="&lt;font style=&quot;font-size: 16px ; color: rgb(0 , 0 , 0) ; direction: ltr ; letter-spacing: 0px ; line-height: 120% ; opacity: 1&quot;&gt;&lt;span&gt;Кол.&lt;br&gt;&lt;/span&gt;&lt;/font&gt;" style="verticalAlign=middle;align=center;vsdxID=52;fillColor=none;gradientColor=none;shape=stencil(nZBLDoAgDERP0z3SIyjew0SURgSD+Lu9kMZoXLhwN9O+tukAlrNpJg1SzDH4QW/URgNYgZTkjA4UkwJUgGXng+6DX1zLfmoymdXo17xh5zmRJ6Q42BWCfc2oJfdAr+Yv+AP9Cb7OJ3H/2JG1HNGz/84klThPVCc=);strokeWidth=3;labelBackgroundColor=none;rounded=0;html=1;whiteSpace=wrap;fontStyle=2;fontFamily=GOST type B;" parent="1" vertex="1">
          <mxGeometry x="655.5" y="1179" width="39" height="60" as="geometry" />
        </mxCell>
        <mxCell id="M4-_52vN5Fsn0eyjyp_X-103" style="vsdxID=132;edgeStyle=none;startArrow=none;endArrow=none;startSize=5;endSize=5;strokeWidth=2;spacingTop=0;spacingBottom=0;spacingLeft=0;spacingRight=0;verticalAlign=middle;html=1;labelBackgroundColor=#ffffff;rounded=0;align=center;fontFamily=GOST type B;" parent="1" edge="1">
          <mxGeometry x="-1.5" y="1169" as="geometry">
            <Array as="points" />
            <mxPoint x="694.5" y="1179" as="sourcePoint" />
            <mxPoint x="694.5" y="2255" as="targetPoint" />
          </mxGeometry>
        </mxCell>
        <mxCell id="M4-_52vN5Fsn0eyjyp_X-105" value="&lt;p style=&quot;margin: 0px; text-indent: 0px; direction: rtl; font-size: 29px;&quot;&gt;&lt;font style=&quot;font-size: 29px; color: rgb(0, 0, 0); direction: ltr; letter-spacing: 0px; line-height: 120%; opacity: 1;&quot;&gt;&lt;i&gt;ГУИР.&lt;/i&gt;&lt;/font&gt;&lt;font style=&quot;font-size: 29px; color: rgb(0, 0, 0); direction: ltr; letter-spacing: 0px; line-height: 120%; opacity: 1;&quot;&gt;&lt;i&gt;400201.304&lt;/i&gt;&amp;nbsp;&lt;i&gt;ПЭ3&lt;/i&gt;&lt;/font&gt;&lt;font style=&quot;font-size: 28px; color: rgb(0, 0, 0); direction: ltr; letter-spacing: 0px; line-height: 120%; opacity: 1;&quot;&gt;&lt;i&gt;&lt;br&gt;&lt;/i&gt;&lt;/font&gt;&lt;/p&gt;" style="verticalAlign=middle;align=center;vsdxID=222;fillColor=none;gradientColor=none;shape=stencil(nZBLDoAgDERP0z3SIyjew0SURgSD+Lu9kMZoXLhwN9O+tukAlrNpJg1SzDH4QW/URgNYgZTkjA4UkwJUgGXng+6DX1zLfmoymdXo17xh5zmRJ6Q42BWCfc2oJfdAr+Yv+AP9Cb7OJ3H/2JG1HNGz/84klThPVCc=);strokeColor=none;spacingTop=-1;spacingBottom=-1;spacingLeft=-1;spacingRight=-1;labelBackgroundColor=none;rounded=0;html=1;whiteSpace=wrap;fontFamily=GOST type B;fontSource=https%3A%2F%2Fdrive.google.com%2Fuc%3Fexport%3Ddownload%26id%3D1UrnLVkHcLbHLojcf2ejICCGZ1GY9liKW;" parent="1" vertex="1">
          <mxGeometry x="337" y="2259" width="412" height="66.07" as="geometry" />
        </mxCell>
        <mxCell id="M4-_52vN5Fsn0eyjyp_X-181" style="vsdxID=19;edgeStyle=none;startArrow=none;endArrow=none;startSize=5;endSize=5;strokeWidth=4;strokeColor=#000000;spacingTop=-1;spacingBottom=-1;spacingLeft=-1;spacingRight=-1;verticalAlign=middle;html=1;labelBackgroundColor=#ffffff;rounded=0;fontFamily=GOST type B;" parent="1" edge="1">
          <mxGeometry x="37.5" y="1179.5" as="geometry">
            <Array as="points" />
            <mxPoint x="105.5" y="2255.5" as="sourcePoint" />
            <mxPoint x="105.5" y="2327.5" as="targetPoint" />
          </mxGeometry>
        </mxCell>
        <mxCell id="M4-_52vN5Fsn0eyjyp_X-199" value="" style="vsdxID=128;fillColor=none;gradientColor=none;shape=stencil(nZBLDoAgDERP0z3SIyjew0SURgSD+Lu9kMZoXLhwN9O+tukAlrNpJg1SzDH4QW/URgNYgZTkjA4UkwJUgGXng+6DX1zLfmoymdXo17xh5zmRJ6Q42BWCfc2oJfdAr+Yv+AP9Cb7OJ3H/2JG1HNGz/84klThPVCc=);labelBackgroundColor=none;rounded=0;html=1;whiteSpace=wrap;fontStyle=2;fontFamily=GOST type B;align=center;fontSize=16;spacingLeft=0;" parent="1" vertex="1">
          <mxGeometry x="75.5" y="741" width="120" height="34" as="geometry" />
        </mxCell>
        <mxCell id="M4-_52vN5Fsn0eyjyp_X-200" value="" style="vsdxID=129;fillColor=none;gradientColor=none;shape=stencil(nZBLDoAgDERP0z3SIyjew0SURgSD+Lu9kMZoXLhwN9O+tukAlrNpJg1SzDH4QW/URgNYgZTkjA4UkwJUgGXng+6DX1zLfmoymdXo17xh5zmRJ6Q42BWCfc2oJfdAr+Yv+AP9Cb7OJ3H/2JG1HNGz/84klThPVCc=);labelBackgroundColor=none;rounded=0;html=1;whiteSpace=wrap;fontStyle=2;fontFamily=GOST type B;align=left;fontSize=16;spacingLeft=4;" parent="1" vertex="1">
          <mxGeometry x="195.5" y="741" width="460" height="34" as="geometry" />
        </mxCell>
        <mxCell id="M4-_52vN5Fsn0eyjyp_X-201" value="" style="vsdxID=130;fillColor=none;gradientColor=none;shape=stencil(nZBLDoAgDERP0z3SIyjew0SURgSD+Lu9kMZoXLhwN9O+tukAlrNpJg1SzDH4QW/URgNYgZTkjA4UkwJUgGXng+6DX1zLfmoymdXo17xh5zmRJ6Q42BWCfc2oJfdAr+Yv+AP9Cb7OJ3H/2JG1HNGz/84klThPVCc=);labelBackgroundColor=none;rounded=0;html=1;whiteSpace=wrap;fontStyle=2;fontFamily=GOST type B;align=center;fontSize=16;" parent="1" vertex="1">
          <mxGeometry x="654.5" y="741" width="40" height="34" as="geometry" />
        </mxCell>
        <mxCell id="M4-_52vN5Fsn0eyjyp_X-202" value="" style="vsdxID=127;fillColor=none;gradientColor=none;shape=stencil(nZBLDoAgDERP0z3SIyjew0SURgSD+Lu9kMZoXLhwN9O+tukAlrNpJg1SzDH4QW/URgNYgZTkjA4UkwJUgGXng+6DX1zLfmoymdXo17xh5zmRJ6Q42BWCfc2oJfdAr+Yv+AP9Cb7OJ3H/2JG1HNGz/84klThPVCc=);labelBackgroundColor=none;rounded=0;html=1;whiteSpace=wrap;fontStyle=2;fontFamily=GOST type B;align=center;fontSize=16;" parent="1" vertex="1">
          <mxGeometry x="695" y="741" width="120" height="34" as="geometry" />
        </mxCell>
        <mxCell id="M4-_52vN5Fsn0eyjyp_X-203" value="" style="vsdxID=128;fillColor=none;gradientColor=none;shape=stencil(nZBLDoAgDERP0z3SIyjew0SURgSD+Lu9kMZoXLhwN9O+tukAlrNpJg1SzDH4QW/URgNYgZTkjA4UkwJUgGXng+6DX1zLfmoymdXo17xh5zmRJ6Q42BWCfc2oJfdAr+Yv+AP9Cb7OJ3H/2JG1HNGz/84klThPVCc=);labelBackgroundColor=none;rounded=0;html=1;whiteSpace=wrap;fontStyle=2;fontFamily=GOST type B;align=center;fontSize=16;spacingLeft=0;" parent="1" vertex="1">
          <mxGeometry x="75.5" y="775" width="120" height="34" as="geometry" />
        </mxCell>
        <mxCell id="M4-_52vN5Fsn0eyjyp_X-204" value="" style="vsdxID=129;fillColor=none;gradientColor=none;shape=stencil(nZBLDoAgDERP0z3SIyjew0SURgSD+Lu9kMZoXLhwN9O+tukAlrNpJg1SzDH4QW/URgNYgZTkjA4UkwJUgGXng+6DX1zLfmoymdXo17xh5zmRJ6Q42BWCfc2oJfdAr+Yv+AP9Cb7OJ3H/2JG1HNGz/84klThPVCc=);labelBackgroundColor=none;rounded=0;html=1;whiteSpace=wrap;fontStyle=2;fontFamily=GOST type B;align=left;fontSize=16;spacingLeft=4;" parent="1" vertex="1">
          <mxGeometry x="195.5" y="775" width="460" height="34" as="geometry" />
        </mxCell>
        <mxCell id="M4-_52vN5Fsn0eyjyp_X-205" value="" style="vsdxID=130;fillColor=none;gradientColor=none;shape=stencil(nZBLDoAgDERP0z3SIyjew0SURgSD+Lu9kMZoXLhwN9O+tukAlrNpJg1SzDH4QW/URgNYgZTkjA4UkwJUgGXng+6DX1zLfmoymdXo17xh5zmRJ6Q42BWCfc2oJfdAr+Yv+AP9Cb7OJ3H/2JG1HNGz/84klThPVCc=);labelBackgroundColor=none;rounded=0;html=1;whiteSpace=wrap;fontStyle=2;fontFamily=GOST type B;align=center;fontSize=16;" parent="1" vertex="1">
          <mxGeometry x="655.25" y="775" width="40" height="34" as="geometry" />
        </mxCell>
        <mxCell id="M4-_52vN5Fsn0eyjyp_X-206" value="" style="vsdxID=127;fillColor=none;gradientColor=none;shape=stencil(nZBLDoAgDERP0z3SIyjew0SURgSD+Lu9kMZoXLhwN9O+tukAlrNpJg1SzDH4QW/URgNYgZTkjA4UkwJUgGXng+6DX1zLfmoymdXo17xh5zmRJ6Q42BWCfc2oJfdAr+Yv+AP9Cb7OJ3H/2JG1HNGz/84klThPVCc=);labelBackgroundColor=none;rounded=0;html=1;whiteSpace=wrap;fontStyle=2;fontFamily=GOST type B;align=center;fontSize=16;" parent="1" vertex="1">
          <mxGeometry x="695" y="775" width="120" height="34" as="geometry" />
        </mxCell>
        <mxCell id="M4-_52vN5Fsn0eyjyp_X-207" value="" style="vsdxID=128;fillColor=none;gradientColor=none;shape=stencil(nZBLDoAgDERP0z3SIyjew0SURgSD+Lu9kMZoXLhwN9O+tukAlrNpJg1SzDH4QW/URgNYgZTkjA4UkwJUgGXng+6DX1zLfmoymdXo17xh5zmRJ6Q42BWCfc2oJfdAr+Yv+AP9Cb7OJ3H/2JG1HNGz/84klThPVCc=);labelBackgroundColor=none;rounded=0;html=1;whiteSpace=wrap;fontStyle=2;fontFamily=GOST type B;align=center;fontSize=16;spacingLeft=0;" parent="1" vertex="1">
          <mxGeometry x="75.5" y="809" width="120" height="34" as="geometry" />
        </mxCell>
        <mxCell id="M4-_52vN5Fsn0eyjyp_X-208" value="" style="vsdxID=129;fillColor=none;gradientColor=none;shape=stencil(nZBLDoAgDERP0z3SIyjew0SURgSD+Lu9kMZoXLhwN9O+tukAlrNpJg1SzDH4QW/URgNYgZTkjA4UkwJUgGXng+6DX1zLfmoymdXo17xh5zmRJ6Q42BWCfc2oJfdAr+Yv+AP9Cb7OJ3H/2JG1HNGz/84klThPVCc=);labelBackgroundColor=none;rounded=0;html=1;whiteSpace=wrap;fontStyle=2;fontFamily=GOST type B;align=left;fontSize=16;spacingLeft=4;" parent="1" vertex="1">
          <mxGeometry x="195.5" y="809" width="460" height="34" as="geometry" />
        </mxCell>
        <mxCell id="M4-_52vN5Fsn0eyjyp_X-209" value="" style="vsdxID=130;fillColor=none;gradientColor=none;shape=stencil(nZBLDoAgDERP0z3SIyjew0SURgSD+Lu9kMZoXLhwN9O+tukAlrNpJg1SzDH4QW/URgNYgZTkjA4UkwJUgGXng+6DX1zLfmoymdXo17xh5zmRJ6Q42BWCfc2oJfdAr+Yv+AP9Cb7OJ3H/2JG1HNGz/84klThPVCc=);labelBackgroundColor=none;rounded=0;html=1;whiteSpace=wrap;fontStyle=2;fontFamily=GOST type B;align=center;fontSize=16;" parent="1" vertex="1">
          <mxGeometry x="654.5" y="809" width="40" height="34" as="geometry" />
        </mxCell>
        <mxCell id="M4-_52vN5Fsn0eyjyp_X-210" value="" style="vsdxID=127;fillColor=none;gradientColor=none;shape=stencil(nZBLDoAgDERP0z3SIyjew0SURgSD+Lu9kMZoXLhwN9O+tukAlrNpJg1SzDH4QW/URgNYgZTkjA4UkwJUgGXng+6DX1zLfmoymdXo17xh5zmRJ6Q42BWCfc2oJfdAr+Yv+AP9Cb7OJ3H/2JG1HNGz/84klThPVCc=);labelBackgroundColor=none;rounded=0;html=1;whiteSpace=wrap;fontStyle=2;fontFamily=GOST type B;align=center;fontSize=16;" parent="1" vertex="1">
          <mxGeometry x="695" y="809" width="120" height="34" as="geometry" />
        </mxCell>
        <mxCell id="M4-_52vN5Fsn0eyjyp_X-211" value="" style="vsdxID=128;fillColor=none;gradientColor=none;shape=stencil(nZBLDoAgDERP0z3SIyjew0SURgSD+Lu9kMZoXLhwN9O+tukAlrNpJg1SzDH4QW/URgNYgZTkjA4UkwJUgGXng+6DX1zLfmoymdXo17xh5zmRJ6Q42BWCfc2oJfdAr+Yv+AP9Cb7OJ3H/2JG1HNGz/84klThPVCc=);labelBackgroundColor=none;rounded=0;html=1;whiteSpace=wrap;fontStyle=2;fontFamily=GOST type B;align=center;fontSize=16;spacingLeft=0;" parent="1" vertex="1">
          <mxGeometry x="75" y="843" width="120" height="34" as="geometry" />
        </mxCell>
        <mxCell id="M4-_52vN5Fsn0eyjyp_X-212" value="" style="vsdxID=129;fillColor=none;gradientColor=none;shape=stencil(nZBLDoAgDERP0z3SIyjew0SURgSD+Lu9kMZoXLhwN9O+tukAlrNpJg1SzDH4QW/URgNYgZTkjA4UkwJUgGXng+6DX1zLfmoymdXo17xh5zmRJ6Q42BWCfc2oJfdAr+Yv+AP9Cb7OJ3H/2JG1HNGz/84klThPVCc=);labelBackgroundColor=none;rounded=0;html=1;whiteSpace=wrap;fontStyle=2;fontFamily=GOST type B;align=left;fontSize=16;spacingLeft=4;" parent="1" vertex="1">
          <mxGeometry x="195" y="843" width="460" height="34" as="geometry" />
        </mxCell>
        <mxCell id="M4-_52vN5Fsn0eyjyp_X-213" value="" style="vsdxID=130;fillColor=none;gradientColor=none;shape=stencil(nZBLDoAgDERP0z3SIyjew0SURgSD+Lu9kMZoXLhwN9O+tukAlrNpJg1SzDH4QW/URgNYgZTkjA4UkwJUgGXng+6DX1zLfmoymdXo17xh5zmRJ6Q42BWCfc2oJfdAr+Yv+AP9Cb7OJ3H/2JG1HNGz/84klThPVCc=);labelBackgroundColor=none;rounded=0;html=1;whiteSpace=wrap;fontStyle=2;fontFamily=GOST type B;align=center;fontSize=16;" parent="1" vertex="1">
          <mxGeometry x="654.75" y="843" width="40" height="34" as="geometry" />
        </mxCell>
        <mxCell id="M4-_52vN5Fsn0eyjyp_X-214" value="" style="vsdxID=127;fillColor=none;gradientColor=none;shape=stencil(nZBLDoAgDERP0z3SIyjew0SURgSD+Lu9kMZoXLhwN9O+tukAlrNpJg1SzDH4QW/URgNYgZTkjA4UkwJUgGXng+6DX1zLfmoymdXo17xh5zmRJ6Q42BWCfc2oJfdAr+Yv+AP9Cb7OJ3H/2JG1HNGz/84klThPVCc=);labelBackgroundColor=none;rounded=0;html=1;whiteSpace=wrap;fontStyle=2;fontFamily=GOST type B;align=center;fontSize=16;" parent="1" vertex="1">
          <mxGeometry x="694.5" y="843" width="120" height="34" as="geometry" />
        </mxCell>
        <mxCell id="M4-_52vN5Fsn0eyjyp_X-215" value="" style="vsdxID=128;fillColor=none;gradientColor=none;shape=stencil(nZBLDoAgDERP0z3SIyjew0SURgSD+Lu9kMZoXLhwN9O+tukAlrNpJg1SzDH4QW/URgNYgZTkjA4UkwJUgGXng+6DX1zLfmoymdXo17xh5zmRJ6Q42BWCfc2oJfdAr+Yv+AP9Cb7OJ3H/2JG1HNGz/84klThPVCc=);labelBackgroundColor=none;rounded=0;html=1;whiteSpace=wrap;fontStyle=2;fontFamily=GOST type B;align=center;fontSize=16;spacingLeft=0;" parent="1" vertex="1">
          <mxGeometry x="75" y="877" width="120" height="34" as="geometry" />
        </mxCell>
        <mxCell id="M4-_52vN5Fsn0eyjyp_X-216" value="" style="vsdxID=129;fillColor=none;gradientColor=none;shape=stencil(nZBLDoAgDERP0z3SIyjew0SURgSD+Lu9kMZoXLhwN9O+tukAlrNpJg1SzDH4QW/URgNYgZTkjA4UkwJUgGXng+6DX1zLfmoymdXo17xh5zmRJ6Q42BWCfc2oJfdAr+Yv+AP9Cb7OJ3H/2JG1HNGz/84klThPVCc=);labelBackgroundColor=none;rounded=0;html=1;whiteSpace=wrap;fontStyle=2;fontFamily=GOST type B;align=left;fontSize=16;spacingLeft=4;" parent="1" vertex="1">
          <mxGeometry x="195" y="877" width="460" height="34" as="geometry" />
        </mxCell>
        <mxCell id="M4-_52vN5Fsn0eyjyp_X-217" value="" style="vsdxID=130;fillColor=none;gradientColor=none;shape=stencil(nZBLDoAgDERP0z3SIyjew0SURgSD+Lu9kMZoXLhwN9O+tukAlrNpJg1SzDH4QW/URgNYgZTkjA4UkwJUgGXng+6DX1zLfmoymdXo17xh5zmRJ6Q42BWCfc2oJfdAr+Yv+AP9Cb7OJ3H/2JG1HNGz/84klThPVCc=);labelBackgroundColor=none;rounded=0;html=1;whiteSpace=wrap;fontStyle=2;fontFamily=GOST type B;align=center;fontSize=16;" parent="1" vertex="1">
          <mxGeometry x="654" y="877" width="40" height="34" as="geometry" />
        </mxCell>
        <mxCell id="M4-_52vN5Fsn0eyjyp_X-218" value="" style="vsdxID=127;fillColor=none;gradientColor=none;shape=stencil(nZBLDoAgDERP0z3SIyjew0SURgSD+Lu9kMZoXLhwN9O+tukAlrNpJg1SzDH4QW/URgNYgZTkjA4UkwJUgGXng+6DX1zLfmoymdXo17xh5zmRJ6Q42BWCfc2oJfdAr+Yv+AP9Cb7OJ3H/2JG1HNGz/84klThPVCc=);labelBackgroundColor=none;rounded=0;html=1;whiteSpace=wrap;fontStyle=2;fontFamily=GOST type B;align=center;fontSize=16;" parent="1" vertex="1">
          <mxGeometry x="694.5" y="877" width="120" height="34" as="geometry" />
        </mxCell>
        <mxCell id="M4-_52vN5Fsn0eyjyp_X-227" value="XP0..XP2" style="vsdxID=128;fillColor=none;gradientColor=none;shape=stencil(nZBLDoAgDERP0z3SIyjew0SURgSD+Lu9kMZoXLhwN9O+tukAlrNpJg1SzDH4QW/URgNYgZTkjA4UkwJUgGXng+6DX1zLfmoymdXo17xh5zmRJ6Q42BWCfc2oJfdAr+Yv+AP9Cb7OJ3H/2JG1HNGz/84klThPVCc=);labelBackgroundColor=none;rounded=0;html=1;whiteSpace=wrap;fontStyle=2;fontFamily=GOST type B;align=center;fontSize=16;spacingLeft=0;" parent="1" vertex="1">
          <mxGeometry x="75.5" y="1466" width="120" height="32" as="geometry" />
        </mxCell>
        <mxCell id="M4-_52vN5Fsn0eyjyp_X-228" value="Разъем штыревой PLS-4" style="vsdxID=129;fillColor=none;gradientColor=none;shape=stencil(nZBLDoAgDERP0z3SIyjew0SURgSD+Lu9kMZoXLhwN9O+tukAlrNpJg1SzDH4QW/URgNYgZTkjA4UkwJUgGXng+6DX1zLfmoymdXo17xh5zmRJ6Q42BWCfc2oJfdAr+Yv+AP9Cb7OJ3H/2JG1HNGz/84klThPVCc=);labelBackgroundColor=none;rounded=0;html=1;whiteSpace=wrap;fontStyle=2;fontFamily=GOST type B;align=left;fontSize=16;spacingLeft=4;" parent="1" vertex="1">
          <mxGeometry x="195.5" y="1466" width="460" height="32" as="geometry" />
        </mxCell>
        <mxCell id="M4-_52vN5Fsn0eyjyp_X-229" value="3" style="vsdxID=130;fillColor=none;gradientColor=none;shape=stencil(nZBLDoAgDERP0z3SIyjew0SURgSD+Lu9kMZoXLhwN9O+tukAlrNpJg1SzDH4QW/URgNYgZTkjA4UkwJUgGXng+6DX1zLfmoymdXo17xh5zmRJ6Q42BWCfc2oJfdAr+Yv+AP9Cb7OJ3H/2JG1HNGz/84klThPVCc=);labelBackgroundColor=none;rounded=0;html=1;whiteSpace=wrap;fontStyle=2;fontFamily=GOST type B;align=center;fontSize=16;" parent="1" vertex="1">
          <mxGeometry x="655.5" y="1466" width="39" height="32" as="geometry" />
        </mxCell>
        <mxCell id="M4-_52vN5Fsn0eyjyp_X-230" value="KLS" style="vsdxID=127;fillColor=none;gradientColor=none;shape=stencil(nZBLDoAgDERP0z3SIyjew0SURgSD+Lu9kMZoXLhwN9O+tukAlrNpJg1SzDH4QW/URgNYgZTkjA4UkwJUgGXng+6DX1zLfmoymdXo17xh5zmRJ6Q42BWCfc2oJfdAr+Yv+AP9Cb7OJ3H/2JG1HNGz/84klThPVCc=);labelBackgroundColor=none;rounded=0;html=1;whiteSpace=wrap;fontStyle=2;fontFamily=GOST type B;align=center;fontSize=16;" parent="1" vertex="1">
          <mxGeometry x="695" y="1466" width="120" height="32" as="geometry" />
        </mxCell>
        <mxCell id="M4-_52vN5Fsn0eyjyp_X-231" value="XP3" style="vsdxID=128;fillColor=none;gradientColor=none;shape=stencil(nZBLDoAgDERP0z3SIyjew0SURgSD+Lu9kMZoXLhwN9O+tukAlrNpJg1SzDH4QW/URgNYgZTkjA4UkwJUgGXng+6DX1zLfmoymdXo17xh5zmRJ6Q42BWCfc2oJfdAr+Yv+AP9Cb7OJ3H/2JG1HNGz/84klThPVCc=);labelBackgroundColor=none;rounded=0;html=1;whiteSpace=wrap;fontStyle=2;fontFamily=GOST type B;align=center;fontSize=16;spacingLeft=0;" parent="1" vertex="1">
          <mxGeometry x="75" y="1498" width="120" height="32" as="geometry" />
        </mxCell>
        <mxCell id="M4-_52vN5Fsn0eyjyp_X-232" value="Разъем штыревой PLS-3" style="vsdxID=129;fillColor=none;gradientColor=none;shape=stencil(nZBLDoAgDERP0z3SIyjew0SURgSD+Lu9kMZoXLhwN9O+tukAlrNpJg1SzDH4QW/URgNYgZTkjA4UkwJUgGXng+6DX1zLfmoymdXo17xh5zmRJ6Q42BWCfc2oJfdAr+Yv+AP9Cb7OJ3H/2JG1HNGz/84klThPVCc=);labelBackgroundColor=none;rounded=0;html=1;whiteSpace=wrap;fontStyle=2;fontFamily=GOST type B;align=left;fontSize=16;spacingLeft=4;" parent="1" vertex="1">
          <mxGeometry x="195" y="1498" width="460" height="32" as="geometry" />
        </mxCell>
        <mxCell id="M4-_52vN5Fsn0eyjyp_X-233" value="1" style="vsdxID=130;fillColor=none;gradientColor=none;shape=stencil(nZBLDoAgDERP0z3SIyjew0SURgSD+Lu9kMZoXLhwN9O+tukAlrNpJg1SzDH4QW/URgNYgZTkjA4UkwJUgGXng+6DX1zLfmoymdXo17xh5zmRJ6Q42BWCfc2oJfdAr+Yv+AP9Cb7OJ3H/2JG1HNGz/84klThPVCc=);labelBackgroundColor=none;rounded=0;html=1;whiteSpace=wrap;fontStyle=2;fontFamily=GOST type B;align=center;fontSize=16;" parent="1" vertex="1">
          <mxGeometry x="655" y="1498" width="39" height="32" as="geometry" />
        </mxCell>
        <mxCell id="M4-_52vN5Fsn0eyjyp_X-234" value="KLS" style="vsdxID=127;fillColor=none;gradientColor=none;shape=stencil(nZBLDoAgDERP0z3SIyjew0SURgSD+Lu9kMZoXLhwN9O+tukAlrNpJg1SzDH4QW/URgNYgZTkjA4UkwJUgGXng+6DX1zLfmoymdXo17xh5zmRJ6Q42BWCfc2oJfdAr+Yv+AP9Cb7OJ3H/2JG1HNGz/84klThPVCc=);labelBackgroundColor=none;rounded=0;html=1;whiteSpace=wrap;fontStyle=2;fontFamily=GOST type B;align=center;fontSize=16;" parent="1" vertex="1">
          <mxGeometry x="694.5" y="1498" width="120" height="32" as="geometry" />
        </mxCell>
        <mxCell id="M4-_52vN5Fsn0eyjyp_X-235" value="XS2" style="vsdxID=128;fillColor=none;gradientColor=none;shape=stencil(nZBLDoAgDERP0z3SIyjew0SURgSD+Lu9kMZoXLhwN9O+tukAlrNpJg1SzDH4QW/URgNYgZTkjA4UkwJUgGXng+6DX1zLfmoymdXo17xh5zmRJ6Q42BWCfc2oJfdAr+Yv+AP9Cb7OJ3H/2JG1HNGz/84klThPVCc=);labelBackgroundColor=none;rounded=0;html=1;whiteSpace=wrap;fontStyle=2;fontFamily=GOST type B;align=center;fontSize=16;spacingLeft=0;" parent="1" vertex="1">
          <mxGeometry x="75.5" y="1530" width="120" height="32" as="geometry" />
        </mxCell>
        <mxCell id="M4-_52vN5Fsn0eyjyp_X-236" value="Зажимная рейка 236-402" style="vsdxID=129;fillColor=none;gradientColor=none;shape=stencil(nZBLDoAgDERP0z3SIyjew0SURgSD+Lu9kMZoXLhwN9O+tukAlrNpJg1SzDH4QW/URgNYgZTkjA4UkwJUgGXng+6DX1zLfmoymdXo17xh5zmRJ6Q42BWCfc2oJfdAr+Yv+AP9Cb7OJ3H/2JG1HNGz/84klThPVCc=);labelBackgroundColor=none;rounded=0;html=1;whiteSpace=wrap;fontStyle=2;fontFamily=GOST type B;align=left;fontSize=16;spacingLeft=4;" parent="1" vertex="1">
          <mxGeometry x="195.5" y="1530" width="460" height="32" as="geometry" />
        </mxCell>
        <mxCell id="M4-_52vN5Fsn0eyjyp_X-237" value="1" style="vsdxID=130;fillColor=none;gradientColor=none;shape=stencil(nZBLDoAgDERP0z3SIyjew0SURgSD+Lu9kMZoXLhwN9O+tukAlrNpJg1SzDH4QW/URgNYgZTkjA4UkwJUgGXng+6DX1zLfmoymdXo17xh5zmRJ6Q42BWCfc2oJfdAr+Yv+AP9Cb7OJ3H/2JG1HNGz/84klThPVCc=);labelBackgroundColor=none;rounded=0;html=1;whiteSpace=wrap;fontStyle=2;fontFamily=GOST type B;align=center;fontSize=16;" parent="1" vertex="1">
          <mxGeometry x="655.5" y="1530" width="39" height="32" as="geometry" />
        </mxCell>
        <mxCell id="M4-_52vN5Fsn0eyjyp_X-238" value="WAGO" style="vsdxID=127;fillColor=none;gradientColor=none;shape=stencil(nZBLDoAgDERP0z3SIyjew0SURgSD+Lu9kMZoXLhwN9O+tukAlrNpJg1SzDH4QW/URgNYgZTkjA4UkwJUgGXng+6DX1zLfmoymdXo17xh5zmRJ6Q42BWCfc2oJfdAr+Yv+AP9Cb7OJ3H/2JG1HNGz/84klThPVCc=);labelBackgroundColor=none;rounded=0;html=1;whiteSpace=wrap;fontStyle=2;fontFamily=GOST type B;align=center;fontSize=16;" parent="1" vertex="1">
          <mxGeometry x="695" y="1530" width="120" height="32" as="geometry" />
        </mxCell>
        <mxCell id="M4-_52vN5Fsn0eyjyp_X-239" value="XP0..XP1" style="vsdxID=128;fillColor=none;gradientColor=none;shape=stencil(nZBLDoAgDERP0z3SIyjew0SURgSD+Lu9kMZoXLhwN9O+tukAlrNpJg1SzDH4QW/URgNYgZTkjA4UkwJUgGXng+6DX1zLfmoymdXo17xh5zmRJ6Q42BWCfc2oJfdAr+Yv+AP9Cb7OJ3H/2JG1HNGz/84klThPVCc=);labelBackgroundColor=none;rounded=0;html=1;whiteSpace=wrap;fontStyle=2;fontFamily=GOST type B;align=center;fontSize=16;spacingLeft=0;" parent="1" vertex="1">
          <mxGeometry x="75" y="1562" width="120" height="32" as="geometry" />
        </mxCell>
        <mxCell id="M4-_52vN5Fsn0eyjyp_X-240" value="Разъем штыревой PLS-4" style="vsdxID=129;fillColor=none;gradientColor=none;shape=stencil(nZBLDoAgDERP0z3SIyjew0SURgSD+Lu9kMZoXLhwN9O+tukAlrNpJg1SzDH4QW/URgNYgZTkjA4UkwJUgGXng+6DX1zLfmoymdXo17xh5zmRJ6Q42BWCfc2oJfdAr+Yv+AP9Cb7OJ3H/2JG1HNGz/84klThPVCc=);labelBackgroundColor=none;rounded=0;html=1;whiteSpace=wrap;fontStyle=2;fontFamily=GOST type B;align=left;fontSize=16;spacingLeft=4;" parent="1" vertex="1">
          <mxGeometry x="195" y="1562" width="460" height="32" as="geometry" />
        </mxCell>
        <mxCell id="M4-_52vN5Fsn0eyjyp_X-241" value="2" style="vsdxID=130;fillColor=none;gradientColor=none;shape=stencil(nZBLDoAgDERP0z3SIyjew0SURgSD+Lu9kMZoXLhwN9O+tukAlrNpJg1SzDH4QW/URgNYgZTkjA4UkwJUgGXng+6DX1zLfmoymdXo17xh5zmRJ6Q42BWCfc2oJfdAr+Yv+AP9Cb7OJ3H/2JG1HNGz/84klThPVCc=);labelBackgroundColor=none;rounded=0;html=1;whiteSpace=wrap;fontStyle=2;fontFamily=GOST type B;align=center;fontSize=16;" parent="1" vertex="1">
          <mxGeometry x="655" y="1562" width="39" height="32" as="geometry" />
        </mxCell>
        <mxCell id="M4-_52vN5Fsn0eyjyp_X-242" value="KLS" style="vsdxID=127;fillColor=none;gradientColor=none;shape=stencil(nZBLDoAgDERP0z3SIyjew0SURgSD+Lu9kMZoXLhwN9O+tukAlrNpJg1SzDH4QW/URgNYgZTkjA4UkwJUgGXng+6DX1zLfmoymdXo17xh5zmRJ6Q42BWCfc2oJfdAr+Yv+AP9Cb7OJ3H/2JG1HNGz/84klThPVCc=);labelBackgroundColor=none;rounded=0;html=1;whiteSpace=wrap;fontStyle=2;fontFamily=GOST type B;align=center;fontSize=16;" parent="1" vertex="1">
          <mxGeometry x="694.5" y="1562" width="120" height="32" as="geometry" />
        </mxCell>
        <mxCell id="M4-_52vN5Fsn0eyjyp_X-243" value="" style="vsdxID=128;fillColor=none;gradientColor=none;shape=stencil(nZBLDoAgDERP0z3SIyjew0SURgSD+Lu9kMZoXLhwN9O+tukAlrNpJg1SzDH4QW/URgNYgZTkjA4UkwJUgGXng+6DX1zLfmoymdXo17xh5zmRJ6Q42BWCfc2oJfdAr+Yv+AP9Cb7OJ3H/2JG1HNGz/84klThPVCc=);labelBackgroundColor=none;rounded=0;html=1;whiteSpace=wrap;fontStyle=2;fontFamily=GOST type B;align=center;fontSize=16;spacingLeft=0;" parent="1" vertex="1">
          <mxGeometry x="75.5" y="1594" width="120" height="32" as="geometry" />
        </mxCell>
        <mxCell id="M4-_52vN5Fsn0eyjyp_X-244" value="" style="vsdxID=129;fillColor=none;gradientColor=none;shape=stencil(nZBLDoAgDERP0z3SIyjew0SURgSD+Lu9kMZoXLhwN9O+tukAlrNpJg1SzDH4QW/URgNYgZTkjA4UkwJUgGXng+6DX1zLfmoymdXo17xh5zmRJ6Q42BWCfc2oJfdAr+Yv+AP9Cb7OJ3H/2JG1HNGz/84klThPVCc=);labelBackgroundColor=none;rounded=0;html=1;whiteSpace=wrap;fontStyle=2;fontFamily=GOST type B;align=left;fontSize=16;spacingLeft=4;" parent="1" vertex="1">
          <mxGeometry x="195.5" y="1594" width="460" height="32" as="geometry" />
        </mxCell>
        <mxCell id="M4-_52vN5Fsn0eyjyp_X-245" value="" style="vsdxID=130;fillColor=none;gradientColor=none;shape=stencil(nZBLDoAgDERP0z3SIyjew0SURgSD+Lu9kMZoXLhwN9O+tukAlrNpJg1SzDH4QW/URgNYgZTkjA4UkwJUgGXng+6DX1zLfmoymdXo17xh5zmRJ6Q42BWCfc2oJfdAr+Yv+AP9Cb7OJ3H/2JG1HNGz/84klThPVCc=);labelBackgroundColor=none;rounded=0;html=1;whiteSpace=wrap;fontStyle=2;fontFamily=GOST type B;align=center;fontSize=16;" parent="1" vertex="1">
          <mxGeometry x="655.5" y="1594" width="39" height="32" as="geometry" />
        </mxCell>
        <mxCell id="M4-_52vN5Fsn0eyjyp_X-246" value="" style="vsdxID=127;fillColor=none;gradientColor=none;shape=stencil(nZBLDoAgDERP0z3SIyjew0SURgSD+Lu9kMZoXLhwN9O+tukAlrNpJg1SzDH4QW/URgNYgZTkjA4UkwJUgGXng+6DX1zLfmoymdXo17xh5zmRJ6Q42BWCfc2oJfdAr+Yv+AP9Cb7OJ3H/2JG1HNGz/84klThPVCc=);labelBackgroundColor=none;rounded=0;html=1;whiteSpace=wrap;fontStyle=2;fontFamily=GOST type B;align=center;fontSize=16;" parent="1" vertex="1">
          <mxGeometry x="695" y="1594" width="120" height="32" as="geometry" />
        </mxCell>
        <mxCell id="M4-_52vN5Fsn0eyjyp_X-247" value="" style="vsdxID=128;fillColor=none;gradientColor=none;shape=stencil(nZBLDoAgDERP0z3SIyjew0SURgSD+Lu9kMZoXLhwN9O+tukAlrNpJg1SzDH4QW/URgNYgZTkjA4UkwJUgGXng+6DX1zLfmoymdXo17xh5zmRJ6Q42BWCfc2oJfdAr+Yv+AP9Cb7OJ3H/2JG1HNGz/84klThPVCc=);labelBackgroundColor=none;rounded=0;html=1;whiteSpace=wrap;fontStyle=2;fontFamily=GOST type B;align=center;fontSize=16;spacingLeft=0;" parent="1" vertex="1">
          <mxGeometry x="75.5" y="1626" width="120" height="32" as="geometry" />
        </mxCell>
        <mxCell id="M4-_52vN5Fsn0eyjyp_X-248" value="" style="vsdxID=129;fillColor=none;gradientColor=none;shape=stencil(nZBLDoAgDERP0z3SIyjew0SURgSD+Lu9kMZoXLhwN9O+tukAlrNpJg1SzDH4QW/URgNYgZTkjA4UkwJUgGXng+6DX1zLfmoymdXo17xh5zmRJ6Q42BWCfc2oJfdAr+Yv+AP9Cb7OJ3H/2JG1HNGz/84klThPVCc=);labelBackgroundColor=none;rounded=0;html=1;whiteSpace=wrap;fontStyle=2;fontFamily=GOST type B;align=left;fontSize=16;spacingLeft=4;" parent="1" vertex="1">
          <mxGeometry x="195.5" y="1626" width="460" height="32" as="geometry" />
        </mxCell>
        <mxCell id="M4-_52vN5Fsn0eyjyp_X-249" value="" style="vsdxID=130;fillColor=none;gradientColor=none;shape=stencil(nZBLDoAgDERP0z3SIyjew0SURgSD+Lu9kMZoXLhwN9O+tukAlrNpJg1SzDH4QW/URgNYgZTkjA4UkwJUgGXng+6DX1zLfmoymdXo17xh5zmRJ6Q42BWCfc2oJfdAr+Yv+AP9Cb7OJ3H/2JG1HNGz/84klThPVCc=);labelBackgroundColor=none;rounded=0;html=1;whiteSpace=wrap;fontStyle=2;fontFamily=GOST type B;align=center;fontSize=16;" parent="1" vertex="1">
          <mxGeometry x="655.5" y="1626" width="39" height="32" as="geometry" />
        </mxCell>
        <mxCell id="M4-_52vN5Fsn0eyjyp_X-250" value="" style="vsdxID=127;fillColor=none;gradientColor=none;shape=stencil(nZBLDoAgDERP0z3SIyjew0SURgSD+Lu9kMZoXLhwN9O+tukAlrNpJg1SzDH4QW/URgNYgZTkjA4UkwJUgGXng+6DX1zLfmoymdXo17xh5zmRJ6Q42BWCfc2oJfdAr+Yv+AP9Cb7OJ3H/2JG1HNGz/84klThPVCc=);labelBackgroundColor=none;rounded=0;html=1;whiteSpace=wrap;fontStyle=2;fontFamily=GOST type B;align=center;fontSize=16;" parent="1" vertex="1">
          <mxGeometry x="695" y="1626" width="120" height="32" as="geometry" />
        </mxCell>
        <mxCell id="M4-_52vN5Fsn0eyjyp_X-251" value="" style="vsdxID=128;fillColor=none;gradientColor=none;shape=stencil(nZBLDoAgDERP0z3SIyjew0SURgSD+Lu9kMZoXLhwN9O+tukAlrNpJg1SzDH4QW/URgNYgZTkjA4UkwJUgGXng+6DX1zLfmoymdXo17xh5zmRJ6Q42BWCfc2oJfdAr+Yv+AP9Cb7OJ3H/2JG1HNGz/84klThPVCc=);labelBackgroundColor=none;rounded=0;html=1;whiteSpace=wrap;fontStyle=2;fontFamily=GOST type B;align=center;fontSize=16;spacingLeft=0;" parent="1" vertex="1">
          <mxGeometry x="75.5" y="1658" width="120" height="32" as="geometry" />
        </mxCell>
        <mxCell id="M4-_52vN5Fsn0eyjyp_X-252" value="" style="vsdxID=129;fillColor=none;gradientColor=none;shape=stencil(nZBLDoAgDERP0z3SIyjew0SURgSD+Lu9kMZoXLhwN9O+tukAlrNpJg1SzDH4QW/URgNYgZTkjA4UkwJUgGXng+6DX1zLfmoymdXo17xh5zmRJ6Q42BWCfc2oJfdAr+Yv+AP9Cb7OJ3H/2JG1HNGz/84klThPVCc=);labelBackgroundColor=none;rounded=0;html=1;whiteSpace=wrap;fontStyle=2;fontFamily=GOST type B;align=left;fontSize=16;spacingLeft=4;" parent="1" vertex="1">
          <mxGeometry x="195.5" y="1658" width="460" height="32" as="geometry" />
        </mxCell>
        <mxCell id="M4-_52vN5Fsn0eyjyp_X-253" value="" style="vsdxID=130;fillColor=none;gradientColor=none;shape=stencil(nZBLDoAgDERP0z3SIyjew0SURgSD+Lu9kMZoXLhwN9O+tukAlrNpJg1SzDH4QW/URgNYgZTkjA4UkwJUgGXng+6DX1zLfmoymdXo17xh5zmRJ6Q42BWCfc2oJfdAr+Yv+AP9Cb7OJ3H/2JG1HNGz/84klThPVCc=);labelBackgroundColor=none;rounded=0;html=1;whiteSpace=wrap;fontStyle=2;fontFamily=GOST type B;align=center;fontSize=16;" parent="1" vertex="1">
          <mxGeometry x="655.5" y="1658" width="39" height="32" as="geometry" />
        </mxCell>
        <mxCell id="M4-_52vN5Fsn0eyjyp_X-254" value="" style="vsdxID=127;fillColor=none;gradientColor=none;shape=stencil(nZBLDoAgDERP0z3SIyjew0SURgSD+Lu9kMZoXLhwN9O+tukAlrNpJg1SzDH4QW/URgNYgZTkjA4UkwJUgGXng+6DX1zLfmoymdXo17xh5zmRJ6Q42BWCfc2oJfdAr+Yv+AP9Cb7OJ3H/2JG1HNGz/84klThPVCc=);labelBackgroundColor=none;rounded=0;html=1;whiteSpace=wrap;fontStyle=2;fontFamily=GOST type B;align=center;fontSize=16;" parent="1" vertex="1">
          <mxGeometry x="695" y="1658" width="120" height="32" as="geometry" />
        </mxCell>
        <mxCell id="M4-_52vN5Fsn0eyjyp_X-263" value="" style="vsdxID=128;fillColor=none;gradientColor=none;shape=stencil(nZBLDoAgDERP0z3SIyjew0SURgSD+Lu9kMZoXLhwN9O+tukAlrNpJg1SzDH4QW/URgNYgZTkjA4UkwJUgGXng+6DX1zLfmoymdXo17xh5zmRJ6Q42BWCfc2oJfdAr+Yv+AP9Cb7OJ3H/2JG1HNGz/84klThPVCc=);labelBackgroundColor=none;rounded=0;html=1;whiteSpace=wrap;fontStyle=2;fontFamily=GOST type B;align=center;fontSize=16;spacingLeft=0;" parent="1" vertex="1">
          <mxGeometry x="75.5" y="1690" width="120" height="32" as="geometry" />
        </mxCell>
        <mxCell id="M4-_52vN5Fsn0eyjyp_X-264" value="" style="vsdxID=129;fillColor=none;gradientColor=none;shape=stencil(nZBLDoAgDERP0z3SIyjew0SURgSD+Lu9kMZoXLhwN9O+tukAlrNpJg1SzDH4QW/URgNYgZTkjA4UkwJUgGXng+6DX1zLfmoymdXo17xh5zmRJ6Q42BWCfc2oJfdAr+Yv+AP9Cb7OJ3H/2JG1HNGz/84klThPVCc=);labelBackgroundColor=none;rounded=0;html=1;whiteSpace=wrap;fontStyle=2;fontFamily=GOST type B;align=left;fontSize=16;spacingLeft=4;" parent="1" vertex="1">
          <mxGeometry x="195.5" y="1690" width="460" height="32" as="geometry" />
        </mxCell>
        <mxCell id="M4-_52vN5Fsn0eyjyp_X-265" value="" style="vsdxID=130;fillColor=none;gradientColor=none;shape=stencil(nZBLDoAgDERP0z3SIyjew0SURgSD+Lu9kMZoXLhwN9O+tukAlrNpJg1SzDH4QW/URgNYgZTkjA4UkwJUgGXng+6DX1zLfmoymdXo17xh5zmRJ6Q42BWCfc2oJfdAr+Yv+AP9Cb7OJ3H/2JG1HNGz/84klThPVCc=);labelBackgroundColor=none;rounded=0;html=1;whiteSpace=wrap;fontStyle=2;fontFamily=GOST type B;align=center;fontSize=16;" parent="1" vertex="1">
          <mxGeometry x="655.5" y="1690" width="39" height="32" as="geometry" />
        </mxCell>
        <mxCell id="M4-_52vN5Fsn0eyjyp_X-266" value="" style="vsdxID=127;fillColor=none;gradientColor=none;shape=stencil(nZBLDoAgDERP0z3SIyjew0SURgSD+Lu9kMZoXLhwN9O+tukAlrNpJg1SzDH4QW/URgNYgZTkjA4UkwJUgGXng+6DX1zLfmoymdXo17xh5zmRJ6Q42BWCfc2oJfdAr+Yv+AP9Cb7OJ3H/2JG1HNGz/84klThPVCc=);labelBackgroundColor=none;rounded=0;html=1;whiteSpace=wrap;fontStyle=2;fontFamily=GOST type B;align=center;fontSize=16;" parent="1" vertex="1">
          <mxGeometry x="695" y="1690" width="120" height="32" as="geometry" />
        </mxCell>
        <mxCell id="M4-_52vN5Fsn0eyjyp_X-267" value="" style="vsdxID=128;fillColor=none;gradientColor=none;shape=stencil(nZBLDoAgDERP0z3SIyjew0SURgSD+Lu9kMZoXLhwN9O+tukAlrNpJg1SzDH4QW/URgNYgZTkjA4UkwJUgGXng+6DX1zLfmoymdXo17xh5zmRJ6Q42BWCfc2oJfdAr+Yv+AP9Cb7OJ3H/2JG1HNGz/84klThPVCc=);labelBackgroundColor=none;rounded=0;html=1;whiteSpace=wrap;fontStyle=2;fontFamily=GOST type B;align=center;fontSize=16;spacingLeft=0;" parent="1" vertex="1">
          <mxGeometry x="75.5" y="1722" width="120" height="32" as="geometry" />
        </mxCell>
        <mxCell id="M4-_52vN5Fsn0eyjyp_X-268" value="" style="vsdxID=129;fillColor=none;gradientColor=none;shape=stencil(nZBLDoAgDERP0z3SIyjew0SURgSD+Lu9kMZoXLhwN9O+tukAlrNpJg1SzDH4QW/URgNYgZTkjA4UkwJUgGXng+6DX1zLfmoymdXo17xh5zmRJ6Q42BWCfc2oJfdAr+Yv+AP9Cb7OJ3H/2JG1HNGz/84klThPVCc=);labelBackgroundColor=none;rounded=0;html=1;whiteSpace=wrap;fontStyle=2;fontFamily=GOST type B;align=left;fontSize=16;spacingLeft=4;" parent="1" vertex="1">
          <mxGeometry x="195.5" y="1722" width="460" height="32" as="geometry" />
        </mxCell>
        <mxCell id="M4-_52vN5Fsn0eyjyp_X-269" value="" style="vsdxID=130;fillColor=none;gradientColor=none;shape=stencil(nZBLDoAgDERP0z3SIyjew0SURgSD+Lu9kMZoXLhwN9O+tukAlrNpJg1SzDH4QW/URgNYgZTkjA4UkwJUgGXng+6DX1zLfmoymdXo17xh5zmRJ6Q42BWCfc2oJfdAr+Yv+AP9Cb7OJ3H/2JG1HNGz/84klThPVCc=);labelBackgroundColor=none;rounded=0;html=1;whiteSpace=wrap;fontStyle=2;fontFamily=GOST type B;align=center;fontSize=16;" parent="1" vertex="1">
          <mxGeometry x="655.5" y="1722" width="39" height="32" as="geometry" />
        </mxCell>
        <mxCell id="M4-_52vN5Fsn0eyjyp_X-270" value="" style="vsdxID=127;fillColor=none;gradientColor=none;shape=stencil(nZBLDoAgDERP0z3SIyjew0SURgSD+Lu9kMZoXLhwN9O+tukAlrNpJg1SzDH4QW/URgNYgZTkjA4UkwJUgGXng+6DX1zLfmoymdXo17xh5zmRJ6Q42BWCfc2oJfdAr+Yv+AP9Cb7OJ3H/2JG1HNGz/84klThPVCc=);labelBackgroundColor=none;rounded=0;html=1;whiteSpace=wrap;fontStyle=2;fontFamily=GOST type B;align=center;fontSize=16;" parent="1" vertex="1">
          <mxGeometry x="695" y="1722" width="120" height="32" as="geometry" />
        </mxCell>
        <mxCell id="M4-_52vN5Fsn0eyjyp_X-271" value="" style="vsdxID=128;fillColor=none;gradientColor=none;shape=stencil(nZBLDoAgDERP0z3SIyjew0SURgSD+Lu9kMZoXLhwN9O+tukAlrNpJg1SzDH4QW/URgNYgZTkjA4UkwJUgGXng+6DX1zLfmoymdXo17xh5zmRJ6Q42BWCfc2oJfdAr+Yv+AP9Cb7OJ3H/2JG1HNGz/84klThPVCc=);labelBackgroundColor=none;rounded=0;html=1;whiteSpace=wrap;fontStyle=2;fontFamily=GOST type B;align=center;fontSize=16;spacingLeft=0;" parent="1" vertex="1">
          <mxGeometry x="75.5" y="1754" width="120" height="32" as="geometry" />
        </mxCell>
        <mxCell id="M4-_52vN5Fsn0eyjyp_X-272" value="" style="vsdxID=129;fillColor=none;gradientColor=none;shape=stencil(nZBLDoAgDERP0z3SIyjew0SURgSD+Lu9kMZoXLhwN9O+tukAlrNpJg1SzDH4QW/URgNYgZTkjA4UkwJUgGXng+6DX1zLfmoymdXo17xh5zmRJ6Q42BWCfc2oJfdAr+Yv+AP9Cb7OJ3H/2JG1HNGz/84klThPVCc=);labelBackgroundColor=none;rounded=0;html=1;whiteSpace=wrap;fontStyle=2;fontFamily=GOST type B;align=left;fontSize=16;spacingLeft=4;" parent="1" vertex="1">
          <mxGeometry x="195.5" y="1754" width="460" height="32" as="geometry" />
        </mxCell>
        <mxCell id="M4-_52vN5Fsn0eyjyp_X-273" value="" style="vsdxID=130;fillColor=none;gradientColor=none;shape=stencil(nZBLDoAgDERP0z3SIyjew0SURgSD+Lu9kMZoXLhwN9O+tukAlrNpJg1SzDH4QW/URgNYgZTkjA4UkwJUgGXng+6DX1zLfmoymdXo17xh5zmRJ6Q42BWCfc2oJfdAr+Yv+AP9Cb7OJ3H/2JG1HNGz/84klThPVCc=);labelBackgroundColor=none;rounded=0;html=1;whiteSpace=wrap;fontStyle=2;fontFamily=GOST type B;align=center;fontSize=16;" parent="1" vertex="1">
          <mxGeometry x="655.5" y="1754" width="39" height="32" as="geometry" />
        </mxCell>
        <mxCell id="M4-_52vN5Fsn0eyjyp_X-274" value="" style="vsdxID=127;fillColor=none;gradientColor=none;shape=stencil(nZBLDoAgDERP0z3SIyjew0SURgSD+Lu9kMZoXLhwN9O+tukAlrNpJg1SzDH4QW/URgNYgZTkjA4UkwJUgGXng+6DX1zLfmoymdXo17xh5zmRJ6Q42BWCfc2oJfdAr+Yv+AP9Cb7OJ3H/2JG1HNGz/84klThPVCc=);labelBackgroundColor=none;rounded=0;html=1;whiteSpace=wrap;fontStyle=2;fontFamily=GOST type B;align=center;fontSize=16;" parent="1" vertex="1">
          <mxGeometry x="695" y="1754" width="120" height="32" as="geometry" />
        </mxCell>
        <mxCell id="M4-_52vN5Fsn0eyjyp_X-275" value="" style="vsdxID=128;fillColor=none;gradientColor=none;shape=stencil(nZBLDoAgDERP0z3SIyjew0SURgSD+Lu9kMZoXLhwN9O+tukAlrNpJg1SzDH4QW/URgNYgZTkjA4UkwJUgGXng+6DX1zLfmoymdXo17xh5zmRJ6Q42BWCfc2oJfdAr+Yv+AP9Cb7OJ3H/2JG1HNGz/84klThPVCc=);labelBackgroundColor=none;rounded=0;html=1;whiteSpace=wrap;fontStyle=2;fontFamily=GOST type B;align=center;fontSize=16;spacingLeft=0;" parent="1" vertex="1">
          <mxGeometry x="75.5" y="1786" width="120" height="32" as="geometry" />
        </mxCell>
        <mxCell id="M4-_52vN5Fsn0eyjyp_X-276" value="" style="vsdxID=129;fillColor=none;gradientColor=none;shape=stencil(nZBLDoAgDERP0z3SIyjew0SURgSD+Lu9kMZoXLhwN9O+tukAlrNpJg1SzDH4QW/URgNYgZTkjA4UkwJUgGXng+6DX1zLfmoymdXo17xh5zmRJ6Q42BWCfc2oJfdAr+Yv+AP9Cb7OJ3H/2JG1HNGz/84klThPVCc=);labelBackgroundColor=none;rounded=0;html=1;whiteSpace=wrap;fontStyle=2;fontFamily=GOST type B;align=left;fontSize=16;spacingLeft=4;" parent="1" vertex="1">
          <mxGeometry x="195.5" y="1786" width="460" height="32" as="geometry" />
        </mxCell>
        <mxCell id="M4-_52vN5Fsn0eyjyp_X-277" value="" style="vsdxID=130;fillColor=none;gradientColor=none;shape=stencil(nZBLDoAgDERP0z3SIyjew0SURgSD+Lu9kMZoXLhwN9O+tukAlrNpJg1SzDH4QW/URgNYgZTkjA4UkwJUgGXng+6DX1zLfmoymdXo17xh5zmRJ6Q42BWCfc2oJfdAr+Yv+AP9Cb7OJ3H/2JG1HNGz/84klThPVCc=);labelBackgroundColor=none;rounded=0;html=1;whiteSpace=wrap;fontStyle=2;fontFamily=GOST type B;align=center;fontSize=16;" parent="1" vertex="1">
          <mxGeometry x="655.5" y="1786" width="39" height="32" as="geometry" />
        </mxCell>
        <mxCell id="M4-_52vN5Fsn0eyjyp_X-278" value="" style="vsdxID=127;fillColor=none;gradientColor=none;shape=stencil(nZBLDoAgDERP0z3SIyjew0SURgSD+Lu9kMZoXLhwN9O+tukAlrNpJg1SzDH4QW/URgNYgZTkjA4UkwJUgGXng+6DX1zLfmoymdXo17xh5zmRJ6Q42BWCfc2oJfdAr+Yv+AP9Cb7OJ3H/2JG1HNGz/84klThPVCc=);labelBackgroundColor=none;rounded=0;html=1;whiteSpace=wrap;fontStyle=2;fontFamily=GOST type B;align=center;fontSize=16;" parent="1" vertex="1">
          <mxGeometry x="695" y="1786" width="120" height="32" as="geometry" />
        </mxCell>
        <mxCell id="M4-_52vN5Fsn0eyjyp_X-279" value="" style="vsdxID=128;fillColor=none;gradientColor=none;shape=stencil(nZBLDoAgDERP0z3SIyjew0SURgSD+Lu9kMZoXLhwN9O+tukAlrNpJg1SzDH4QW/URgNYgZTkjA4UkwJUgGXng+6DX1zLfmoymdXo17xh5zmRJ6Q42BWCfc2oJfdAr+Yv+AP9Cb7OJ3H/2JG1HNGz/84klThPVCc=);labelBackgroundColor=none;rounded=0;html=1;whiteSpace=wrap;fontStyle=2;fontFamily=GOST type B;align=center;fontSize=16;spacingLeft=0;" parent="1" vertex="1">
          <mxGeometry x="75.5" y="1818" width="120" height="32" as="geometry" />
        </mxCell>
        <mxCell id="M4-_52vN5Fsn0eyjyp_X-280" value="" style="vsdxID=129;fillColor=none;gradientColor=none;shape=stencil(nZBLDoAgDERP0z3SIyjew0SURgSD+Lu9kMZoXLhwN9O+tukAlrNpJg1SzDH4QW/URgNYgZTkjA4UkwJUgGXng+6DX1zLfmoymdXo17xh5zmRJ6Q42BWCfc2oJfdAr+Yv+AP9Cb7OJ3H/2JG1HNGz/84klThPVCc=);labelBackgroundColor=none;rounded=0;html=1;whiteSpace=wrap;fontStyle=2;fontFamily=GOST type B;align=left;fontSize=16;spacingLeft=4;" parent="1" vertex="1">
          <mxGeometry x="195.5" y="1818" width="460" height="32" as="geometry" />
        </mxCell>
        <mxCell id="M4-_52vN5Fsn0eyjyp_X-281" value="" style="vsdxID=130;fillColor=none;gradientColor=none;shape=stencil(nZBLDoAgDERP0z3SIyjew0SURgSD+Lu9kMZoXLhwN9O+tukAlrNpJg1SzDH4QW/URgNYgZTkjA4UkwJUgGXng+6DX1zLfmoymdXo17xh5zmRJ6Q42BWCfc2oJfdAr+Yv+AP9Cb7OJ3H/2JG1HNGz/84klThPVCc=);labelBackgroundColor=none;rounded=0;html=1;whiteSpace=wrap;fontStyle=2;fontFamily=GOST type B;align=center;fontSize=16;" parent="1" vertex="1">
          <mxGeometry x="655.5" y="1818" width="39" height="32" as="geometry" />
        </mxCell>
        <mxCell id="M4-_52vN5Fsn0eyjyp_X-282" value="" style="vsdxID=127;fillColor=none;gradientColor=none;shape=stencil(nZBLDoAgDERP0z3SIyjew0SURgSD+Lu9kMZoXLhwN9O+tukAlrNpJg1SzDH4QW/URgNYgZTkjA4UkwJUgGXng+6DX1zLfmoymdXo17xh5zmRJ6Q42BWCfc2oJfdAr+Yv+AP9Cb7OJ3H/2JG1HNGz/84klThPVCc=);labelBackgroundColor=none;rounded=0;html=1;whiteSpace=wrap;fontStyle=2;fontFamily=GOST type B;align=center;fontSize=16;" parent="1" vertex="1">
          <mxGeometry x="695" y="1818" width="120" height="32" as="geometry" />
        </mxCell>
        <mxCell id="M4-_52vN5Fsn0eyjyp_X-283" value="" style="vsdxID=128;fillColor=none;gradientColor=none;shape=stencil(nZBLDoAgDERP0z3SIyjew0SURgSD+Lu9kMZoXLhwN9O+tukAlrNpJg1SzDH4QW/URgNYgZTkjA4UkwJUgGXng+6DX1zLfmoymdXo17xh5zmRJ6Q42BWCfc2oJfdAr+Yv+AP9Cb7OJ3H/2JG1HNGz/84klThPVCc=);labelBackgroundColor=none;rounded=0;html=1;whiteSpace=wrap;fontStyle=2;fontFamily=GOST type B;align=center;fontSize=16;spacingLeft=0;" parent="1" vertex="1">
          <mxGeometry x="75.5" y="1850" width="120" height="32" as="geometry" />
        </mxCell>
        <mxCell id="M4-_52vN5Fsn0eyjyp_X-284" value="" style="vsdxID=129;fillColor=none;gradientColor=none;shape=stencil(nZBLDoAgDERP0z3SIyjew0SURgSD+Lu9kMZoXLhwN9O+tukAlrNpJg1SzDH4QW/URgNYgZTkjA4UkwJUgGXng+6DX1zLfmoymdXo17xh5zmRJ6Q42BWCfc2oJfdAr+Yv+AP9Cb7OJ3H/2JG1HNGz/84klThPVCc=);labelBackgroundColor=none;rounded=0;html=1;whiteSpace=wrap;fontStyle=2;fontFamily=GOST type B;align=left;fontSize=16;spacingLeft=4;" parent="1" vertex="1">
          <mxGeometry x="195.5" y="1850" width="460" height="32" as="geometry" />
        </mxCell>
        <mxCell id="M4-_52vN5Fsn0eyjyp_X-285" value="" style="vsdxID=130;fillColor=none;gradientColor=none;shape=stencil(nZBLDoAgDERP0z3SIyjew0SURgSD+Lu9kMZoXLhwN9O+tukAlrNpJg1SzDH4QW/URgNYgZTkjA4UkwJUgGXng+6DX1zLfmoymdXo17xh5zmRJ6Q42BWCfc2oJfdAr+Yv+AP9Cb7OJ3H/2JG1HNGz/84klThPVCc=);labelBackgroundColor=none;rounded=0;html=1;whiteSpace=wrap;fontStyle=2;fontFamily=GOST type B;align=center;fontSize=16;" parent="1" vertex="1">
          <mxGeometry x="655.5" y="1850" width="39" height="32" as="geometry" />
        </mxCell>
        <mxCell id="M4-_52vN5Fsn0eyjyp_X-286" value="" style="vsdxID=127;fillColor=none;gradientColor=none;shape=stencil(nZBLDoAgDERP0z3SIyjew0SURgSD+Lu9kMZoXLhwN9O+tukAlrNpJg1SzDH4QW/URgNYgZTkjA4UkwJUgGXng+6DX1zLfmoymdXo17xh5zmRJ6Q42BWCfc2oJfdAr+Yv+AP9Cb7OJ3H/2JG1HNGz/84klThPVCc=);labelBackgroundColor=none;rounded=0;html=1;whiteSpace=wrap;fontStyle=2;fontFamily=GOST type B;align=center;fontSize=16;" parent="1" vertex="1">
          <mxGeometry x="695" y="1850" width="120" height="32" as="geometry" />
        </mxCell>
        <mxCell id="M4-_52vN5Fsn0eyjyp_X-287" value="" style="vsdxID=128;fillColor=none;gradientColor=none;shape=stencil(nZBLDoAgDERP0z3SIyjew0SURgSD+Lu9kMZoXLhwN9O+tukAlrNpJg1SzDH4QW/URgNYgZTkjA4UkwJUgGXng+6DX1zLfmoymdXo17xh5zmRJ6Q42BWCfc2oJfdAr+Yv+AP9Cb7OJ3H/2JG1HNGz/84klThPVCc=);labelBackgroundColor=none;rounded=0;html=1;whiteSpace=wrap;fontStyle=2;fontFamily=GOST type B;align=center;fontSize=16;spacingLeft=0;" parent="1" vertex="1">
          <mxGeometry x="75.5" y="1882" width="120" height="32" as="geometry" />
        </mxCell>
        <mxCell id="M4-_52vN5Fsn0eyjyp_X-288" value="" style="vsdxID=129;fillColor=none;gradientColor=none;shape=stencil(nZBLDoAgDERP0z3SIyjew0SURgSD+Lu9kMZoXLhwN9O+tukAlrNpJg1SzDH4QW/URgNYgZTkjA4UkwJUgGXng+6DX1zLfmoymdXo17xh5zmRJ6Q42BWCfc2oJfdAr+Yv+AP9Cb7OJ3H/2JG1HNGz/84klThPVCc=);labelBackgroundColor=none;rounded=0;html=1;whiteSpace=wrap;fontStyle=2;fontFamily=GOST type B;align=left;fontSize=16;spacingLeft=4;" parent="1" vertex="1">
          <mxGeometry x="195.5" y="1882" width="460" height="32" as="geometry" />
        </mxCell>
        <mxCell id="M4-_52vN5Fsn0eyjyp_X-289" value="" style="vsdxID=130;fillColor=none;gradientColor=none;shape=stencil(nZBLDoAgDERP0z3SIyjew0SURgSD+Lu9kMZoXLhwN9O+tukAlrNpJg1SzDH4QW/URgNYgZTkjA4UkwJUgGXng+6DX1zLfmoymdXo17xh5zmRJ6Q42BWCfc2oJfdAr+Yv+AP9Cb7OJ3H/2JG1HNGz/84klThPVCc=);labelBackgroundColor=none;rounded=0;html=1;whiteSpace=wrap;fontStyle=2;fontFamily=GOST type B;align=center;fontSize=16;" parent="1" vertex="1">
          <mxGeometry x="655.5" y="1882" width="39" height="32" as="geometry" />
        </mxCell>
        <mxCell id="M4-_52vN5Fsn0eyjyp_X-290" value="" style="vsdxID=127;fillColor=none;gradientColor=none;shape=stencil(nZBLDoAgDERP0z3SIyjew0SURgSD+Lu9kMZoXLhwN9O+tukAlrNpJg1SzDH4QW/URgNYgZTkjA4UkwJUgGXng+6DX1zLfmoymdXo17xh5zmRJ6Q42BWCfc2oJfdAr+Yv+AP9Cb7OJ3H/2JG1HNGz/84klThPVCc=);labelBackgroundColor=none;rounded=0;html=1;whiteSpace=wrap;fontStyle=2;fontFamily=GOST type B;align=center;fontSize=16;" parent="1" vertex="1">
          <mxGeometry x="695" y="1882" width="120" height="32" as="geometry" />
        </mxCell>
        <mxCell id="M4-_52vN5Fsn0eyjyp_X-291" value="" style="vsdxID=128;fillColor=none;gradientColor=none;shape=stencil(nZBLDoAgDERP0z3SIyjew0SURgSD+Lu9kMZoXLhwN9O+tukAlrNpJg1SzDH4QW/URgNYgZTkjA4UkwJUgGXng+6DX1zLfmoymdXo17xh5zmRJ6Q42BWCfc2oJfdAr+Yv+AP9Cb7OJ3H/2JG1HNGz/84klThPVCc=);labelBackgroundColor=none;rounded=0;html=1;whiteSpace=wrap;fontStyle=2;fontFamily=GOST type B;align=center;fontSize=16;spacingLeft=0;" parent="1" vertex="1">
          <mxGeometry x="75.5" y="1914" width="120" height="32" as="geometry" />
        </mxCell>
        <mxCell id="M4-_52vN5Fsn0eyjyp_X-292" value="" style="vsdxID=129;fillColor=none;gradientColor=none;shape=stencil(nZBLDoAgDERP0z3SIyjew0SURgSD+Lu9kMZoXLhwN9O+tukAlrNpJg1SzDH4QW/URgNYgZTkjA4UkwJUgGXng+6DX1zLfmoymdXo17xh5zmRJ6Q42BWCfc2oJfdAr+Yv+AP9Cb7OJ3H/2JG1HNGz/84klThPVCc=);labelBackgroundColor=none;rounded=0;html=1;whiteSpace=wrap;fontStyle=2;fontFamily=GOST type B;align=left;fontSize=16;spacingLeft=4;" parent="1" vertex="1">
          <mxGeometry x="195.5" y="1914" width="460" height="32" as="geometry" />
        </mxCell>
        <mxCell id="M4-_52vN5Fsn0eyjyp_X-293" value="" style="vsdxID=130;fillColor=none;gradientColor=none;shape=stencil(nZBLDoAgDERP0z3SIyjew0SURgSD+Lu9kMZoXLhwN9O+tukAlrNpJg1SzDH4QW/URgNYgZTkjA4UkwJUgGXng+6DX1zLfmoymdXo17xh5zmRJ6Q42BWCfc2oJfdAr+Yv+AP9Cb7OJ3H/2JG1HNGz/84klThPVCc=);labelBackgroundColor=none;rounded=0;html=1;whiteSpace=wrap;fontStyle=2;fontFamily=GOST type B;align=center;fontSize=16;" parent="1" vertex="1">
          <mxGeometry x="655.5" y="1914" width="39" height="32" as="geometry" />
        </mxCell>
        <mxCell id="M4-_52vN5Fsn0eyjyp_X-294" value="" style="vsdxID=127;fillColor=none;gradientColor=none;shape=stencil(nZBLDoAgDERP0z3SIyjew0SURgSD+Lu9kMZoXLhwN9O+tukAlrNpJg1SzDH4QW/URgNYgZTkjA4UkwJUgGXng+6DX1zLfmoymdXo17xh5zmRJ6Q42BWCfc2oJfdAr+Yv+AP9Cb7OJ3H/2JG1HNGz/84klThPVCc=);labelBackgroundColor=none;rounded=0;html=1;whiteSpace=wrap;fontStyle=2;fontFamily=GOST type B;align=center;fontSize=16;" parent="1" vertex="1">
          <mxGeometry x="695" y="1914" width="120" height="32" as="geometry" />
        </mxCell>
        <mxCell id="M4-_52vN5Fsn0eyjyp_X-295" value="" style="vsdxID=128;fillColor=none;gradientColor=none;shape=stencil(nZBLDoAgDERP0z3SIyjew0SURgSD+Lu9kMZoXLhwN9O+tukAlrNpJg1SzDH4QW/URgNYgZTkjA4UkwJUgGXng+6DX1zLfmoymdXo17xh5zmRJ6Q42BWCfc2oJfdAr+Yv+AP9Cb7OJ3H/2JG1HNGz/84klThPVCc=);labelBackgroundColor=none;rounded=0;html=1;whiteSpace=wrap;fontStyle=2;fontFamily=GOST type B;align=center;fontSize=16;spacingLeft=0;" parent="1" vertex="1">
          <mxGeometry x="75.5" y="1946" width="120" height="32" as="geometry" />
        </mxCell>
        <mxCell id="M4-_52vN5Fsn0eyjyp_X-296" value="" style="vsdxID=129;fillColor=none;gradientColor=none;shape=stencil(nZBLDoAgDERP0z3SIyjew0SURgSD+Lu9kMZoXLhwN9O+tukAlrNpJg1SzDH4QW/URgNYgZTkjA4UkwJUgGXng+6DX1zLfmoymdXo17xh5zmRJ6Q42BWCfc2oJfdAr+Yv+AP9Cb7OJ3H/2JG1HNGz/84klThPVCc=);labelBackgroundColor=none;rounded=0;html=1;whiteSpace=wrap;fontStyle=2;fontFamily=GOST type B;align=left;fontSize=16;spacingLeft=4;" parent="1" vertex="1">
          <mxGeometry x="195.5" y="1946" width="460" height="32" as="geometry" />
        </mxCell>
        <mxCell id="M4-_52vN5Fsn0eyjyp_X-297" value="" style="vsdxID=130;fillColor=none;gradientColor=none;shape=stencil(nZBLDoAgDERP0z3SIyjew0SURgSD+Lu9kMZoXLhwN9O+tukAlrNpJg1SzDH4QW/URgNYgZTkjA4UkwJUgGXng+6DX1zLfmoymdXo17xh5zmRJ6Q42BWCfc2oJfdAr+Yv+AP9Cb7OJ3H/2JG1HNGz/84klThPVCc=);labelBackgroundColor=none;rounded=0;html=1;whiteSpace=wrap;fontStyle=2;fontFamily=GOST type B;align=center;fontSize=16;" parent="1" vertex="1">
          <mxGeometry x="655.5" y="1946" width="39" height="32" as="geometry" />
        </mxCell>
        <mxCell id="M4-_52vN5Fsn0eyjyp_X-298" value="" style="vsdxID=127;fillColor=none;gradientColor=none;shape=stencil(nZBLDoAgDERP0z3SIyjew0SURgSD+Lu9kMZoXLhwN9O+tukAlrNpJg1SzDH4QW/URgNYgZTkjA4UkwJUgGXng+6DX1zLfmoymdXo17xh5zmRJ6Q42BWCfc2oJfdAr+Yv+AP9Cb7OJ3H/2JG1HNGz/84klThPVCc=);labelBackgroundColor=none;rounded=0;html=1;whiteSpace=wrap;fontStyle=2;fontFamily=GOST type B;align=center;fontSize=16;" parent="1" vertex="1">
          <mxGeometry x="695" y="1946" width="120" height="32" as="geometry" />
        </mxCell>
        <mxCell id="M4-_52vN5Fsn0eyjyp_X-299" value="" style="vsdxID=128;fillColor=none;gradientColor=none;shape=stencil(nZBLDoAgDERP0z3SIyjew0SURgSD+Lu9kMZoXLhwN9O+tukAlrNpJg1SzDH4QW/URgNYgZTkjA4UkwJUgGXng+6DX1zLfmoymdXo17xh5zmRJ6Q42BWCfc2oJfdAr+Yv+AP9Cb7OJ3H/2JG1HNGz/84klThPVCc=);labelBackgroundColor=none;rounded=0;html=1;whiteSpace=wrap;fontStyle=2;fontFamily=GOST type B;align=center;fontSize=16;spacingLeft=0;" parent="1" vertex="1">
          <mxGeometry x="75.5" y="1978" width="120" height="32" as="geometry" />
        </mxCell>
        <mxCell id="M4-_52vN5Fsn0eyjyp_X-300" value="" style="vsdxID=129;fillColor=none;gradientColor=none;shape=stencil(nZBLDoAgDERP0z3SIyjew0SURgSD+Lu9kMZoXLhwN9O+tukAlrNpJg1SzDH4QW/URgNYgZTkjA4UkwJUgGXng+6DX1zLfmoymdXo17xh5zmRJ6Q42BWCfc2oJfdAr+Yv+AP9Cb7OJ3H/2JG1HNGz/84klThPVCc=);labelBackgroundColor=none;rounded=0;html=1;whiteSpace=wrap;fontStyle=2;fontFamily=GOST type B;align=left;fontSize=16;spacingLeft=4;" parent="1" vertex="1">
          <mxGeometry x="195.5" y="1978" width="460" height="32" as="geometry" />
        </mxCell>
        <mxCell id="M4-_52vN5Fsn0eyjyp_X-301" value="" style="vsdxID=130;fillColor=none;gradientColor=none;shape=stencil(nZBLDoAgDERP0z3SIyjew0SURgSD+Lu9kMZoXLhwN9O+tukAlrNpJg1SzDH4QW/URgNYgZTkjA4UkwJUgGXng+6DX1zLfmoymdXo17xh5zmRJ6Q42BWCfc2oJfdAr+Yv+AP9Cb7OJ3H/2JG1HNGz/84klThPVCc=);labelBackgroundColor=none;rounded=0;html=1;whiteSpace=wrap;fontStyle=2;fontFamily=GOST type B;align=center;fontSize=16;" parent="1" vertex="1">
          <mxGeometry x="655.5" y="1978" width="39" height="32" as="geometry" />
        </mxCell>
        <mxCell id="M4-_52vN5Fsn0eyjyp_X-302" value="" style="vsdxID=127;fillColor=none;gradientColor=none;shape=stencil(nZBLDoAgDERP0z3SIyjew0SURgSD+Lu9kMZoXLhwN9O+tukAlrNpJg1SzDH4QW/URgNYgZTkjA4UkwJUgGXng+6DX1zLfmoymdXo17xh5zmRJ6Q42BWCfc2oJfdAr+Yv+AP9Cb7OJ3H/2JG1HNGz/84klThPVCc=);labelBackgroundColor=none;rounded=0;html=1;whiteSpace=wrap;fontStyle=2;fontFamily=GOST type B;align=center;fontSize=16;" parent="1" vertex="1">
          <mxGeometry x="695" y="1978" width="120" height="32" as="geometry" />
        </mxCell>
        <mxCell id="M4-_52vN5Fsn0eyjyp_X-303" value="" style="vsdxID=128;fillColor=none;gradientColor=none;shape=stencil(nZBLDoAgDERP0z3SIyjew0SURgSD+Lu9kMZoXLhwN9O+tukAlrNpJg1SzDH4QW/URgNYgZTkjA4UkwJUgGXng+6DX1zLfmoymdXo17xh5zmRJ6Q42BWCfc2oJfdAr+Yv+AP9Cb7OJ3H/2JG1HNGz/84klThPVCc=);labelBackgroundColor=none;rounded=0;html=1;whiteSpace=wrap;fontStyle=2;fontFamily=GOST type B;align=center;fontSize=16;spacingLeft=0;" parent="1" vertex="1">
          <mxGeometry x="75.5" y="2010" width="120" height="32" as="geometry" />
        </mxCell>
        <mxCell id="M4-_52vN5Fsn0eyjyp_X-304" value="" style="vsdxID=129;fillColor=none;gradientColor=none;shape=stencil(nZBLDoAgDERP0z3SIyjew0SURgSD+Lu9kMZoXLhwN9O+tukAlrNpJg1SzDH4QW/URgNYgZTkjA4UkwJUgGXng+6DX1zLfmoymdXo17xh5zmRJ6Q42BWCfc2oJfdAr+Yv+AP9Cb7OJ3H/2JG1HNGz/84klThPVCc=);labelBackgroundColor=none;rounded=0;html=1;whiteSpace=wrap;fontStyle=2;fontFamily=GOST type B;align=left;fontSize=16;spacingLeft=4;" parent="1" vertex="1">
          <mxGeometry x="195.5" y="2010" width="460" height="32" as="geometry" />
        </mxCell>
        <mxCell id="M4-_52vN5Fsn0eyjyp_X-305" value="" style="vsdxID=130;fillColor=none;gradientColor=none;shape=stencil(nZBLDoAgDERP0z3SIyjew0SURgSD+Lu9kMZoXLhwN9O+tukAlrNpJg1SzDH4QW/URgNYgZTkjA4UkwJUgGXng+6DX1zLfmoymdXo17xh5zmRJ6Q42BWCfc2oJfdAr+Yv+AP9Cb7OJ3H/2JG1HNGz/84klThPVCc=);labelBackgroundColor=none;rounded=0;html=1;whiteSpace=wrap;fontStyle=2;fontFamily=GOST type B;align=center;fontSize=16;" parent="1" vertex="1">
          <mxGeometry x="655.5" y="2010" width="39" height="32" as="geometry" />
        </mxCell>
        <mxCell id="M4-_52vN5Fsn0eyjyp_X-306" value="" style="vsdxID=127;fillColor=none;gradientColor=none;shape=stencil(nZBLDoAgDERP0z3SIyjew0SURgSD+Lu9kMZoXLhwN9O+tukAlrNpJg1SzDH4QW/URgNYgZTkjA4UkwJUgGXng+6DX1zLfmoymdXo17xh5zmRJ6Q42BWCfc2oJfdAr+Yv+AP9Cb7OJ3H/2JG1HNGz/84klThPVCc=);labelBackgroundColor=none;rounded=0;html=1;whiteSpace=wrap;fontStyle=2;fontFamily=GOST type B;align=center;fontSize=16;" parent="1" vertex="1">
          <mxGeometry x="695" y="2010" width="120" height="32" as="geometry" />
        </mxCell>
        <mxCell id="M4-_52vN5Fsn0eyjyp_X-307" value="" style="vsdxID=128;fillColor=none;gradientColor=none;shape=stencil(nZBLDoAgDERP0z3SIyjew0SURgSD+Lu9kMZoXLhwN9O+tukAlrNpJg1SzDH4QW/URgNYgZTkjA4UkwJUgGXng+6DX1zLfmoymdXo17xh5zmRJ6Q42BWCfc2oJfdAr+Yv+AP9Cb7OJ3H/2JG1HNGz/84klThPVCc=);labelBackgroundColor=none;rounded=0;html=1;whiteSpace=wrap;fontStyle=2;fontFamily=GOST type B;align=center;fontSize=16;spacingLeft=0;" parent="1" vertex="1">
          <mxGeometry x="75.5" y="2042" width="120" height="32" as="geometry" />
        </mxCell>
        <mxCell id="M4-_52vN5Fsn0eyjyp_X-308" value="" style="vsdxID=129;fillColor=none;gradientColor=none;shape=stencil(nZBLDoAgDERP0z3SIyjew0SURgSD+Lu9kMZoXLhwN9O+tukAlrNpJg1SzDH4QW/URgNYgZTkjA4UkwJUgGXng+6DX1zLfmoymdXo17xh5zmRJ6Q42BWCfc2oJfdAr+Yv+AP9Cb7OJ3H/2JG1HNGz/84klThPVCc=);labelBackgroundColor=none;rounded=0;html=1;whiteSpace=wrap;fontStyle=2;fontFamily=GOST type B;align=left;fontSize=16;spacingLeft=4;" parent="1" vertex="1">
          <mxGeometry x="195.5" y="2042" width="460" height="32" as="geometry" />
        </mxCell>
        <mxCell id="M4-_52vN5Fsn0eyjyp_X-309" value="" style="vsdxID=130;fillColor=none;gradientColor=none;shape=stencil(nZBLDoAgDERP0z3SIyjew0SURgSD+Lu9kMZoXLhwN9O+tukAlrNpJg1SzDH4QW/URgNYgZTkjA4UkwJUgGXng+6DX1zLfmoymdXo17xh5zmRJ6Q42BWCfc2oJfdAr+Yv+AP9Cb7OJ3H/2JG1HNGz/84klThPVCc=);labelBackgroundColor=none;rounded=0;html=1;whiteSpace=wrap;fontStyle=2;fontFamily=GOST type B;align=center;fontSize=16;" parent="1" vertex="1">
          <mxGeometry x="655.5" y="2042" width="39" height="32" as="geometry" />
        </mxCell>
        <mxCell id="M4-_52vN5Fsn0eyjyp_X-310" value="" style="vsdxID=127;fillColor=none;gradientColor=none;shape=stencil(nZBLDoAgDERP0z3SIyjew0SURgSD+Lu9kMZoXLhwN9O+tukAlrNpJg1SzDH4QW/URgNYgZTkjA4UkwJUgGXng+6DX1zLfmoymdXo17xh5zmRJ6Q42BWCfc2oJfdAr+Yv+AP9Cb7OJ3H/2JG1HNGz/84klThPVCc=);labelBackgroundColor=none;rounded=0;html=1;whiteSpace=wrap;fontStyle=2;fontFamily=GOST type B;align=center;fontSize=16;" parent="1" vertex="1">
          <mxGeometry x="695" y="2042" width="120" height="32" as="geometry" />
        </mxCell>
        <mxCell id="M4-_52vN5Fsn0eyjyp_X-311" value="" style="vsdxID=128;fillColor=none;gradientColor=none;shape=stencil(nZBLDoAgDERP0z3SIyjew0SURgSD+Lu9kMZoXLhwN9O+tukAlrNpJg1SzDH4QW/URgNYgZTkjA4UkwJUgGXng+6DX1zLfmoymdXo17xh5zmRJ6Q42BWCfc2oJfdAr+Yv+AP9Cb7OJ3H/2JG1HNGz/84klThPVCc=);labelBackgroundColor=none;rounded=0;html=1;whiteSpace=wrap;fontStyle=2;fontFamily=GOST type B;align=center;fontSize=16;spacingLeft=0;" parent="1" vertex="1">
          <mxGeometry x="75.5" y="2074" width="120" height="32" as="geometry" />
        </mxCell>
        <mxCell id="M4-_52vN5Fsn0eyjyp_X-312" value="" style="vsdxID=129;fillColor=none;gradientColor=none;shape=stencil(nZBLDoAgDERP0z3SIyjew0SURgSD+Lu9kMZoXLhwN9O+tukAlrNpJg1SzDH4QW/URgNYgZTkjA4UkwJUgGXng+6DX1zLfmoymdXo17xh5zmRJ6Q42BWCfc2oJfdAr+Yv+AP9Cb7OJ3H/2JG1HNGz/84klThPVCc=);labelBackgroundColor=none;rounded=0;html=1;whiteSpace=wrap;fontStyle=2;fontFamily=GOST type B;align=left;fontSize=16;spacingLeft=4;" parent="1" vertex="1">
          <mxGeometry x="195.5" y="2074" width="460" height="32" as="geometry" />
        </mxCell>
        <mxCell id="M4-_52vN5Fsn0eyjyp_X-313" value="" style="vsdxID=130;fillColor=none;gradientColor=none;shape=stencil(nZBLDoAgDERP0z3SIyjew0SURgSD+Lu9kMZoXLhwN9O+tukAlrNpJg1SzDH4QW/URgNYgZTkjA4UkwJUgGXng+6DX1zLfmoymdXo17xh5zmRJ6Q42BWCfc2oJfdAr+Yv+AP9Cb7OJ3H/2JG1HNGz/84klThPVCc=);labelBackgroundColor=none;rounded=0;html=1;whiteSpace=wrap;fontStyle=2;fontFamily=GOST type B;align=center;fontSize=16;" parent="1" vertex="1">
          <mxGeometry x="655.5" y="2074" width="39" height="32" as="geometry" />
        </mxCell>
        <mxCell id="M4-_52vN5Fsn0eyjyp_X-314" value="" style="vsdxID=127;fillColor=none;gradientColor=none;shape=stencil(nZBLDoAgDERP0z3SIyjew0SURgSD+Lu9kMZoXLhwN9O+tukAlrNpJg1SzDH4QW/URgNYgZTkjA4UkwJUgGXng+6DX1zLfmoymdXo17xh5zmRJ6Q42BWCfc2oJfdAr+Yv+AP9Cb7OJ3H/2JG1HNGz/84klThPVCc=);labelBackgroundColor=none;rounded=0;html=1;whiteSpace=wrap;fontStyle=2;fontFamily=GOST type B;align=center;fontSize=16;" parent="1" vertex="1">
          <mxGeometry x="695" y="2074" width="120" height="32" as="geometry" />
        </mxCell>
        <mxCell id="M4-_52vN5Fsn0eyjyp_X-315" value="" style="vsdxID=128;fillColor=none;gradientColor=none;shape=stencil(nZBLDoAgDERP0z3SIyjew0SURgSD+Lu9kMZoXLhwN9O+tukAlrNpJg1SzDH4QW/URgNYgZTkjA4UkwJUgGXng+6DX1zLfmoymdXo17xh5zmRJ6Q42BWCfc2oJfdAr+Yv+AP9Cb7OJ3H/2JG1HNGz/84klThPVCc=);labelBackgroundColor=none;rounded=0;html=1;whiteSpace=wrap;fontStyle=2;fontFamily=GOST type B;align=center;fontSize=16;spacingLeft=0;" parent="1" vertex="1">
          <mxGeometry x="75.5" y="2106" width="120" height="32" as="geometry" />
        </mxCell>
        <mxCell id="M4-_52vN5Fsn0eyjyp_X-316" value="" style="vsdxID=129;fillColor=none;gradientColor=none;shape=stencil(nZBLDoAgDERP0z3SIyjew0SURgSD+Lu9kMZoXLhwN9O+tukAlrNpJg1SzDH4QW/URgNYgZTkjA4UkwJUgGXng+6DX1zLfmoymdXo17xh5zmRJ6Q42BWCfc2oJfdAr+Yv+AP9Cb7OJ3H/2JG1HNGz/84klThPVCc=);labelBackgroundColor=none;rounded=0;html=1;whiteSpace=wrap;fontStyle=2;fontFamily=GOST type B;align=left;fontSize=16;spacingLeft=4;" parent="1" vertex="1">
          <mxGeometry x="195.5" y="2106" width="460" height="32" as="geometry" />
        </mxCell>
        <mxCell id="M4-_52vN5Fsn0eyjyp_X-317" value="" style="vsdxID=130;fillColor=none;gradientColor=none;shape=stencil(nZBLDoAgDERP0z3SIyjew0SURgSD+Lu9kMZoXLhwN9O+tukAlrNpJg1SzDH4QW/URgNYgZTkjA4UkwJUgGXng+6DX1zLfmoymdXo17xh5zmRJ6Q42BWCfc2oJfdAr+Yv+AP9Cb7OJ3H/2JG1HNGz/84klThPVCc=);labelBackgroundColor=none;rounded=0;html=1;whiteSpace=wrap;fontStyle=2;fontFamily=GOST type B;align=center;fontSize=16;" parent="1" vertex="1">
          <mxGeometry x="655.5" y="2106" width="39" height="32" as="geometry" />
        </mxCell>
        <mxCell id="M4-_52vN5Fsn0eyjyp_X-318" value="" style="vsdxID=127;fillColor=none;gradientColor=none;shape=stencil(nZBLDoAgDERP0z3SIyjew0SURgSD+Lu9kMZoXLhwN9O+tukAlrNpJg1SzDH4QW/URgNYgZTkjA4UkwJUgGXng+6DX1zLfmoymdXo17xh5zmRJ6Q42BWCfc2oJfdAr+Yv+AP9Cb7OJ3H/2JG1HNGz/84klThPVCc=);labelBackgroundColor=none;rounded=0;html=1;whiteSpace=wrap;fontStyle=2;fontFamily=GOST type B;align=center;fontSize=16;" parent="1" vertex="1">
          <mxGeometry x="695" y="2106" width="120" height="32" as="geometry" />
        </mxCell>
        <mxCell id="M4-_52vN5Fsn0eyjyp_X-319" value="" style="vsdxID=128;fillColor=none;gradientColor=none;shape=stencil(nZBLDoAgDERP0z3SIyjew0SURgSD+Lu9kMZoXLhwN9O+tukAlrNpJg1SzDH4QW/URgNYgZTkjA4UkwJUgGXng+6DX1zLfmoymdXo17xh5zmRJ6Q42BWCfc2oJfdAr+Yv+AP9Cb7OJ3H/2JG1HNGz/84klThPVCc=);labelBackgroundColor=none;rounded=0;html=1;whiteSpace=wrap;fontStyle=2;fontFamily=GOST type B;align=center;fontSize=16;spacingLeft=0;" parent="1" vertex="1">
          <mxGeometry x="75.5" y="2138" width="120" height="32" as="geometry" />
        </mxCell>
        <mxCell id="M4-_52vN5Fsn0eyjyp_X-320" value="" style="vsdxID=129;fillColor=none;gradientColor=none;shape=stencil(nZBLDoAgDERP0z3SIyjew0SURgSD+Lu9kMZoXLhwN9O+tukAlrNpJg1SzDH4QW/URgNYgZTkjA4UkwJUgGXng+6DX1zLfmoymdXo17xh5zmRJ6Q42BWCfc2oJfdAr+Yv+AP9Cb7OJ3H/2JG1HNGz/84klThPVCc=);labelBackgroundColor=none;rounded=0;html=1;whiteSpace=wrap;fontStyle=2;fontFamily=GOST type B;align=left;fontSize=16;spacingLeft=4;" parent="1" vertex="1">
          <mxGeometry x="195.5" y="2138" width="460" height="32" as="geometry" />
        </mxCell>
        <mxCell id="M4-_52vN5Fsn0eyjyp_X-321" value="" style="vsdxID=130;fillColor=none;gradientColor=none;shape=stencil(nZBLDoAgDERP0z3SIyjew0SURgSD+Lu9kMZoXLhwN9O+tukAlrNpJg1SzDH4QW/URgNYgZTkjA4UkwJUgGXng+6DX1zLfmoymdXo17xh5zmRJ6Q42BWCfc2oJfdAr+Yv+AP9Cb7OJ3H/2JG1HNGz/84klThPVCc=);labelBackgroundColor=none;rounded=0;html=1;whiteSpace=wrap;fontStyle=2;fontFamily=GOST type B;align=center;fontSize=16;" parent="1" vertex="1">
          <mxGeometry x="655.5" y="2138" width="39" height="32" as="geometry" />
        </mxCell>
        <mxCell id="M4-_52vN5Fsn0eyjyp_X-322" value="" style="vsdxID=127;fillColor=none;gradientColor=none;shape=stencil(nZBLDoAgDERP0z3SIyjew0SURgSD+Lu9kMZoXLhwN9O+tukAlrNpJg1SzDH4QW/URgNYgZTkjA4UkwJUgGXng+6DX1zLfmoymdXo17xh5zmRJ6Q42BWCfc2oJfdAr+Yv+AP9Cb7OJ3H/2JG1HNGz/84klThPVCc=);labelBackgroundColor=none;rounded=0;html=1;whiteSpace=wrap;fontStyle=2;fontFamily=GOST type B;align=center;fontSize=16;" parent="1" vertex="1">
          <mxGeometry x="695" y="2138" width="120" height="32" as="geometry" />
        </mxCell>
        <mxCell id="M4-_52vN5Fsn0eyjyp_X-323" value="" style="vsdxID=128;fillColor=none;gradientColor=none;shape=stencil(nZBLDoAgDERP0z3SIyjew0SURgSD+Lu9kMZoXLhwN9O+tukAlrNpJg1SzDH4QW/URgNYgZTkjA4UkwJUgGXng+6DX1zLfmoymdXo17xh5zmRJ6Q42BWCfc2oJfdAr+Yv+AP9Cb7OJ3H/2JG1HNGz/84klThPVCc=);labelBackgroundColor=none;rounded=0;html=1;whiteSpace=wrap;fontStyle=2;fontFamily=GOST type B;align=center;fontSize=16;spacingLeft=0;" parent="1" vertex="1">
          <mxGeometry x="76" y="2170" width="120" height="32" as="geometry" />
        </mxCell>
        <mxCell id="M4-_52vN5Fsn0eyjyp_X-324" value="" style="vsdxID=129;fillColor=none;gradientColor=none;shape=stencil(nZBLDoAgDERP0z3SIyjew0SURgSD+Lu9kMZoXLhwN9O+tukAlrNpJg1SzDH4QW/URgNYgZTkjA4UkwJUgGXng+6DX1zLfmoymdXo17xh5zmRJ6Q42BWCfc2oJfdAr+Yv+AP9Cb7OJ3H/2JG1HNGz/84klThPVCc=);labelBackgroundColor=none;rounded=0;html=1;whiteSpace=wrap;fontStyle=2;fontFamily=GOST type B;align=left;fontSize=16;spacingLeft=4;" parent="1" vertex="1">
          <mxGeometry x="196" y="2170" width="460" height="32" as="geometry" />
        </mxCell>
        <mxCell id="M4-_52vN5Fsn0eyjyp_X-325" value="" style="vsdxID=130;fillColor=none;gradientColor=none;shape=stencil(nZBLDoAgDERP0z3SIyjew0SURgSD+Lu9kMZoXLhwN9O+tukAlrNpJg1SzDH4QW/URgNYgZTkjA4UkwJUgGXng+6DX1zLfmoymdXo17xh5zmRJ6Q42BWCfc2oJfdAr+Yv+AP9Cb7OJ3H/2JG1HNGz/84klThPVCc=);labelBackgroundColor=none;rounded=0;html=1;whiteSpace=wrap;fontStyle=2;fontFamily=GOST type B;align=center;fontSize=16;" parent="1" vertex="1">
          <mxGeometry x="656" y="2170" width="39" height="32" as="geometry" />
        </mxCell>
        <mxCell id="M4-_52vN5Fsn0eyjyp_X-326" value="" style="vsdxID=127;fillColor=none;gradientColor=none;shape=stencil(nZBLDoAgDERP0z3SIyjew0SURgSD+Lu9kMZoXLhwN9O+tukAlrNpJg1SzDH4QW/URgNYgZTkjA4UkwJUgGXng+6DX1zLfmoymdXo17xh5zmRJ6Q42BWCfc2oJfdAr+Yv+AP9Cb7OJ3H/2JG1HNGz/84klThPVCc=);labelBackgroundColor=none;rounded=0;html=1;whiteSpace=wrap;fontStyle=2;fontFamily=GOST type B;align=center;fontSize=16;" parent="1" vertex="1">
          <mxGeometry x="695.5" y="2170" width="120" height="32" as="geometry" />
        </mxCell>
        <mxCell id="M4-_52vN5Fsn0eyjyp_X-327" value="" style="vsdxID=128;fillColor=none;gradientColor=none;shape=stencil(nZBLDoAgDERP0z3SIyjew0SURgSD+Lu9kMZoXLhwN9O+tukAlrNpJg1SzDH4QW/URgNYgZTkjA4UkwJUgGXng+6DX1zLfmoymdXo17xh5zmRJ6Q42BWCfc2oJfdAr+Yv+AP9Cb7OJ3H/2JG1HNGz/84klThPVCc=);labelBackgroundColor=none;rounded=0;html=1;whiteSpace=wrap;fontStyle=2;fontFamily=GOST type B;align=center;fontSize=16;spacingLeft=0;" parent="1" vertex="1">
          <mxGeometry x="76" y="2202" width="120" height="32" as="geometry" />
        </mxCell>
        <mxCell id="M4-_52vN5Fsn0eyjyp_X-328" value="" style="vsdxID=129;fillColor=none;gradientColor=none;shape=stencil(nZBLDoAgDERP0z3SIyjew0SURgSD+Lu9kMZoXLhwN9O+tukAlrNpJg1SzDH4QW/URgNYgZTkjA4UkwJUgGXng+6DX1zLfmoymdXo17xh5zmRJ6Q42BWCfc2oJfdAr+Yv+AP9Cb7OJ3H/2JG1HNGz/84klThPVCc=);labelBackgroundColor=none;rounded=0;html=1;whiteSpace=wrap;fontStyle=2;fontFamily=GOST type B;align=left;fontSize=16;spacingLeft=4;" parent="1" vertex="1">
          <mxGeometry x="196" y="2202" width="460" height="32" as="geometry" />
        </mxCell>
        <mxCell id="M4-_52vN5Fsn0eyjyp_X-329" value="" style="vsdxID=130;fillColor=none;gradientColor=none;shape=stencil(nZBLDoAgDERP0z3SIyjew0SURgSD+Lu9kMZoXLhwN9O+tukAlrNpJg1SzDH4QW/URgNYgZTkjA4UkwJUgGXng+6DX1zLfmoymdXo17xh5zmRJ6Q42BWCfc2oJfdAr+Yv+AP9Cb7OJ3H/2JG1HNGz/84klThPVCc=);labelBackgroundColor=none;rounded=0;html=1;whiteSpace=wrap;fontStyle=2;fontFamily=GOST type B;align=center;fontSize=16;" parent="1" vertex="1">
          <mxGeometry x="656" y="2202" width="39" height="32" as="geometry" />
        </mxCell>
        <mxCell id="M4-_52vN5Fsn0eyjyp_X-330" value="" style="vsdxID=127;fillColor=none;gradientColor=none;shape=stencil(nZBLDoAgDERP0z3SIyjew0SURgSD+Lu9kMZoXLhwN9O+tukAlrNpJg1SzDH4QW/URgNYgZTkjA4UkwJUgGXng+6DX1zLfmoymdXo17xh5zmRJ6Q42BWCfc2oJfdAr+Yv+AP9Cb7OJ3H/2JG1HNGz/84klThPVCc=);labelBackgroundColor=none;rounded=0;html=1;whiteSpace=wrap;fontStyle=2;fontFamily=GOST type B;align=center;fontSize=16;" parent="1" vertex="1">
          <mxGeometry x="695.5" y="2202" width="120" height="32" as="geometry" />
        </mxCell>
        <mxCell id="M4-_52vN5Fsn0eyjyp_X-331" value="&lt;font style=&quot;font-size: 22px; color: rgb(0, 0, 0); direction: ltr; letter-spacing: 0px; line-height: 120%; opacity: 1;&quot;&gt;&lt;i style=&quot;font-size: 22px;&quot;&gt;2&lt;br style=&quot;font-size: 22px;&quot;&gt;&lt;/i&gt;&lt;/font&gt;" style="verticalAlign=middle;align=center;vsdxID=38;fillColor=none;gradientColor=none;shape=stencil(nZBLDoAgDERP0z3SIyjew0SURgSD+Lu9kMZoXLhwN9O+tukAlrNpJg1SzDH4QW/URgNYgZTkjA4UkwJUgGXng+6DX1zLfmoymdXo17xh5zmRJ6Q42BWCfc2oJfdAr+Yv+AP9Cb7OJ3H/2JG1HNGz/84klThPVCc=);strokeColor=none;strokeWidth=4;spacingTop=-1;spacingBottom=-1;spacingLeft=-1;spacingRight=-1;labelBackgroundColor=none;rounded=0;html=1;whiteSpace=wrap;fontFamily=GOST type B;fontSize=22;" parent="1" vertex="1">
          <mxGeometry x="747" y="2278" width="66" height="50" as="geometry" />
        </mxCell>
        <mxCell id="M4-_52vN5Fsn0eyjyp_X-332" value="&lt;font style=&quot;font-size: 11px; color: rgb(0, 0, 0); direction: ltr; letter-spacing: 0px; line-height: 120%; opacity: 1;&quot;&gt;&lt;i&gt;1&lt;br&gt;&lt;/i&gt;&lt;/font&gt;" style="verticalAlign=middle;align=center;vsdxID=39;fillColor=none;gradientColor=none;shape=stencil(nZBLDoAgDERP0z3SIyjew0SURgSD+Lu9kMZoXLhwN9O+tukAlrNpJg1SzDH4QW/URgNYgZTkjA4UkwJUgGXng+6DX1zLfmoymdXo17xh5zmRJ6Q42BWCfc2oJfdAr+Yv+AP9Cb7OJ3H/2JG1HNGz/84klThPVCc=);strokeColor=none;strokeWidth=4;spacingTop=-1;spacingBottom=-1;spacingLeft=-1;spacingRight=-1;labelBackgroundColor=none;rounded=0;html=1;whiteSpace=wrap;fontFamily=GOST type B;" parent="1" vertex="1">
          <mxGeometry x="670" y="1080" width="24" height="16" as="geometry" />
        </mxCell>
      </root>
    </mxGraphModel>
  </diagram>
</mxfile>
